Formera-Light.ufo
<glyph name="percent" format="1">
  <advance width="605"/>
  <unicode hex="0025"/>
  <outline>
    <contour>
      <point x="155" y="672" type="curve" smooth="yes"/>
      <point x="140" y="670" type="line"/>
      <point x="139" y="670" type="line" smooth="yes"/>
      <point x="128" y="668"/>
      <point x="121" y="666"/>
      <point x="113" y="663" type="curve" smooth="yes"/>
      <point x="90" y="652" type="line"/>
      <point x="90" y="653"/>
      <point x="87" y="650"/>
      <point x="78" y="643" type="curve" smooth="yes"/>
      <point x="71" y="636" type="line"/>
      <point x="70" y="636" type="line"/>
      <point x="62" y="628"/>
      <point x="57" y="622"/>
      <point x="52" y="613" type="curve"/>
      <point x="52" y="614"/>
      <point x="51" y="610"/>
      <point x="46" y="600" type="curve" smooth="yes"/>
      <point x="44" y="594" type="line"/>
      <point x="40" y="588" type="line" smooth="yes"/>
      <point x="37" y="584"/>
      <point x="35" y="579"/>
      <point x="33" y="569" type="curve" smooth="yes"/>
      <point x="32" y="557"/>
      <point x="32" y="550"/>
      <point x="34" y="542" type="curve"/>
      <point x="34" y="529" type="line" smooth="yes"/>
      <point x="33" y="519"/>
      <point x="34" y="513"/>
      <point x="35" y="509" type="curve" smooth="yes"/>
      <point x="36" y="505"/>
      <point x="38" y="500"/>
      <point x="44" y="490" type="curve"/>
      <point x="46" y="483" type="line" smooth="yes"/>
      <point x="47" y="477"/>
      <point x="49" y="472"/>
      <point x="55" y="465" type="curve"/>
      <point x="54" y="465"/>
      <point x="62" y="456"/>
      <point x="71" y="448" type="curve" smooth="yes"/>
      <point x="90" y="430" type="line"/>
      <point x="90" y="428"/>
      <point x="97" y="425"/>
      <point x="111" y="421" type="curve"/>
      <point x="113" y="421" type="line"/>
      <point x="112" y="420" type="line" smooth="yes"/>
      <point x="111" y="419"/>
      <point x="122" y="416"/>
      <point x="137" y="414" type="curve"/>
      <point x="144" y="412" type="line" smooth="yes"/>
      <point x="148" y="411"/>
      <point x="154" y="410"/>
      <point x="166" y="411" type="curve" smooth="yes"/>
      <point x="169" y="411" type="line"/>
      <point x="185" y="413" type="line" smooth="yes"/>
      <point x="195" y="414"/>
      <point x="203" y="415"/>
      <point x="213" y="418" type="curve" smooth="yes"/>
      <point x="225" y="421" type="line"/>
      <point x="225" y="419"/>
      <point x="235" y="423"/>
      <point x="248" y="430" type="curve" smooth="yes"/>
      <point x="255" y="434"/>
      <point x="260" y="439"/>
      <point x="267" y="448" type="curve"/>
      <point x="272" y="452" type="line" smooth="yes"/>
      <point x="275" y="454"/>
      <point x="278" y="458"/>
      <point x="284" y="468" type="curve"/>
      <point x="294" y="490" type="line"/>
      <point x="298" y="501" type="line" smooth="yes"/>
      <point x="302" y="511"/>
      <point x="303" y="517"/>
      <point x="304" y="523" type="curve" smooth="yes"/>
      <point x="305" y="528"/>
      <point x="305" y="533"/>
      <point x="304" y="542" type="curve" smooth="yes"/>
      <point x="304" y="552"/>
      <point x="303" y="559"/>
      <point x="302" y="569" type="curve" smooth="yes"/>
      <point x="300" y="579"/>
      <point x="298" y="586"/>
      <point x="294" y="594" type="curve"/>
      <point x="291" y="604"/>
      <point x="288" y="610"/>
      <point x="283" y="617" type="curve" smooth="yes"/>
      <point x="267" y="636" type="line"/>
      <point x="258" y="644" type="line" smooth="yes"/>
      <point x="250" y="650"/>
      <point x="244" y="654"/>
      <point x="234" y="659" type="curve" smooth="yes"/>
      <point x="225" y="663" type="line"/>
      <point x="213" y="667" type="line" smooth="yes"/>
      <point x="202" y="670"/>
      <point x="194" y="671"/>
      <point x="184" y="672" type="curve" smooth="yes"/>
      <point x="173" y="673"/>
      <point x="165" y="673"/>
    </contour>
    <contour>
      <point x="76" y="529" type="line"/>
      <point x="76" y="553" type="line"/>
      <point x="84" y="582" type="line"/>
      <point x="98" y="604" type="line"/>
      <point x="120" y="621" type="line"/>
      <point x="119" y="620" type="line" smooth="yes"/>
      <point x="118" y="619"/>
      <point x="140" y="629"/>
      <point x="150" y="633" type="curve"/>
      <point x="150" y="631"/>
      <point x="156" y="632"/>
      <point x="166" y="634" type="curve"/>
      <point x="187" y="634" type="line"/>
      <point x="187" y="631" type="line"/>
      <point x="189" y="634" type="line"/>
      <point x="189" y="633" type="line" smooth="yes"/>
      <point x="189" y="631"/>
      <point x="196" y="629"/>
      <point x="211" y="626" type="curve" smooth="yes"/>
      <point x="218" y="624" type="line"/>
      <point x="217" y="623" type="line" smooth="yes"/>
      <point x="216" y="622"/>
      <point x="223" y="615"/>
      <point x="237" y="605" type="curve" smooth="yes"/>
      <point x="240" y="603" type="line"/>
      <point x="238" y="601"/>
      <point x="240" y="598"/>
      <point x="246" y="594" type="curve"/>
      <point x="244" y="594"/>
      <point x="247" y="589"/>
      <point x="252" y="583" type="curve"/>
      <point x="251" y="582" type="line" smooth="yes"/>
      <point x="249" y="580"/>
      <point x="252" y="574"/>
      <point x="259" y="561" type="curve" smooth="yes"/>
      <point x="262" y="555" type="line"/>
      <point x="262" y="529" type="line"/>
      <point x="255" y="503" type="line"/>
      <point x="239" y="479" type="line"/>
      <point x="216" y="461" type="line" smooth="yes"/>
      <point x="217" y="462"/>
      <point x="213" y="461"/>
      <point x="202" y="456" type="curve" smooth="yes"/>
      <point x="188" y="451" type="line"/>
      <point x="187" y="451" type="line" smooth="yes"/>
      <point x="185" y="451"/>
      <point x="181" y="450"/>
      <point x="170" y="448" type="curve"/>
      <point x="153" y="450" type="line"/>
      <point x="154" y="450" type="line"/>
      <point x="150" y="451" type="line"/>
      <point x="150" y="452" type="line"/>
      <point x="136" y="456" type="line"/>
      <point x="121" y="461" type="line"/>
      <point x="121" y="462" type="line"/>
      <point x="108" y="471" type="line"/>
      <point x="98" y="479" type="line"/>
      <point x="98" y="480" type="line"/>
      <point x="90" y="494" type="line"/>
      <point x="84" y="503" type="line"/>
      <point x="84" y="504" type="line"/>
      <point x="84" y="504"/>
      <point x="83" y="508"/>
      <point x="79" y="518" type="curve" smooth="yes"/>
    </contour>
    <contour>
      <point x="98" y="-3" type="curve" smooth="yes"/>
      <point x="102" y="-6"/>
      <point x="106" y="-8"/>
      <point x="113" y="-11" type="curve" smooth="yes"/>
      <point x="119" y="-14"/>
      <point x="126" y="-8"/>
      <point x="134" y="5" type="curve" smooth="yes"/>
      <point x="147" y="28" type="line"/>
      <point x="148" y="28" type="line"/>
      <point x="155" y="40" type="line"/>
      <point x="159" y="46" type="line"/>
      <point x="166" y="58" type="line"/>
      <point x="171" y="70" type="line"/>
      <point x="175" y="74" type="line" smooth="yes"/>
      <point x="177" y="77"/>
      <point x="180" y="81"/>
      <point x="185" y="91" type="curve"/>
      <point x="186" y="92"/>
      <point x="188" y="95"/>
      <point x="192" y="105" type="curve" smooth="yes"/>
      <point x="196" y="113" type="line"/>
      <point x="197" y="114" type="line"/>
      <point x="205" y="126" type="line"/>
      <point x="208" y="131" type="line" smooth="yes"/>
      <point x="214" y="140"/>
      <point x="217" y="146"/>
      <point x="221" y="155" type="curve"/>
      <point x="234" y="177" type="line"/>
      <point x="245" y="198" type="line"/>
      <point x="257" y="216" type="line" smooth="yes"/>
      <point x="262" y="223"/>
      <point x="266" y="229"/>
      <point x="270" y="239" type="curve"/>
      <point x="270" y="240" type="line"/>
      <point x="271" y="240" type="line"/>
      <point x="271" y="240"/>
      <point x="273" y="243"/>
      <point x="278" y="253" type="curve" smooth="yes"/>
      <point x="282" y="259" type="line"/>
      <point x="289" y="272" type="line"/>
      <point x="294" y="283" type="line"/>
      <point x="308" y="305" type="line"/>
      <point x="319" y="326" type="line"/>
      <point x="323" y="332" type="line" smooth="yes"/>
      <point x="330" y="341"/>
      <point x="334" y="347"/>
      <point x="339" y="357" type="curve" smooth="yes"/>
      <point x="344" y="368" type="line"/>
      <point x="344" y="367"/>
      <point x="352" y="379"/>
      <point x="357" y="389" type="curve" smooth="yes"/>
      <point x="368" y="411" type="line"/>
      <point x="372" y="415" type="line" smooth="yes"/>
      <point x="374" y="418"/>
      <point x="377" y="422"/>
      <point x="382" y="432" type="curve" smooth="yes"/>
      <point x="393" y="453" type="line"/>
      <point x="393" y="452"/>
      <point x="401" y="464"/>
      <point x="406" y="474" type="curve" smooth="yes"/>
      <point x="410" y="480"/>
      <point x="414" y="486"/>
      <point x="418" y="496" type="curve"/>
      <point x="419" y="497" type="line"/>
      <point x="427" y="509" type="line"/>
      <point x="430" y="514" type="line"/>
      <point x="437" y="526" type="line"/>
      <point x="442" y="538" type="line"/>
      <point x="446" y="543" type="line" smooth="yes"/>
      <point x="448" y="546"/>
      <point x="451" y="551"/>
      <point x="455" y="561" type="curve"/>
      <point x="456" y="561" type="line"/>
      <point x="456" y="561"/>
      <point x="458" y="564"/>
      <point x="463" y="574" type="curve" smooth="yes"/>
      <point x="467" y="581" type="line" smooth="yes"/>
      <point x="473" y="589"/>
      <point x="476" y="595"/>
      <point x="480" y="603" type="curve" smooth="yes"/>
      <point x="491" y="623" type="line"/>
      <point x="505" y="646" type="line" smooth="yes"/>
      <point x="512" y="659"/>
      <point x="501" y="675"/>
      <point x="501" y="675" type="curve"/>
      <point x="502" y="675"/>
      <point x="500" y="676"/>
      <point x="494" y="679" type="curve" smooth="yes"/>
      <point x="489" y="681"/>
      <point x="482" y="675"/>
      <point x="474" y="662" type="curve" smooth="yes"/>
      <point x="471" y="658" type="line"/>
      <point x="471" y="659"/>
      <point x="469" y="656"/>
      <point x="464" y="646" type="curve" smooth="yes"/>
      <point x="461" y="639" type="line"/>
      <point x="456" y="634" type="line" smooth="yes"/>
      <point x="452" y="630"/>
      <point x="449" y="625"/>
      <point x="445" y="615" type="curve" smooth="yes"/>
      <point x="443" y="611" type="line"/>
      <point x="443" y="612"/>
      <point x="441" y="609"/>
      <point x="437" y="599" type="curve" smooth="yes"/>
      <point x="429" y="584" type="line"/>
      <point x="427" y="584"/>
      <point x="425" y="582"/>
      <point x="424" y="577" type="curve"/>
      <point x="420" y="572" type="line" smooth="yes"/>
      <point x="416" y="567"/>
      <point x="414" y="563"/>
      <point x="412" y="554" type="curve"/>
      <point x="407" y="548" type="line" smooth="yes"/>
      <point x="403" y="544"/>
      <point x="401" y="539"/>
      <point x="397" y="530" type="curve"/>
      <point x="397" y="531"/>
      <point x="396" y="529"/>
      <point x="395" y="525" type="curve"/>
      <point x="394" y="524" type="line" smooth="yes"/>
      <point x="392" y="522"/>
      <point x="390" y="518"/>
      <point x="384" y="509" type="curve" smooth="yes"/>
      <point x="380" y="501" type="line"/>
      <point x="380" y="502"/>
      <point x="378" y="499"/>
      <point x="372" y="490" type="curve"/>
      <point x="370" y="490"/>
      <point x="369" y="488"/>
      <point x="369" y="483" type="curve"/>
      <point x="368" y="483" type="line" smooth="yes"/>
      <point x="366" y="483"/>
      <point x="364" y="477"/>
      <point x="358" y="464" type="curve" smooth="yes"/>
      <point x="355" y="456" type="line"/>
      <point x="355" y="457"/>
      <point x="353" y="454"/>
      <point x="348" y="445" type="curve"/>
      <point x="347" y="445" type="line" smooth="yes"/>
      <point x="345" y="445"/>
      <point x="343" y="439"/>
      <point x="338" y="427" type="curve"/>
      <point x="338" y="428"/>
      <point x="336" y="425"/>
      <point x="331" y="415" type="curve" smooth="yes"/>
      <point x="326" y="406" type="line"/>
      <point x="320" y="396" type="line"/>
      <point x="314" y="384" type="line"/>
      <point x="289" y="342" type="line"/>
      <point x="282" y="332" type="line"/>
      <point x="274" y="320" type="line"/>
      <point x="274" y="321"/>
      <point x="272" y="317"/>
      <point x="268" y="307" type="curve" smooth="yes"/>
      <point x="264" y="299" type="line"/>
      <point x="264" y="300"/>
      <point x="262" y="297"/>
      <point x="257" y="287" type="curve" smooth="yes"/>
      <point x="252" y="279" type="line"/>
      <point x="240" y="256" type="line"/>
      <point x="224" y="232" type="line"/>
      <point x="222" y="232"/>
      <point x="219" y="226"/>
      <point x="215" y="214" type="curve"/>
      <point x="200" y="190" type="line"/>
      <point x="191" y="171" type="line"/>
      <point x="175" y="150" type="line"/>
      <point x="175" y="151"/>
      <point x="173" y="147"/>
      <point x="169" y="137" type="curve" smooth="yes"/>
      <point x="166" y="129" type="line"/>
      <point x="165" y="129" type="line" smooth="yes"/>
      <point x="163" y="129"/>
      <point x="160" y="123"/>
      <point x="155" y="110" type="curve" smooth="yes"/>
      <point x="154" y="108" type="line"/>
      <point x="150" y="103" type="line" smooth="yes"/>
      <point x="146" y="98"/>
      <point x="144" y="94"/>
      <point x="141" y="86" type="curve"/>
      <point x="129" y="66" type="line"/>
      <point x="117" y="44" type="line"/>
      <point x="104" y="23" type="line"/>
      <point x="97" y="15"/>
      <point x="95" y="11"/>
      <point x="94" y="7" type="curve" smooth="yes"/>
      <point x="92" y="3"/>
      <point x="94" y="0"/>
    </contour>
    <contour>
      <point x="304" y="137" type="curve" smooth="yes"/>
      <point x="304" y="125" type="line"/>
      <point x="306" y="98" type="line" smooth="yes"/>
      <point x="307" y="87"/>
      <point x="309" y="80"/>
      <point x="314" y="73" type="curve"/>
      <point x="316" y="66" type="line" smooth="yes"/>
      <point x="317" y="60"/>
      <point x="319" y="55"/>
      <point x="325" y="48" type="curve"/>
      <point x="324" y="47" type="line" smooth="yes"/>
      <point x="323" y="46"/>
      <point x="329" y="40"/>
      <point x="341" y="31" type="curve"/>
      <point x="340" y="31"/>
      <point x="343" y="26"/>
      <point x="348" y="22" type="curve"/>
      <point x="354" y="15"/>
      <point x="361" y="12"/>
      <point x="372" y="8" type="curve" smooth="yes"/>
      <point x="383" y="4" type="line"/>
      <point x="382" y="3" type="line" smooth="yes"/>
      <point x="381" y="2"/>
      <point x="392" y="-1"/>
      <point x="407" y="-3" type="curve" smooth="yes"/>
      <point x="408" y="-3" type="line" smooth="yes"/>
      <point x="419" y="-6"/>
      <point x="427" y="-7"/>
      <point x="439" y="-5" type="curve" smooth="yes"/>
      <point x="453" y="-4" type="line" smooth="yes"/>
      <point x="464" y="-3"/>
      <point x="472" y="-2"/>
      <point x="483" y="1" type="curve" smooth="yes"/>
      <point x="495" y="4" type="line" smooth="yes"/>
      <point x="504" y="6"/>
      <point x="510" y="9"/>
      <point x="519" y="16" type="curve" smooth="yes"/>
      <point x="534" y="28" type="line" smooth="yes"/>
      <point x="543" y="35"/>
      <point x="548" y="41"/>
      <point x="554" y="51" type="curve"/>
      <point x="555" y="51"/>
      <point x="557" y="55"/>
      <point x="561" y="65" type="curve" smooth="yes"/>
      <point x="564" y="73" type="line"/>
      <point x="568" y="85" type="line" smooth="yes"/>
      <point x="572" y="95"/>
      <point x="573" y="102"/>
      <point x="574" y="109" type="curve"/>
      <point x="574" y="125" type="line" smooth="yes"/>
      <point x="575" y="135"/>
      <point x="574" y="143"/>
      <point x="573" y="153" type="curve" smooth="yes"/>
      <point x="571" y="163"/>
      <point x="568" y="169"/>
      <point x="564" y="177" type="curve"/>
      <point x="565" y="177" type="line"/>
      <point x="560" y="188" type="line" smooth="yes"/>
      <point x="555" y="196"/>
      <point x="552" y="202"/>
      <point x="545" y="211" type="curve"/>
      <point x="542" y="213"/>
      <point x="540" y="216"/>
      <point x="537" y="219" type="curve" smooth="yes"/>
      <point x="518" y="234" type="line" smooth="yes"/>
      <point x="510" y="239"/>
      <point x="504" y="242"/>
      <point x="495" y="246" type="curve" smooth="yes"/>
      <point x="483" y="250" type="line"/>
      <point x="469" y="254" type="line"/>
      <point x="455" y="256" type="line"/>
      <point x="439" y="256" type="line"/>
      <point x="420" y="255" type="line"/>
      <point x="407" y="253" type="line"/>
      <point x="408" y="254"/>
      <point x="404" y="253"/>
      <point x="393" y="249" type="curve" smooth="yes"/>
      <point x="383" y="246" type="line"/>
      <point x="367" y="240" type="line"/>
      <point x="362" y="237" type="line" smooth="yes"/>
      <point x="358" y="235"/>
      <point x="357" y="234"/>
      <point x="358" y="235" type="curve" smooth="yes"/>
      <point x="341" y="219" type="line"/>
      <point x="340" y="219" type="line"/>
      <point x="332" y="211"/>
      <point x="327" y="205"/>
      <point x="322" y="196" type="curve"/>
      <point x="321" y="195" type="line" smooth="yes"/>
      <point x="319" y="193"/>
      <point x="318" y="189"/>
      <point x="314" y="177" type="curve" smooth="yes"/>
      <point x="309" y="164" type="line" smooth="yes"/>
      <point x="305" y="153"/>
      <point x="303" y="146"/>
    </contour>
    <contour>
      <point x="345" y="126" type="line"/>
      <point x="346" y="139" type="line"/>
      <point x="347" y="140" type="line"/>
      <point x="351" y="154" type="line"/>
      <point x="354" y="165" type="line"/>
      <point x="367" y="186" type="line"/>
      <point x="390" y="204" type="line"/>
      <point x="390" y="201" type="line"/>
      <point x="391" y="205" type="line"/>
      <point x="391" y="204" type="line" smooth="yes"/>
      <point x="391" y="203"/>
      <point x="403" y="208"/>
      <point x="420" y="217" type="curve"/>
      <point x="421" y="217" type="line"/>
      <point x="436" y="220" type="line"/>
      <point x="437" y="220" type="line"/>
      <point x="438" y="220" type="line"/>
      <point x="439" y="220" type="line"/>
      <point x="456" y="217" type="line"/>
      <point x="455" y="216" type="line" smooth="yes"/>
      <point x="454" y="215"/>
      <point x="467" y="211"/>
      <point x="485" y="207" type="curve"/>
      <point x="482" y="204" type="line"/>
      <point x="486" y="207" type="line"/>
      <point x="485" y="206" type="line" smooth="yes"/>
      <point x="484" y="205"/>
      <point x="491" y="198"/>
      <point x="505" y="188" type="curve" smooth="yes"/>
      <point x="510" y="185" type="line"/>
      <point x="508" y="185"/>
      <point x="511" y="180"/>
      <point x="516" y="174" type="curve"/>
      <point x="514" y="174"/>
      <point x="517" y="170"/>
      <point x="521" y="166" type="curve"/>
      <point x="521" y="165" type="line" smooth="yes"/>
      <point x="521" y="163"/>
      <point x="523" y="159"/>
      <point x="528" y="148" type="curve" smooth="yes"/>
      <point x="532" y="139" type="line"/>
      <point x="532" y="112" type="line"/>
      <point x="531" y="111" type="line" smooth="yes"/>
      <point x="529" y="109"/>
      <point x="528" y="104"/>
      <point x="526" y="92" type="curve" smooth="yes"/>
      <point x="525" y="86" type="line"/>
      <point x="509" y="62" type="line"/>
      <point x="506" y="59" type="line"/>
      <point x="486" y="44" type="line" smooth="yes"/>
      <point x="487" y="45"/>
      <point x="483" y="43"/>
      <point x="473" y="39" type="curve" smooth="yes"/>
      <point x="458" y="33" type="line"/>
      <point x="423" y="33" type="line"/>
      <point x="424" y="34"/>
      <point x="423" y="34"/>
      <point x="420" y="34" type="curve"/>
      <point x="391" y="44" type="line"/>
      <point x="392" y="45"/>
      <point x="389" y="47"/>
      <point x="380" y="54" type="curve" smooth="yes"/>
      <point x="368" y="62" type="line"/>
      <point x="354" y="86" type="line"/>
      <point x="355" y="87" type="line"/>
      <point x="355" y="87"/>
      <point x="354" y="91"/>
      <point x="350" y="101" type="curve" smooth="yes"/>
      <point x="347" y="112" type="line"/>
    </contour>
  </outline>
</glyph>
<glyph name="plus" format="1">
  <advance width="500"/>
  <unicode hex="002B"/>
  <outline>
    <contour>
      <point x="32" y="337" type="curve" smooth="yes"/>
      <point x="31" y="329"/>
      <point x="31" y="324"/>
      <point x="32" y="318" type="curve" smooth="yes"/>
      <point x="33" y="313"/>
      <point x="37" y="310"/>
      <point x="44" y="309" type="curve" smooth="yes"/>
      <point x="52" y="307"/>
      <point x="59" y="308"/>
      <point x="70" y="309" type="curve" smooth="yes"/>
      <point x="82" y="310" type="line"/>
      <point x="95" y="309" type="line" smooth="yes"/>
      <point x="104" y="308"/>
      <point x="111" y="308"/>
      <point x="122" y="309" type="curve" smooth="yes"/>
      <point x="132" y="310" type="line"/>
      <point x="143" y="309" type="line" smooth="yes"/>
      <point x="150" y="308"/>
      <point x="157" y="308"/>
      <point x="168" y="309" type="curve" smooth="yes"/>
      <point x="179" y="310" type="line"/>
      <point x="202" y="307" type="line"/>
      <point x="205" y="307" type="line"/>
      <point x="230" y="304" type="line"/>
      <point x="230" y="262" type="line"/>
      <point x="229" y="257" type="line" smooth="yes"/>
      <point x="227" y="246"/>
      <point x="228" y="238"/>
      <point x="229" y="227" type="curve" smooth="yes"/>
      <point x="230" y="219" type="line"/>
      <point x="229" y="208" type="line" smooth="yes"/>
      <point x="228" y="200"/>
      <point x="228" y="193"/>
      <point x="229" y="182" type="curve" smooth="yes"/>
      <point x="230" y="174" type="line"/>
      <point x="229" y="174" type="line" smooth="yes"/>
      <point x="228" y="174"/>
      <point x="227" y="166"/>
      <point x="227" y="151" type="curve"/>
      <point x="225" y="149"/>
      <point x="230" y="143"/>
      <point x="230" y="129" type="curve" smooth="yes"/>
      <point x="230" y="128" type="line"/>
      <point x="227" y="128" type="line"/>
      <point x="232" y="127" type="line" smooth="yes"/>
      <point x="243" y="125"/>
      <point x="247" y="125"/>
      <point x="248" y="125" type="curve" smooth="yes"/>
      <point x="263" y="127"/>
      <point x="270" y="136"/>
      <point x="270" y="151" type="curve" smooth="yes"/>
      <point x="270" y="171" type="line"/>
      <point x="271" y="196" type="line"/>
      <point x="272" y="197" type="line"/>
      <point x="272" y="197"/>
      <point x="273" y="201"/>
      <point x="271" y="212" type="curve" smooth="yes"/>
      <point x="270" y="219" type="line"/>
      <point x="270" y="265" type="line"/>
      <point x="271" y="287" type="line"/>
      <point x="271" y="308" type="line"/>
      <point x="296" y="310" type="line"/>
      <point x="369" y="310" type="line"/>
      <point x="375" y="309" type="line" smooth="yes"/>
      <point x="386" y="307"/>
      <point x="390" y="307"/>
      <point x="391" y="307" type="curve" smooth="yes"/>
      <point x="403" y="308" type="line"/>
      <point x="402" y="307"/>
      <point x="415" y="307"/>
      <point x="429" y="309" type="curve"/>
      <point x="442" y="307" type="line" smooth="yes"/>
      <point x="451" y="306"/>
      <point x="457" y="307"/>
      <point x="461" y="308" type="curve" smooth="yes"/>
      <point x="465" y="309"/>
      <point x="467" y="316"/>
      <point x="467" y="329" type="curve" smooth="yes"/>
      <point x="467" y="342"/>
      <point x="465" y="348"/>
      <point x="461" y="349" type="curve" smooth="yes"/>
      <point x="457" y="350"/>
      <point x="452" y="350"/>
      <point x="442" y="349" type="curve" smooth="yes"/>
      <point x="443" y="349" type="line"/>
      <point x="418" y="348" type="line"/>
      <point x="412" y="349" type="line" smooth="yes"/>
      <point x="408" y="350"/>
      <point x="403" y="350"/>
      <point x="393" y="349" type="curve"/>
      <point x="393" y="350" type="line"/>
      <point x="378" y="349" type="line"/>
      <point x="369" y="348" type="line"/>
      <point x="370" y="349"/>
      <point x="366" y="348"/>
      <point x="356" y="348" type="curve" smooth="yes"/>
      <point x="344" y="348" type="line"/>
      <point x="272" y="349" type="line"/>
      <point x="270" y="359" type="line"/>
      <point x="271" y="373" type="line"/>
      <point x="271" y="373"/>
      <point x="270" y="378"/>
      <point x="270" y="391" type="curve" smooth="yes"/>
      <point x="270" y="395" type="line"/>
      <point x="271" y="417" type="line"/>
      <point x="270" y="439" type="line"/>
      <point x="271" y="439" type="line"/>
      <point x="271" y="462" type="line"/>
      <point x="272" y="463" type="line"/>
      <point x="272" y="463"/>
      <point x="273" y="467"/>
      <point x="271" y="478" type="curve" smooth="yes"/>
      <point x="270" y="485" type="line"/>
      <point x="271" y="509" type="line"/>
      <point x="270" y="523"/>
      <point x="263" y="530"/>
      <point x="250" y="530" type="curve" smooth="yes"/>
      <point x="237" y="530"/>
      <point x="230" y="530"/>
      <point x="230" y="531" type="curve" smooth="yes"/>
      <point x="229" y="523" type="line" smooth="yes"/>
      <point x="228" y="512"/>
      <point x="228" y="504"/>
      <point x="229" y="493" type="curve" smooth="yes"/>
      <point x="230" y="485" type="line"/>
      <point x="230" y="391" type="line"/>
      <point x="227" y="371" type="line"/>
      <point x="225" y="349" type="line"/>
      <point x="203" y="349" type="line"/>
      <point x="203" y="349"/>
      <point x="198" y="348"/>
      <point x="185" y="348" type="curve" smooth="yes"/>
      <point x="181" y="348" type="line"/>
      <point x="175" y="349" type="line" smooth="yes"/>
      <point x="171" y="350"/>
      <point x="166" y="350"/>
      <point x="156" y="349" type="curve"/>
      <point x="157" y="350"/>
      <point x="153" y="350"/>
      <point x="142" y="349" type="curve" smooth="yes"/>
      <point x="132" y="348" type="line"/>
      <point x="108" y="349" type="line"/>
      <point x="82" y="348" type="line"/>
      <point x="59" y="349" type="line"/>
      <point x="56" y="349" type="line" smooth="yes"/>
      <point x="41" y="349"/>
      <point x="33" y="344"/>
    </contour>
  </outline>
</glyph>
<glyph name="equal" format="1">
  <advance width="500"/>
  <unicode hex="003D"/>
  <outline>
    <contour>
      <point x="33" y="399" type="curve" smooth="yes"/>
      <point x="33" y="385"/>
      <point x="41" y="378"/>
      <point x="57" y="378" type="curve" smooth="yes"/>
      <point x="66" y="379" type="line"/>
      <point x="93" y="380" type="line"/>
      <point x="93" y="378"/>
      <point x="97" y="377"/>
      <point x="105" y="378" type="curve" smooth="yes"/>
      <point x="114" y="379" type="line"/>
      <point x="113" y="378"/>
      <point x="126" y="378"/>
      <point x="140" y="380" type="curve"/>
      <point x="146" y="379" type="line" smooth="yes"/>
      <point x="150" y="378"/>
      <point x="155" y="379"/>
      <point x="166" y="380" type="curve" smooth="yes"/>
      <point x="178" y="381" type="line"/>
      <point x="226" y="381" type="line"/>
      <point x="225" y="380" type="line" smooth="yes"/>
      <point x="224" y="379"/>
      <point x="237" y="378"/>
      <point x="251" y="378" type="curve"/>
      <point x="274" y="381" type="line"/>
      <point x="285" y="380" type="line" smooth="yes"/>
      <point x="292" y="379"/>
      <point x="299" y="379"/>
      <point x="310" y="380" type="curve" smooth="yes"/>
      <point x="323" y="381" type="line"/>
      <point x="368" y="381" type="line"/>
      <point x="380" y="380" type="line" smooth="yes"/>
      <point x="391" y="379"/>
      <point x="397" y="378"/>
      <point x="404" y="379" type="curve" smooth="yes"/>
      <point x="431" y="380" type="line"/>
      <point x="431" y="378"/>
      <point x="435" y="377"/>
      <point x="443" y="378" type="curve" smooth="yes"/>
      <point x="467" y="381" type="line"/>
      <point x="468" y="381" type="line"/>
      <point x="468" y="401" type="line"/>
      <point x="469" y="401"/>
      <point x="469" y="403"/>
      <point x="468" y="410" type="curve" smooth="yes"/>
      <point x="467" y="416"/>
      <point x="457" y="419"/>
      <point x="458" y="419" type="curve" smooth="yes"/>
      <point x="444" y="420" type="line"/>
      <point x="419" y="419" type="line"/>
      <point x="371" y="419" type="line"/>
      <point x="371" y="420" type="line"/>
      <point x="357" y="420" type="line"/>
      <point x="347" y="420" type="line"/>
      <point x="332" y="420" type="line"/>
      <point x="322" y="419" type="line"/>
      <point x="274" y="419" type="line"/>
      <point x="254" y="420" type="line" smooth="yes"/>
      <point x="243" y="421"/>
      <point x="236" y="420"/>
      <point x="226" y="419" type="curve"/>
      <point x="227" y="420"/>
      <point x="223" y="420"/>
      <point x="212" y="420" type="curve" smooth="yes"/>
      <point x="203" y="420" type="line"/>
      <point x="178" y="419" type="line"/>
      <point x="155" y="420" type="line"/>
      <point x="130" y="419" type="line"/>
      <point x="105" y="420" type="line"/>
      <point x="81" y="419" type="line"/>
      <point x="82" y="420" type="line"/>
      <point x="58" y="420" type="line"/>
      <point x="50" y="421"/>
      <point x="45" y="421"/>
      <point x="40" y="420" type="curve" smooth="yes"/>
      <point x="35" y="419"/>
      <point x="33" y="412"/>
    </contour>
    <contour>
      <point x="45" y="236" type="curve" smooth="yes"/>
      <point x="57" y="236" type="line"/>
      <point x="81" y="239" type="line"/>
      <point x="130" y="239" type="line"/>
      <point x="136" y="238" type="line" smooth="yes"/>
      <point x="147" y="236"/>
      <point x="155" y="237"/>
      <point x="166" y="238" type="curve" smooth="yes"/>
      <point x="178" y="239" type="line"/>
      <point x="189" y="238" type="line" smooth="yes"/>
      <point x="196" y="237"/>
      <point x="202" y="236"/>
      <point x="211" y="237" type="curve"/>
      <point x="210" y="236" type="line" smooth="yes"/>
      <point x="209" y="235"/>
      <point x="224" y="236"/>
      <point x="238" y="238" type="curve"/>
      <point x="237" y="237"/>
      <point x="243" y="236"/>
      <point x="250" y="236" type="curve"/>
      <point x="249" y="235"/>
      <point x="254" y="235"/>
      <point x="259" y="237" type="curve"/>
      <point x="258" y="236"/>
      <point x="271" y="236"/>
      <point x="285" y="238" type="curve"/>
      <point x="292" y="237" type="line" smooth="yes"/>
      <point x="296" y="236"/>
      <point x="298" y="236"/>
      <point x="299" y="236" type="curve" smooth="yes"/>
      <point x="322" y="239" type="line"/>
      <point x="371" y="239" type="line"/>
      <point x="380" y="238" type="line" smooth="yes"/>
      <point x="391" y="237"/>
      <point x="399" y="237"/>
      <point x="410" y="238" type="curve" smooth="yes"/>
      <point x="419" y="239" type="line"/>
      <point x="443" y="236" type="line"/>
      <point x="442" y="235"/>
      <point x="448" y="235"/>
      <point x="454" y="236" type="curve" smooth="yes"/>
      <point x="462" y="238"/>
      <point x="467" y="238"/>
      <point x="467" y="236" type="curve" smooth="yes"/>
      <point x="468" y="258" type="line"/>
      <point x="469" y="258"/>
      <point x="469" y="261"/>
      <point x="468" y="268" type="curve" smooth="yes"/>
      <point x="467" y="274"/>
      <point x="456" y="277"/>
      <point x="462" y="277" type="curve" smooth="yes"/>
      <point x="443" y="278" type="line"/>
      <point x="419" y="277" type="line"/>
      <point x="395" y="278" type="line"/>
      <point x="371" y="277" type="line"/>
      <point x="322" y="277" type="line"/>
      <point x="323" y="278"/>
      <point x="319" y="278"/>
      <point x="309" y="278" type="curve" smooth="yes"/>
      <point x="299" y="278" type="line"/>
      <point x="274" y="277" type="line"/>
      <point x="275" y="278" type="line"/>
      <point x="251" y="278" type="line" smooth="yes"/>
      <point x="242" y="279"/>
      <point x="236" y="278"/>
      <point x="226" y="277" type="curve"/>
      <point x="178" y="277" type="line"/>
      <point x="178" y="278" type="line"/>
      <point x="164" y="278" type="line"/>
      <point x="155" y="278" type="line" smooth="yes"/>
      <point x="145" y="279"/>
      <point x="139" y="278"/>
      <point x="129" y="277" type="curve"/>
      <point x="81" y="277" type="line"/>
      <point x="61" y="278" type="line" smooth="yes"/>
      <point x="50" y="279"/>
      <point x="44" y="279"/>
      <point x="40" y="278" type="curve" smooth="yes"/>
      <point x="35" y="277"/>
      <point x="33" y="270"/>
      <point x="33" y="257" type="curve" smooth="yes"/>
      <point x="33" y="243"/>
      <point x="37" y="236"/>
    </contour>
  </outline>
</glyph>
<glyph name="at" format="1">
  <advance width="788"/>
  <unicode hex="0040"/>
  <outline>
    <contour>
      <point x="87" y="539" type="line"/>
      <point x="81" y="535" type="line"/>
      <point x="81" y="527" type="line"/>
      <point x="80" y="527"/>
      <point x="78" y="525"/>
      <point x="75" y="523" type="curve"/>
      <point x="72" y="518" type="line" smooth="yes"/>
      <point x="61" y="502"/>
      <point x="54" y="481"/>
      <point x="47" y="460" type="curve"/>
      <point x="44" y="446"/>
      <point x="39" y="434"/>
      <point x="36" y="422" type="curve" smooth="yes"/>
      <point x="32" y="395"/>
      <point x="31" y="367"/>
      <point x="31" y="339" type="curve" smooth="yes"/>
      <point x="31" y="329"/>
      <point x="30" y="321"/>
      <point x="30" y="312" type="curve" smooth="yes"/>
      <point x="31" y="295"/>
      <point x="39" y="281"/>
      <point x="38" y="265" type="curve"/>
      <point x="45" y="250"/>
      <point x="49" y="236"/>
      <point x="53" y="217" type="curve"/>
      <point x="75" y="179"/>
      <point x="99" y="140"/>
      <point x="131" y="109" type="curve"/>
      <point x="139" y="98"/>
      <point x="154" y="91"/>
      <point x="162" y="77" type="curve"/>
      <point x="176" y="70"/>
      <point x="187" y="62"/>
      <point x="201" y="54" type="curve" smooth="yes"/>
      <point x="215" y="47"/>
      <point x="230" y="34"/>
      <point x="247" y="30" type="curve"/>
      <point x="254" y="25" type="line"/>
      <point x="261" y="24"/>
      <point x="267" y="23"/>
      <point x="274" y="21" type="curve"/>
      <point x="275" y="18" type="line"/>
      <point x="277" y="17"/>
      <point x="291" y="14"/>
      <point x="293" y="14" type="curve"/>
      <point x="300" y="9"/>
      <point x="320" y="9"/>
      <point x="329" y="6" type="curve" smooth="yes"/>
      <point x="350" y="-1"/>
      <point x="367" y="-1"/>
      <point x="377" y="-7" type="curve"/>
      <point x="396" y="-2"/>
      <point x="425" y="1"/>
      <point x="451" y="-3" type="curve" smooth="yes"/>
      <point x="509" y="-13"/>
      <point x="580" y="30"/>
      <point x="545" y="49" type="curve"/>
      <point x="488" y="44"/>
      <point x="471" y="39"/>
      <point x="446" y="38" type="curve" smooth="yes"/>
      <point x="422" y="37"/>
      <point x="374" y="44"/>
      <point x="356" y="44" type="curve" smooth="yes"/>
      <point x="348" y="44"/>
      <point x="310" y="64"/>
      <point x="303" y="64" type="curve"/>
      <point x="279" y="72"/>
      <point x="260" y="86"/>
      <point x="232" y="93" type="curve"/>
      <point x="224" y="100"/>
      <point x="215" y="109"/>
      <point x="202" y="112" type="curve"/>
      <point x="197" y="122"/>
      <point x="186" y="129"/>
      <point x="178" y="137" type="curve" smooth="yes"/>
      <point x="136" y="175" type="line"/>
      <point x="134" y="184"/>
      <point x="128" y="187"/>
      <point x="123" y="194" type="curve"/>
      <point x="119" y="212"/>
      <point x="110" y="224"/>
      <point x="103" y="240" type="curve"/>
      <point x="99" y="254"/>
      <point x="93" y="272"/>
      <point x="85" y="287" type="curve"/>
      <point x="81" y="327" type="line"/>
      <point x="81" y="338"/>
      <point x="80" y="350"/>
      <point x="80" y="361" type="curve" smooth="yes"/>
      <point x="80" y="373"/>
      <point x="84" y="383"/>
      <point x="85" y="393" type="curve" smooth="yes"/>
      <point x="86" y="405"/>
      <point x="89" y="415"/>
      <point x="91" y="425" type="curve"/>
      <point x="99" y="433"/>
      <point x="100" y="448"/>
      <point x="103" y="459" type="curve"/>
      <point x="112" y="471"/>
      <point x="111" y="481"/>
      <point x="118" y="495" type="curve" smooth="yes"/>
      <point x="124" y="507"/>
      <point x="138" y="515"/>
      <point x="143" y="531" type="curve"/>
      <point x="157" y="542"/>
      <point x="168" y="558"/>
      <point x="179" y="573" type="curve"/>
      <point x="185" y="573"/>
      <point x="189" y="579"/>
      <point x="193" y="583" type="curve" smooth="yes"/>
      <point x="198" y="587"/>
      <point x="209" y="590"/>
      <point x="215" y="596" type="curve"/>
      <point x="230" y="601"/>
      <point x="240" y="614"/>
      <point x="254" y="620" type="curve" smooth="yes"/>
      <point x="265" y="626"/>
      <point x="283" y="628"/>
      <point x="300" y="632" type="curve" smooth="yes"/>
      <point x="324" y="640" type="line"/>
      <point x="330" y="643"/>
      <point x="339" y="646"/>
      <point x="346" y="646" type="curve"/>
      <point x="358" y="648"/>
      <point x="373" y="646"/>
      <point x="385" y="648" type="curve" smooth="yes"/>
      <point x="399" y="650"/>
      <point x="413" y="651"/>
      <point x="428" y="650" type="curve" smooth="yes"/>
      <point x="439" y="650"/>
      <point x="451" y="645"/>
      <point x="464" y="645" type="curve"/>
      <point x="476" y="640"/>
      <point x="487" y="638"/>
      <point x="499" y="636" type="curve"/>
      <point x="519" y="628"/>
      <point x="535" y="616"/>
      <point x="557" y="610" type="curve"/>
      <point x="564" y="602"/>
      <point x="575" y="599"/>
      <point x="583" y="590" type="curve"/>
      <point x="613" y="573"/>
      <point x="632" y="545"/>
      <point x="657" y="524" type="curve"/>
      <point x="663" y="512"/>
      <point x="669" y="498"/>
      <point x="681" y="489" type="curve"/>
      <point x="684" y="476"/>
      <point x="692" y="465"/>
      <point x="700" y="454" type="curve"/>
      <point x="698" y="452"/>
      <point x="700" y="450"/>
      <point x="701" y="449" type="curve"/>
      <point x="702" y="425"/>
      <point x="711" y="410"/>
      <point x="714" y="387" type="curve" smooth="yes"/>
      <point x="714" y="383" type="line"/>
      <point x="716" y="383" type="line"/>
      <point x="714" y="375"/>
      <point x="716" y="366"/>
      <point x="716" y="358" type="curve" smooth="yes"/>
      <point x="715" y="349"/>
      <point x="714" y="335"/>
      <point x="709" y="317" type="curve"/>
      <point x="702" y="279"/>
      <point x="695" y="266"/>
      <point x="687" y="253" type="curve" smooth="yes"/>
      <point x="656" y="207" type="line"/>
      <point x="652" y="199"/>
      <point x="623" y="188"/>
      <point x="611" y="184" type="curve" smooth="yes"/>
      <point x="593" y="178"/>
      <point x="537" y="192"/>
      <point x="548" y="221" type="curve"/>
      <point x="545" y="235" type="line" smooth="yes"/>
      <point x="541" y="251"/>
      <point x="547" y="235"/>
      <point x="544" y="253" type="curve" smooth="yes"/>
      <point x="541" y="269"/>
      <point x="544" y="284"/>
      <point x="544" y="300" type="curve" smooth="yes"/>
      <point x="544" y="314"/>
      <point x="537" y="329"/>
      <point x="541" y="344" type="curve"/>
      <point x="539" y="359" type="line"/>
      <point x="540" y="380"/>
      <point x="544" y="406"/>
      <point x="539" y="426" type="curve"/>
      <point x="544" y="452"/>
      <point x="551" y="491"/>
      <point x="540" y="511" type="curve"/>
      <point x="523" y="513"/>
      <point x="512" y="523"/>
      <point x="495" y="513" type="curve"/>
      <point x="493" y="498"/>
      <point x="502" y="466"/>
      <point x="489" y="469" type="curve"/>
      <point x="478" y="482"/>
      <point x="433" y="505"/>
      <point x="415" y="510" type="curve" smooth="yes"/>
      <point x="402" y="513" type="line"/>
      <point x="400" y="513"/>
      <point x="398" y="515"/>
      <point x="396" y="516" type="curve"/>
      <point x="382" y="519"/>
      <point x="366" y="515"/>
      <point x="352" y="516" type="curve" smooth="yes"/>
      <point x="348" y="516"/>
      <point x="343" y="518"/>
      <point x="340" y="518" type="curve" smooth="yes"/>
      <point x="332" y="518"/>
      <point x="323" y="513"/>
      <point x="318" y="512" type="curve" smooth="yes"/>
      <point x="309" y="511" type="line"/>
      <point x="298" y="508"/>
      <point x="291" y="502"/>
      <point x="281" y="501" type="curve"/>
      <point x="257" y="479" type="line"/>
      <point x="242" y="463" type="line" smooth="yes"/>
      <point x="235" y="457"/>
      <point x="234" y="450"/>
      <point x="227" y="445" type="curve"/>
      <point x="226" y="437"/>
      <point x="224" y="430"/>
      <point x="218" y="426" type="curve"/>
      <point x="218" y="417"/>
      <point x="213" y="412"/>
      <point x="211" y="405" type="curve" smooth="yes"/>
      <point x="209" y="392"/>
      <point x="211" y="377"/>
      <point x="204" y="368" type="curve"/>
      <point x="209" y="356"/>
      <point x="202" y="344"/>
      <point x="202" y="334" type="curve"/>
      <point x="206" y="315"/>
      <point x="204" y="292"/>
      <point x="209" y="275" type="curve" smooth="yes"/>
      <point x="213" y="265"/>
      <point x="218" y="259"/>
      <point x="218" y="245" type="curve"/>
      <point x="226" y="241"/>
      <point x="231" y="232"/>
      <point x="234" y="221" type="curve"/>
      <point x="241" y="219"/>
      <point x="242" y="213"/>
      <point x="245" y="205" type="curve"/>
      <point x="250" y="203"/>
      <point x="258" y="199"/>
      <point x="258" y="194" type="curve"/>
      <point x="265" y="191"/>
      <point x="270" y="188"/>
      <point x="275" y="182" type="curve"/>
      <point x="283" y="181"/>
      <point x="287" y="177"/>
      <point x="292" y="175" type="curve" smooth="yes"/>
      <point x="300" y="171"/>
      <point x="308" y="168"/>
      <point x="315" y="166" type="curve"/>
      <point x="334" y="166"/>
      <point x="352" y="161"/>
      <point x="374" y="162" type="curve"/>
      <point x="384" y="165" type="line"/>
      <point x="400" y="166"/>
      <point x="411" y="168"/>
      <point x="426" y="175" type="curve" smooth="yes"/>
      <point x="431" y="177"/>
      <point x="437" y="181"/>
      <point x="445" y="182" type="curve"/>
      <point x="449" y="189"/>
      <point x="477" y="195"/>
      <point x="480" y="200" type="curve"/>
      <point x="488" y="205"/>
      <point x="496" y="204"/>
      <point x="500" y="215" type="curve"/>
      <point x="502" y="217"/>
      <point x="509" y="181"/>
      <point x="519" y="174" type="curve" smooth="yes"/>
      <point x="539" y="158"/>
      <point x="537" y="146"/>
      <point x="607" y="150" type="curve" smooth="yes"/>
      <point x="650" y="152"/>
      <point x="700" y="202"/>
      <point x="721" y="238" type="curve" smooth="yes"/>
      <point x="739" y="266"/>
      <point x="740" y="289"/>
      <point x="749" y="305" type="curve" smooth="yes"/>
      <point x="755" y="316"/>
      <point x="750" y="323"/>
      <point x="757" y="359" type="curve" smooth="yes"/>
      <point x="757" y="360"/>
      <point x="759" y="385"/>
      <point x="757" y="385" type="curve"/>
      <point x="757" y="406"/>
      <point x="750" y="422"/>
      <point x="750" y="445" type="curve"/>
      <point x="742" y="456"/>
      <point x="742" y="471"/>
      <point x="734" y="479" type="curve"/>
      <point x="734" y="493"/>
      <point x="722" y="499"/>
      <point x="721" y="514" type="curve"/>
      <point x="710" y="528"/>
      <point x="701" y="546"/>
      <point x="689" y="559" type="curve"/>
      <point x="679" y="575"/>
      <point x="665" y="588"/>
      <point x="655" y="603" type="curve"/>
      <point x="642" y="609"/>
      <point x="633" y="617"/>
      <point x="624" y="624" type="curve"/>
      <point x="613" y="629"/>
      <point x="603" y="637"/>
      <point x="596" y="645" type="curve"/>
      <point x="568" y="653"/>
      <point x="555" y="675"/>
      <point x="519" y="675" type="curve"/>
      <point x="511" y="682"/>
      <point x="504" y="686"/>
      <point x="494" y="687" type="curve"/>
      <point x="488" y="690"/>
      <point x="477" y="693"/>
      <point x="469" y="694" type="curve" smooth="yes"/>
      <point x="461" y="694"/>
      <point x="453" y="697"/>
      <point x="445" y="700" type="curve"/>
      <point x="440" y="700"/>
      <point x="434" y="697"/>
      <point x="429" y="700" type="curve"/>
      <point x="426" y="700"/>
      <point x="423" y="703"/>
      <point x="418" y="703" type="curve" smooth="yes"/>
      <point x="395" y="703"/>
      <point x="377" y="701"/>
      <point x="359" y="701" type="curve" smooth="yes"/>
      <point x="346" y="701"/>
      <point x="334" y="700"/>
      <point x="326" y="695" type="curve"/>
      <point x="320" y="694"/>
      <point x="317" y="693"/>
      <point x="312" y="693" type="curve"/>
      <point x="308" y="690"/>
      <point x="302" y="691"/>
      <point x="297" y="690" type="curve"/>
      <point x="293" y="688"/>
      <point x="289" y="687"/>
      <point x="283" y="686" type="curve"/>
      <point x="279" y="684"/>
      <point x="274" y="684"/>
      <point x="268" y="682" type="curve"/>
      <point x="254" y="674"/>
      <point x="236" y="670"/>
      <point x="226" y="660" type="curve"/>
      <point x="210" y="654"/>
      <point x="202" y="642"/>
      <point x="181" y="639" type="curve"/>
      <point x="165" y="624"/>
      <point x="152" y="610"/>
      <point x="132" y="601" type="curve"/>
      <point x="126" y="593"/>
      <point x="122" y="586"/>
      <point x="116" y="577" type="curve" smooth="yes"/>
      <point x="110" y="570"/>
      <point x="101" y="564"/>
      <point x="96" y="558" type="curve"/>
    </contour>
    <contour>
      <point x="271" y="401" type="line"/>
      <point x="273" y="410"/>
      <point x="280" y="415"/>
      <point x="281" y="427" type="curve"/>
      <point x="296" y="432"/>
      <point x="301" y="443"/>
      <point x="310" y="452" type="curve"/>
      <point x="324" y="458"/>
      <point x="334" y="463"/>
      <point x="346" y="467" type="curve"/>
      <point x="358" y="467"/>
      <point x="371" y="472"/>
      <point x="383" y="471" type="curve" smooth="yes"/>
      <point x="398" y="471"/>
      <point x="406" y="466"/>
      <point x="421" y="466" type="curve"/>
      <point x="427" y="460"/>
      <point x="434" y="459"/>
      <point x="442" y="456" type="curve"/>
      <point x="455" y="447"/>
      <point x="462" y="439"/>
      <point x="475" y="430" type="curve"/>
      <point x="477" y="424"/>
      <point x="479" y="422"/>
      <point x="485" y="415" type="curve" smooth="yes"/>
      <point x="487" y="413"/>
      <point x="488" y="407"/>
      <point x="493" y="403" type="curve"/>
      <point x="495" y="392"/>
      <point x="499" y="381"/>
      <point x="499" y="365" type="curve"/>
      <point x="503" y="366"/>
      <point x="503" y="365"/>
      <point x="503" y="364" type="curve" smooth="yes"/>
      <point x="503" y="316"/>
      <point x="500" y="270"/>
      <point x="471" y="252" type="curve"/>
      <point x="469" y="248"/>
      <point x="466" y="242"/>
      <point x="461" y="236" type="curve"/>
      <point x="455" y="233"/>
      <point x="448" y="231"/>
      <point x="443" y="224" type="curve"/>
      <point x="439" y="224"/>
      <point x="432" y="223"/>
      <point x="430" y="220" type="curve"/>
      <point x="424" y="218"/>
      <point x="418" y="221"/>
      <point x="414" y="217" type="curve"/>
      <point x="406" y="218"/>
      <point x="406" y="213"/>
      <point x="399" y="213" type="curve"/>
      <point x="394" y="212"/>
      <point x="390" y="209"/>
      <point x="382" y="209" type="curve"/>
      <point x="373" y="207"/>
      <point x="368" y="214"/>
      <point x="357" y="214" type="curve" smooth="yes"/>
      <point x="349" y="214"/>
      <point x="344" y="218"/>
      <point x="334" y="217" type="curve"/>
      <point x="322" y="224"/>
      <point x="310" y="230"/>
      <point x="301" y="237" type="curve"/>
      <point x="296" y="248"/>
      <point x="283" y="252"/>
      <point x="275" y="260" type="curve"/>
      <point x="273" y="269"/>
      <point x="267" y="275"/>
      <point x="268" y="289" type="curve"/>
      <point x="264" y="297"/>
      <point x="263" y="307"/>
      <point x="258" y="312" type="curve"/>
      <point x="259" y="321"/>
      <point x="258" y="328"/>
      <point x="255" y="335" type="curve"/>
      <point x="258" y="349"/>
      <point x="260" y="359"/>
      <point x="260" y="375" type="curve"/>
    </contour>
  </outline>
</glyph>
<glyph name="F" format="1">
  <advance width="398"/>
  <unicode hex="0046"/>
  <outline>
    <contour>
      <point x="65" y="42" type="line" smooth="yes"/>
      <point x="65" y="33"/>
      <point x="59" y="30"/>
      <point x="60" y="19" type="curve"/>
      <point x="62" y="13"/>
      <point x="67" y="11"/>
      <point x="69" y="6" type="curve"/>
      <point x="75" y="4"/>
      <point x="75" y="-3"/>
      <point x="84" y="-2" type="curve" smooth="yes"/>
      <point x="102" y="-2"/>
      <point x="110" y="9"/>
      <point x="117" y="20" type="curve"/>
      <point x="119" y="33"/>
      <point x="116" y="42"/>
      <point x="114" y="54" type="curve"/>
      <point x="115" y="72"/>
      <point x="115" y="96"/>
      <point x="118" y="117" type="curve"/>
      <point x="112" y="127"/>
      <point x="119" y="140"/>
      <point x="115" y="153" type="curve"/>
      <point x="117" y="159"/>
      <point x="117" y="166"/>
      <point x="118" y="172" type="curve"/>
      <point x="111" y="218"/>
      <point x="115" y="269"/>
      <point x="115" y="318" type="curve"/>
      <point x="113" y="327"/>
      <point x="110" y="338"/>
      <point x="114" y="348" type="curve"/>
      <point x="120" y="351"/>
      <point x="130" y="350"/>
      <point x="136" y="353" type="curve"/>
      <point x="156" y="355"/>
      <point x="169" y="348"/>
      <point x="188" y="351" type="curve"/>
      <point x="211" y="348"/>
      <point x="234" y="343"/>
      <point x="262" y="344" type="curve"/>
      <point x="271" y="342"/>
      <point x="273" y="348"/>
      <point x="282" y="347" type="curve"/>
      <point x="295" y="343"/>
      <point x="304" y="344"/>
      <point x="317" y="344" type="curve"/>
      <point x="328" y="348"/>
      <point x="341" y="351"/>
      <point x="347" y="361" type="curve"/>
      <point x="352" y="374"/>
      <point x="351" y="397"/>
      <point x="347" y="407" type="curve" smooth="yes"/>
      <point x="345" y="412"/>
      <point x="341" y="413"/>
      <point x="341" y="418" type="curve"/>
      <point x="332" y="423"/>
      <point x="317" y="421"/>
      <point x="306" y="424" type="curve"/>
      <point x="295" y="419"/>
      <point x="283" y="414"/>
      <point x="270" y="413" type="curve" smooth="yes"/>
      <point x="258" y="412"/>
      <point x="246" y="417"/>
      <point x="237" y="418" type="curve" smooth="yes"/>
      <point x="234" y="418"/>
      <point x="230" y="416"/>
      <point x="227" y="416" type="curve" smooth="yes"/>
      <point x="223" y="416"/>
      <point x="221" y="418"/>
      <point x="218" y="418" type="curve" smooth="yes"/>
      <point x="207" y="417"/>
      <point x="200" y="412"/>
      <point x="189" y="411" type="curve"/>
      <point x="179" y="414"/>
      <point x="165" y="415"/>
      <point x="151" y="415" type="curve" smooth="yes"/>
      <point x="138" y="414"/>
      <point x="123" y="409"/>
      <point x="114" y="416" type="curve"/>
      <point x="112" y="438"/>
      <point x="112" y="461"/>
      <point x="112" y="485" type="curve" smooth="yes"/>
      <point x="112" y="510"/>
      <point x="115" y="535"/>
      <point x="114" y="560" type="curve" smooth="yes"/>
      <point x="113" y="572"/>
      <point x="112" y="584"/>
      <point x="112" y="597" type="curve" smooth="yes"/>
      <point x="112" y="609"/>
      <point x="109" y="624"/>
      <point x="117" y="634" type="curve"/>
      <point x="136" y="635"/>
      <point x="162" y="632"/>
      <point x="181" y="637" type="curve"/>
      <point x="186" y="634"/>
      <point x="193" y="634"/>
      <point x="199" y="632" type="curve"/>
      <point x="213" y="635"/>
      <point x="233" y="632"/>
      <point x="246" y="629" type="curve"/>
      <point x="260" y="629"/>
      <point x="279" y="632"/>
      <point x="292" y="626" type="curve"/>
      <point x="301" y="633"/>
      <point x="322" y="629"/>
      <point x="334" y="634" type="curve"/>
      <point x="341" y="641"/>
      <point x="353" y="642"/>
      <point x="353" y="656" type="curve" smooth="yes"/>
      <point x="351" y="672"/>
      <point x="349" y="688"/>
      <point x="342" y="700" type="curve"/>
      <point x="336" y="701"/>
      <point x="332" y="704"/>
      <point x="325" y="705" type="curve" smooth="yes"/>
      <point x="318" y="705"/>
      <point x="312" y="703"/>
      <point x="304" y="703" type="curve" smooth="yes"/>
      <point x="275" y="703"/>
      <point x="243" y="706"/>
      <point x="216" y="701" type="curve"/>
      <point x="210" y="701"/>
      <point x="207" y="705"/>
      <point x="200" y="705" type="curve"/>
      <point x="163" y="700"/>
      <point x="122" y="706"/>
      <point x="85" y="706" type="curve"/>
      <point x="79" y="702"/>
      <point x="70" y="701"/>
      <point x="65" y="695" type="curve"/>
      <point x="55" y="677"/>
      <point x="67" y="647"/>
      <point x="60" y="627" type="curve"/>
      <point x="64" y="616"/>
      <point x="62" y="602"/>
      <point x="62" y="593" type="curve"/>
      <point x="61" y="589"/>
      <point x="63" y="587"/>
      <point x="63" y="583" type="curve" smooth="yes"/>
      <point x="63" y="577"/>
      <point x="62" y="570"/>
      <point x="62" y="563" type="curve" smooth="yes"/>
      <point x="60" y="517"/>
      <point x="64" y="474"/>
      <point x="65" y="432" type="curve" smooth="yes"/>
      <point x="65" y="422"/>
      <point x="63" y="412"/>
      <point x="63" y="402" type="curve" smooth="yes"/>
      <point x="63" y="394"/>
      <point x="65" y="387"/>
      <point x="65" y="380" type="curve" smooth="yes"/>
      <point x="65" y="357"/>
      <point x="61" y="333"/>
      <point x="62" y="310" type="curve" smooth="yes"/>
      <point x="62" y="304"/>
      <point x="63" y="298"/>
      <point x="63" y="292" type="curve" smooth="yes"/>
      <point x="63" y="282"/>
      <point x="61" y="274"/>
      <point x="62" y="265" type="curve" smooth="yes"/>
      <point x="62" y="257"/>
      <point x="65" y="248"/>
      <point x="65" y="240" type="curve" smooth="yes"/>
      <point x="65" y="234"/>
      <point x="63" y="228"/>
      <point x="63" y="222" type="curve" smooth="yes"/>
      <point x="63" y="208"/>
      <point x="65" y="194"/>
      <point x="65" y="180" type="curve" smooth="yes"/>
    </contour>
    <contour>
      <point x="209" y="0" type="move" name="bottom"/>
    </contour>
    <contour>
      <point x="209" y="695" type="move" name="top"/>
    </contour>
  </outline>
</glyph>
<glyph name="I" format="1">
  <advance width="180"/>
  <unicode hex="0049"/>
  <outline>
    <contour>
      <point x="66" y="634" type="line" smooth="yes"/>
      <point x="65" y="622"/>
      <point x="68" y="610"/>
      <point x="67" y="602" type="curve" smooth="yes"/>
      <point x="67" y="599"/>
      <point x="66" y="595"/>
      <point x="66" y="593" type="curve" smooth="yes"/>
      <point x="66" y="590"/>
      <point x="69" y="587"/>
      <point x="69" y="585" type="curve" smooth="yes"/>
      <point x="69" y="582"/>
      <point x="67" y="579"/>
      <point x="67" y="575" type="curve" smooth="yes"/>
      <point x="68" y="561"/>
      <point x="70" y="547"/>
      <point x="69" y="533" type="curve" smooth="yes"/>
      <point x="68" y="526"/>
      <point x="66" y="519"/>
      <point x="66" y="512" type="curve" smooth="yes"/>
      <point x="65" y="502"/>
      <point x="69" y="491"/>
      <point x="66" y="481" type="curve"/>
      <point x="67" y="472"/>
      <point x="70" y="463"/>
      <point x="70" y="454" type="curve" smooth="yes"/>
      <point x="72" y="437"/>
      <point x="68" y="425"/>
      <point x="67" y="412" type="curve" smooth="yes"/>
      <point x="66" y="398"/>
      <point x="68" y="384"/>
      <point x="69" y="369" type="curve" smooth="yes"/>
      <point x="69" y="354"/>
      <point x="67" y="340"/>
      <point x="67" y="325" type="curve" smooth="yes"/>
      <point x="67" y="316"/>
      <point x="69" y="306"/>
      <point x="69" y="296" type="curve" smooth="yes"/>
      <point x="69" y="289"/>
      <point x="67" y="281"/>
      <point x="67" y="273" type="curve" smooth="yes"/>
      <point x="67" y="258"/>
      <point x="70" y="242"/>
      <point x="70" y="227" type="curve" smooth="yes"/>
      <point x="71" y="210"/>
      <point x="69" y="194"/>
      <point x="69" y="178" type="curve" smooth="yes"/>
      <point x="69" y="131" type="line" smooth="yes"/>
      <point x="69" y="116"/>
      <point x="65" y="102"/>
      <point x="70" y="88" type="curve"/>
      <point x="66" y="79"/>
      <point x="67" y="65"/>
      <point x="69" y="54" type="curve"/>
      <point x="68" y="44"/>
      <point x="63" y="37"/>
      <point x="66" y="28" type="curve" smooth="yes"/>
      <point x="67" y="23"/>
      <point x="69" y="15"/>
      <point x="72" y="10" type="curve"/>
      <point x="86" y="6"/>
      <point x="105" y="5"/>
      <point x="111" y="14" type="curve"/>
      <point x="115" y="36"/>
      <point x="111" y="69"/>
      <point x="111" y="92" type="curve" smooth="yes"/>
      <point x="112" y="102"/>
      <point x="115" y="111"/>
      <point x="115" y="121" type="curve" smooth="yes"/>
      <point x="114" y="134"/>
      <point x="110" y="146"/>
      <point x="110" y="158" type="curve" smooth="yes"/>
      <point x="109" y="189"/>
      <point x="116" y="219"/>
      <point x="110" y="249" type="curve"/>
      <point x="116" y="261"/>
      <point x="111" y="274"/>
      <point x="111" y="287" type="curve"/>
      <point x="112" y="293"/>
      <point x="113" y="301"/>
      <point x="113" y="307" type="curve" smooth="yes"/>
      <point x="114" y="346"/>
      <point x="110" y="385"/>
      <point x="110" y="424" type="curve" smooth="yes"/>
      <point x="110" y="463"/>
      <point x="111" y="506"/>
      <point x="110" y="542" type="curve" smooth="yes"/>
      <point x="109" y="570"/>
      <point x="111" y="597"/>
      <point x="107" y="620" type="curve"/>
      <point x="110" y="641"/>
      <point x="116" y="677"/>
      <point x="102" y="691" type="curve"/>
      <point x="93" y="693"/>
      <point x="79" y="693"/>
      <point x="72" y="689" type="curve"/>
      <point x="66" y="678"/>
      <point x="66" y="665"/>
      <point x="66" y="653" type="curve" smooth="yes"/>
    </contour>
    <contour>
      <point x="96" y="0" type="move" name="bottom"/>
    </contour>
    <contour>
      <point x="81" y="12" type="move" name="ogonek"/>
    </contour>
    <contour>
      <point x="96" y="695" type="move" name="top"/>
    </contour>
    <contour>
      <point x="13" y="695" type="move" name="topleft"/>
    </contour>
  </outline>
</glyph>
<glyph name="K" format="1">
  <advance width="547"/>
  <unicode hex="004B"/>
  <outline>
    <contour>
      <point x="73" y="468" type="line" smooth="yes"/>
      <point x="72" y="428"/>
      <point x="67" y="390"/>
      <point x="73" y="353" type="curve"/>
      <point x="69" y="339"/>
      <point x="70" y="320"/>
      <point x="73" y="306" type="curve"/>
      <point x="67" y="277"/>
      <point x="74" y="244"/>
      <point x="71" y="211" type="curve" smooth="yes"/>
      <point x="71" y="206"/>
      <point x="69" y="201"/>
      <point x="68" y="196" type="curve" smooth="yes"/>
      <point x="67" y="184"/>
      <point x="69" y="172"/>
      <point x="68" y="161" type="curve"/>
      <point x="69" y="155"/>
      <point x="72" y="153"/>
      <point x="71" y="147" type="curve" smooth="yes"/>
      <point x="69" y="132"/>
      <point x="73" y="119"/>
      <point x="73" y="106" type="curve" smooth="yes"/>
      <point x="73" y="90"/>
      <point x="68" y="75"/>
      <point x="71" y="58" type="curve"/>
      <point x="68" y="50"/>
      <point x="64" y="42"/>
      <point x="65" y="28" type="curve"/>
      <point x="71" y="13"/>
      <point x="87" y="8"/>
      <point x="104" y="3" type="curve"/>
      <point x="115" y="8"/>
      <point x="124" y="16"/>
      <point x="127" y="28" type="curve"/>
      <point x="124" y="40"/>
      <point x="120" y="49"/>
      <point x="117" y="60" type="curve"/>
      <point x="118" y="76"/>
      <point x="116" y="99"/>
      <point x="119" y="118" type="curve"/>
      <point x="118" y="126"/>
      <point x="115" y="132"/>
      <point x="116" y="140" type="curve"/>
      <point x="115" y="149"/>
      <point x="116" y="155"/>
      <point x="119" y="161" type="curve"/>
      <point x="114" y="181"/>
      <point x="112" y="201"/>
      <point x="119" y="219" type="curve"/>
      <point x="111" y="247"/>
      <point x="117" y="283"/>
      <point x="117" y="317" type="curve"/>
      <point x="121" y="318"/>
      <point x="121" y="323"/>
      <point x="125" y="323" type="curve"/>
      <point x="127" y="326"/>
      <point x="128" y="330"/>
      <point x="134" y="330" type="curve"/>
      <point x="145" y="327"/>
      <point x="148" y="318"/>
      <point x="155" y="312" type="curve"/>
      <point x="160" y="304"/>
      <point x="167" y="298"/>
      <point x="174" y="292" type="curve"/>
      <point x="177" y="287"/>
      <point x="178" y="281"/>
      <point x="180" y="276" type="curve"/>
      <point x="185" y="274"/>
      <point x="191" y="273"/>
      <point x="196" y="270" type="curve"/>
      <point x="212" y="254"/>
      <point x="221" y="232"/>
      <point x="245" y="224" type="curve"/>
      <point x="252" y="216"/>
      <point x="257" y="208"/>
      <point x="264" y="200" type="curve" smooth="yes"/>
      <point x="271" y="193"/>
      <point x="279" y="187"/>
      <point x="283" y="177" type="curve"/>
      <point x="299" y="169"/>
      <point x="310" y="154"/>
      <point x="324" y="144" type="curve"/>
      <point x="331" y="129"/>
      <point x="346" y="122"/>
      <point x="354" y="107" type="curve"/>
      <point x="368" y="101"/>
      <point x="376" y="89"/>
      <point x="387" y="80" type="curve"/>
      <point x="392" y="70"/>
      <point x="401" y="63"/>
      <point x="407" y="54" type="curve"/>
      <point x="420" y="46"/>
      <point x="429" y="35"/>
      <point x="439" y="24" type="curve"/>
      <point x="447" y="20"/>
      <point x="455" y="16"/>
      <point x="461" y="10" type="curve"/>
      <point x="483" y="8"/>
      <point x="506" y="3"/>
      <point x="517" y="17" type="curve"/>
      <point x="517" y="23"/>
      <point x="518" y="30"/>
      <point x="514" y="32" type="curve"/>
      <point x="509" y="40"/>
      <point x="501" y="48"/>
      <point x="494" y="55" type="curve" smooth="yes"/>
      <point x="484" y="66"/>
      <point x="472" y="74"/>
      <point x="464" y="84" type="curve"/>
      <point x="461" y="86"/>
      <point x="461" y="91"/>
      <point x="456" y="92" type="curve"/>
      <point x="450" y="96"/>
      <point x="445" y="102"/>
      <point x="442" y="109" type="curve"/>
      <point x="428" y="117"/>
      <point x="420" y="129"/>
      <point x="406" y="136" type="curve"/>
      <point x="399" y="146"/>
      <point x="389" y="153"/>
      <point x="383" y="164" type="curve"/>
      <point x="360" y="178"/>
      <point x="348" y="203"/>
      <point x="324" y="216" type="curve"/>
      <point x="323" y="221"/>
      <point x="320" y="223"/>
      <point x="319" y="227" type="curve"/>
      <point x="314" y="231"/>
      <point x="307" y="233"/>
      <point x="305" y="240" type="curve"/>
      <point x="301" y="246"/>
      <point x="293" y="247"/>
      <point x="289" y="252" type="curve" smooth="yes"/>
      <point x="281" y="263"/>
      <point x="270" y="270"/>
      <point x="264" y="282" type="curve"/>
      <point x="246" y="291"/>
      <point x="238" y="309"/>
      <point x="220" y="317" type="curve"/>
      <point x="218" y="322"/>
      <point x="215" y="326"/>
      <point x="212" y="330" type="curve"/>
      <point x="202" y="334"/>
      <point x="195" y="342"/>
      <point x="186" y="347" type="curve"/>
      <point x="181" y="356"/>
      <point x="169" y="359"/>
      <point x="168" y="372" type="curve"/>
      <point x="172" y="378"/>
      <point x="180" y="382"/>
      <point x="188" y="385" type="curve"/>
      <point x="197" y="397"/>
      <point x="212" y="404"/>
      <point x="223" y="415" type="curve" smooth="yes"/>
      <point x="234" y="425"/>
      <point x="259" y="447"/>
      <point x="261" y="452" type="curve"/>
      <point x="271" y="459"/>
      <point x="275" y="471"/>
      <point x="287" y="476" type="curve"/>
      <point x="294" y="487"/>
      <point x="305" y="494"/>
      <point x="314" y="501" type="curve"/>
      <point x="324" y="521"/>
      <point x="342" y="533"/>
      <point x="358" y="545" type="curve"/>
      <point x="363" y="550"/>
      <point x="365" y="557"/>
      <point x="369" y="563" type="curve"/>
      <point x="376" y="567"/>
      <point x="382" y="573"/>
      <point x="390" y="575" type="curve"/>
      <point x="389" y="582"/>
      <point x="392" y="586"/>
      <point x="395" y="590" type="curve" smooth="yes"/>
      <point x="400" y="595"/>
      <point x="407" y="598"/>
      <point x="413" y="602" type="curve"/>
      <point x="416" y="611"/>
      <point x="422" y="617"/>
      <point x="429" y="621" type="curve"/>
      <point x="434" y="629"/>
      <point x="441" y="634"/>
      <point x="445" y="642" type="curve"/>
      <point x="457" y="649"/>
      <point x="468" y="659"/>
      <point x="476" y="670" type="curve"/>
      <point x="478" y="682"/>
      <point x="478" y="690"/>
      <point x="472" y="697" type="curve"/>
      <point x="455" y="702"/>
      <point x="436" y="699"/>
      <point x="421" y="694" type="curve"/>
      <point x="412" y="686"/>
      <point x="403" y="676"/>
      <point x="395" y="667" type="curve" smooth="yes"/>
      <point x="386" y="657"/>
      <point x="376" y="648"/>
      <point x="371" y="635" type="curve"/>
      <point x="361" y="628"/>
      <point x="351" y="622"/>
      <point x="346" y="610" type="curve"/>
      <point x="339" y="608"/>
      <point x="335" y="604"/>
      <point x="331" y="599" type="curve"/>
      <point x="329" y="593"/>
      <point x="321" y="593"/>
      <point x="317" y="588" type="curve"/>
      <point x="316" y="580"/>
      <point x="312" y="575"/>
      <point x="309" y="569" type="curve"/>
      <point x="293" y="562"/>
      <point x="285" y="546"/>
      <point x="268" y="539" type="curve"/>
      <point x="267" y="533"/>
      <point x="263" y="530"/>
      <point x="261" y="525" type="curve"/>
      <point x="256" y="522"/>
      <point x="253" y="518"/>
      <point x="248" y="516" type="curve"/>
      <point x="244" y="512"/>
      <point x="242" y="507"/>
      <point x="237" y="505" type="curve"/>
      <point x="229" y="497"/>
      <point x="224" y="487"/>
      <point x="216" y="479" type="curve"/>
      <point x="209" y="475"/>
      <point x="201" y="471"/>
      <point x="196" y="464" type="curve"/>
      <point x="188" y="459"/>
      <point x="184" y="451"/>
      <point x="175" y="446" type="curve"/>
      <point x="171" y="438"/>
      <point x="167" y="430"/>
      <point x="158" y="427" type="curve"/>
      <point x="157" y="420"/>
      <point x="151" y="418"/>
      <point x="150" y="412" type="curve"/>
      <point x="144" y="408"/>
      <point x="138" y="404"/>
      <point x="136" y="397" type="curve"/>
      <point x="130" y="396"/>
      <point x="125" y="386"/>
      <point x="119" y="389" type="curve"/>
      <point x="113" y="398"/>
      <point x="116" y="409"/>
      <point x="116" y="419" type="curve" smooth="yes"/>
      <point x="115" y="429"/>
      <point x="114" y="439"/>
      <point x="114" y="449" type="curve" smooth="yes"/>
      <point x="117" y="532"/>
      <point x="116" y="613"/>
      <point x="119" y="692" type="curve"/>
      <point x="114" y="697"/>
      <point x="109" y="704"/>
      <point x="100" y="705" type="curve" smooth="yes"/>
      <point x="86" y="705"/>
      <point x="81" y="699"/>
      <point x="73" y="694" type="curve"/>
      <point x="71" y="659"/>
      <point x="72" y="609"/>
      <point x="70" y="575" type="curve" smooth="yes"/>
      <point x="68" y="555"/>
      <point x="72" y="536"/>
      <point x="73" y="516" type="curve" smooth="yes"/>
      <point x="73" y="512"/>
      <point x="71" y="508"/>
      <point x="71" y="505" type="curve" smooth="yes"/>
      <point x="71" y="495"/>
      <point x="73" y="489"/>
      <point x="73" y="482" type="curve" smooth="yes"/>
    </contour>
    <contour>
      <point x="268" y="0" type="move" name="bottom"/>
    </contour>
    <contour>
      <point x="268" y="695" type="move" name="top"/>
    </contour>
  </outline>
</glyph>
<glyph name="N" format="1">
  <advance width="747"/>
  <unicode hex="004E"/>
  <outline>
    <contour>
      <point x="471" y="290" type="line"/>
      <point x="460" y="299"/>
      <point x="455" y="312"/>
      <point x="444" y="320" type="curve" smooth="yes"/>
      <point x="434" y="329"/>
      <point x="424" y="337"/>
      <point x="417" y="350" type="curve"/>
      <point x="413" y="355"/>
      <point x="406" y="357"/>
      <point x="403" y="363" type="curve"/>
      <point x="390" y="378" type="line"/>
      <point x="362" y="407" type="line" smooth="yes"/>
      <point x="353" y="416"/>
      <point x="341" y="424"/>
      <point x="335" y="437" type="curve"/>
      <point x="322" y="443"/>
      <point x="318" y="457"/>
      <point x="305" y="464" type="curve"/>
      <point x="288" y="484"/>
      <point x="268" y="502"/>
      <point x="252" y="523" type="curve" smooth="yes"/>
      <point x="248" y="529"/>
      <point x="240" y="531"/>
      <point x="236" y="536" type="curve"/>
      <point x="233" y="542"/>
      <point x="227" y="546"/>
      <point x="223" y="552" type="curve" smooth="yes"/>
      <point x="215" y="562"/>
      <point x="204" y="571"/>
      <point x="193" y="579" type="curve"/>
      <point x="187" y="592"/>
      <point x="175" y="600"/>
      <point x="167" y="612" type="curve"/>
      <point x="161" y="616"/>
      <point x="154" y="619"/>
      <point x="151" y="626" type="curve"/>
      <point x="139" y="637"/>
      <point x="127" y="650"/>
      <point x="118" y="662" type="curve" smooth="yes"/>
      <point x="114" y="667"/>
      <point x="112" y="672"/>
      <point x="107" y="675" type="curve"/>
      <point x="103" y="681"/>
      <point x="96" y="684"/>
      <point x="93" y="691" type="curve"/>
      <point x="87" y="695"/>
      <point x="85" y="704"/>
      <point x="74" y="703" type="curve" smooth="yes"/>
      <point x="68" y="702"/>
      <point x="69" y="694"/>
      <point x="67" y="689" type="curve"/>
      <point x="64" y="685"/>
      <point x="66" y="675"/>
      <point x="66" y="668" type="curve" smooth="yes"/>
      <point x="66" y="655"/>
      <point x="70" y="641"/>
      <point x="69" y="627" type="curve" smooth="yes"/>
      <point x="68" y="621"/>
      <point x="66" y="615"/>
      <point x="66" y="609" type="curve"/>
      <point x="64" y="600"/>
      <point x="69" y="598"/>
      <point x="69" y="591" type="curve"/>
      <point x="67" y="585"/>
      <point x="67" y="577"/>
      <point x="66" y="571" type="curve"/>
      <point x="69" y="557"/>
      <point x="68" y="543"/>
      <point x="67" y="528" type="curve" smooth="yes"/>
      <point x="67" y="512"/>
      <point x="69" y="496"/>
      <point x="69" y="481" type="curve" smooth="yes"/>
      <point x="69" y="475"/>
      <point x="67" y="469"/>
      <point x="67" y="464" type="curve" smooth="yes"/>
      <point x="67" y="452"/>
      <point x="71" y="441"/>
      <point x="67" y="430" type="curve"/>
      <point x="73" y="408"/>
      <point x="69" y="382"/>
      <point x="69" y="356" type="curve" smooth="yes"/>
      <point x="69" y="289" type="line" smooth="yes"/>
      <point x="69" y="283"/>
      <point x="71" y="276"/>
      <point x="70" y="270" type="curve"/>
      <point x="70" y="233"/>
      <point x="70" y="191"/>
      <point x="69" y="151" type="curve" smooth="yes"/>
      <point x="69" y="142"/>
      <point x="70" y="133"/>
      <point x="70" y="123" type="curve" smooth="yes"/>
      <point x="70" y="90"/>
      <point x="59" y="44"/>
      <point x="72" y="21" type="curve"/>
      <point x="84" y="15"/>
      <point x="111" y="16"/>
      <point x="118" y="25" type="curve"/>
      <point x="123" y="42"/>
      <point x="115" y="60"/>
      <point x="115" y="80" type="curve" smooth="yes"/>
      <point x="115" y="88"/>
      <point x="116" y="96"/>
      <point x="116" y="104" type="curve" smooth="yes"/>
      <point x="116" y="119"/>
      <point x="112" y="135"/>
      <point x="116" y="150" type="curve"/>
      <point x="112" y="176"/>
      <point x="112" y="219"/>
      <point x="113" y="243" type="curve" smooth="yes"/>
      <point x="113" y="250"/>
      <point x="115" y="259"/>
      <point x="115" y="266" type="curve"/>
      <point x="111" y="292" type="line"/>
      <point x="110" y="315"/>
      <point x="113" y="337"/>
      <point x="113" y="359" type="curve" smooth="yes"/>
      <point x="113" y="376"/>
      <point x="109" y="392"/>
      <point x="115" y="405" type="curve"/>
      <point x="109" y="423"/>
      <point x="111" y="448"/>
      <point x="111" y="465" type="curve"/>
      <point x="112" y="470"/>
      <point x="110" y="475"/>
      <point x="110" y="479" type="curve" smooth="yes"/>
      <point x="109" y="513"/>
      <point x="110" y="541"/>
      <point x="111" y="566" type="curve"/>
      <point x="110" y="571"/>
      <point x="108" y="576"/>
      <point x="108" y="583" type="curve"/>
      <point x="110" y="589"/>
      <point x="108" y="598"/>
      <point x="113" y="601" type="curve"/>
      <point x="125" y="593"/>
      <point x="131" y="578"/>
      <point x="141" y="569" type="curve" smooth="yes"/>
      <point x="152" y="560"/>
      <point x="159" y="546"/>
      <point x="171" y="538" type="curve"/>
      <point x="181" y="527"/>
      <point x="189" y="514"/>
      <point x="201" y="506" type="curve"/>
      <point x="206" y="501"/>
      <point x="211" y="496"/>
      <point x="214" y="489" type="curve"/>
      <point x="220" y="484"/>
      <point x="226" y="480"/>
      <point x="230" y="473" type="curve" smooth="yes"/>
      <point x="234" y="467"/>
      <point x="238" y="461"/>
      <point x="244" y="457" type="curve"/>
      <point x="249" y="452"/>
      <point x="252" y="445"/>
      <point x="258" y="441" type="curve"/>
      <point x="266" y="440"/>
      <point x="267" y="430"/>
      <point x="274" y="427" type="curve"/>
      <point x="277" y="420"/>
      <point x="283" y="417"/>
      <point x="288" y="412" type="curve"/>
      <point x="291" y="407" type="line" smooth="yes"/>
      <point x="295" y="402"/>
      <point x="300" y="399"/>
      <point x="304" y="396" type="curve"/>
      <point x="307" y="388"/>
      <point x="312" y="383"/>
      <point x="318" y="378" type="curve"/>
      <point x="324" y="375"/>
      <point x="328" y="369"/>
      <point x="332" y="363" type="curve"/>
      <point x="339" y="359"/>
      <point x="343" y="353"/>
      <point x="346" y="345" type="curve"/>
      <point x="361" y="338"/>
      <point x="371" y="325"/>
      <point x="381" y="314" type="curve"/>
      <point x="389" y="311"/>
      <point x="391" y="302"/>
      <point x="398" y="298" type="curve"/>
      <point x="401" y="290"/>
      <point x="410" y="287"/>
      <point x="413" y="279" type="curve"/>
      <point x="423" y="268"/>
      <point x="435" y="257"/>
      <point x="446" y="246" type="curve" smooth="yes"/>
      <point x="452" y="241"/>
      <point x="458" y="237"/>
      <point x="461" y="229" type="curve"/>
      <point x="468" y="224"/>
      <point x="474" y="219"/>
      <point x="479" y="213" type="curve" smooth="yes"/>
      <point x="494" y="196" type="line"/>
      <point x="498" y="188"/>
      <point x="508" y="187"/>
      <point x="510" y="178" type="curve"/>
      <point x="522" y="168"/>
      <point x="534" y="158"/>
      <point x="543" y="145" type="curve"/>
      <point x="549" y="139"/>
      <point x="557" y="137"/>
      <point x="559" y="128" type="curve"/>
      <point x="568" y="125"/>
      <point x="569" y="115"/>
      <point x="576" y="112" type="curve"/>
      <point x="581" y="105"/>
      <point x="587" y="100"/>
      <point x="591" y="93" type="curve" smooth="yes"/>
      <point x="596" y="87"/>
      <point x="604" y="83"/>
      <point x="610" y="77" type="curve" smooth="yes"/>
      <point x="613" y="74"/>
      <point x="612" y="66"/>
      <point x="616" y="63" type="curve"/>
      <point x="623" y="62"/>
      <point x="625" y="55"/>
      <point x="630" y="52" type="curve"/>
      <point x="637" y="50"/>
      <point x="638" y="42"/>
      <point x="643" y="38" type="curve" smooth="yes"/>
      <point x="653" y="32"/>
      <point x="665" y="21"/>
      <point x="679" y="24" type="curve"/>
      <point x="685" y="33"/>
      <point x="680" y="46"/>
      <point x="681" y="58" type="curve" smooth="yes"/>
      <point x="681" y="68"/>
      <point x="683" y="79"/>
      <point x="682" y="88" type="curve" smooth="yes"/>
      <point x="676" y="129"/>
      <point x="682" y="172"/>
      <point x="679" y="216" type="curve" smooth="yes"/>
      <point x="679" y="223"/>
      <point x="683" y="225"/>
      <point x="682" y="232" type="curve" smooth="yes"/>
      <point x="680" y="238"/>
      <point x="679" y="245"/>
      <point x="679" y="252" type="curve" smooth="yes"/>
      <point x="677" y="289"/>
      <point x="679" y="329"/>
      <point x="679" y="371" type="curve" smooth="yes"/>
      <point x="679" y="438"/>
      <point x="677" y="503"/>
      <point x="677" y="566" type="curve" smooth="yes"/>
      <point x="677" y="588"/>
      <point x="674" y="607"/>
      <point x="679" y="623" type="curve"/>
      <point x="673" y="647"/>
      <point x="685" y="680"/>
      <point x="673" y="698" type="curve"/>
      <point x="665" y="704"/>
      <point x="647" y="705"/>
      <point x="638" y="700" type="curve"/>
      <point x="634" y="695"/>
      <point x="633" y="688"/>
      <point x="630" y="683" type="curve"/>
      <point x="629" y="670"/>
      <point x="632" y="661"/>
      <point x="633" y="650" type="curve"/>
      <point x="628" y="632"/>
      <point x="636" y="613"/>
      <point x="630" y="596" type="curve"/>
      <point x="634" y="587"/>
      <point x="632" y="574"/>
      <point x="635" y="564" type="curve"/>
      <point x="630" y="551"/>
      <point x="634" y="540"/>
      <point x="635" y="525" type="curve"/>
      <point x="629" y="479"/>
      <point x="636" y="430"/>
      <point x="633" y="382" type="curve" smooth="yes"/>
      <point x="633" y="375"/>
      <point x="637" y="373"/>
      <point x="636" y="366" type="curve" smooth="yes"/>
      <point x="634" y="343"/>
      <point x="638" y="318"/>
      <point x="640" y="295" type="curve"/>
      <point x="638" y="289"/>
      <point x="637" y="283"/>
      <point x="635" y="278" type="curve"/>
      <point x="638" y="271"/>
      <point x="636" y="261"/>
      <point x="635" y="254" type="curve"/>
      <point x="640" y="239"/>
      <point x="638" y="219"/>
      <point x="638" y="200" type="curve" smooth="yes"/>
      <point x="638" y="188"/>
      <point x="640" y="174"/>
      <point x="640" y="162" type="curve"/>
      <point x="639" y="157"/>
      <point x="638" y="151"/>
      <point x="638" y="145" type="curve" smooth="yes"/>
      <point x="638" y="135"/>
      <point x="643" y="125"/>
      <point x="636" y="118" type="curve"/>
      <point x="632" y="117"/>
      <point x="632" y="123"/>
      <point x="630" y="125" type="curve" smooth="yes"/>
      <point x="626" y="128"/>
      <point x="621" y="130"/>
      <point x="617" y="132" type="curve"/>
      <point x="613" y="136"/>
      <point x="611" y="141"/>
      <point x="608" y="145" type="curve" smooth="yes"/>
      <point x="598" y="156"/>
      <point x="585" y="166"/>
      <point x="576" y="177" type="curve" smooth="yes"/>
      <point x="573" y="181"/>
      <point x="572" y="187"/>
      <point x="569" y="191" type="curve"/>
      <point x="567" y="192"/>
      <point x="564" y="192"/>
      <point x="562" y="194" type="curve" smooth="yes"/>
      <point x="556" y="199"/>
      <point x="552" y="206"/>
      <point x="547" y="211" type="curve" smooth="yes"/>
      <point x="539" y="218"/>
      <point x="530" y="224"/>
      <point x="526" y="233" type="curve"/>
      <point x="520" y="236"/>
      <point x="517" y="242"/>
      <point x="510" y="244" type="curve"/>
      <point x="507" y="251"/>
      <point x="502" y="255"/>
      <point x="498" y="260" type="curve" smooth="yes"/>
    </contour>
    <contour>
      <point x="383" y="0" type="move" name="bottom"/>
    </contour>
    <contour>
      <point x="383" y="695" type="move" name="top"/>
    </contour>
  </outline>
</glyph>
<glyph name="O" format="1">
  <advance width="804"/>
  <unicode hex="004F"/>
  <outline>
    <contour>
      <point x="753" y="395" type="line"/>
      <point x="748" y="409"/>
      <point x="747" y="427"/>
      <point x="745" y="444" type="curve"/>
      <point x="740" y="451"/>
      <point x="738" y="460"/>
      <point x="735" y="469" type="curve" smooth="yes"/>
      <point x="726" y="496" type="line"/>
      <point x="718" y="511"/>
      <point x="713" y="530"/>
      <point x="701" y="541" type="curve"/>
      <point x="698" y="550"/>
      <point x="693" y="557"/>
      <point x="688" y="563" type="curve"/>
      <point x="681" y="569"/>
      <point x="679" y="579"/>
      <point x="672" y="584" type="curve"/>
      <point x="662" y="598"/>
      <point x="648" y="608"/>
      <point x="638" y="622" type="curve"/>
      <point x="624" y="627"/>
      <point x="612" y="635"/>
      <point x="603" y="645" type="curve"/>
      <point x="588" y="646"/>
      <point x="583" y="656"/>
      <point x="571" y="660" type="curve"/>
      <point x="565" y="661"/>
      <point x="562" y="666"/>
      <point x="554" y="666" type="curve"/>
      <point x="546" y="677"/>
      <point x="529" y="679"/>
      <point x="515" y="683" type="curve" smooth="yes"/>
      <point x="507" y="686"/>
      <point x="504" y="691"/>
      <point x="497" y="694" type="curve"/>
      <point x="487" y="693"/>
      <point x="482" y="697"/>
      <point x="475" y="699" type="curve"/>
      <point x="466" y="699"/>
      <point x="460" y="702"/>
      <point x="452" y="704" type="curve"/>
      <point x="423" y="706"/>
      <point x="398" y="708"/>
      <point x="368" y="705" type="curve"/>
      <point x="350" y="699"/>
      <point x="331" y="701"/>
      <point x="314" y="696" type="curve" smooth="yes"/>
      <point x="300" y="691"/>
      <point x="289" y="681"/>
      <point x="277" y="677" type="curve"/>
      <point x="261" y="677" type="line"/>
      <point x="238" y="663"/>
      <point x="215" y="650"/>
      <point x="191" y="638" type="curve"/>
      <point x="165" y="614" type="line"/>
      <point x="153" y="609"/>
      <point x="149" y="595"/>
      <point x="138" y="590" type="curve"/>
      <point x="134" y="582"/>
      <point x="127" y="576"/>
      <point x="122" y="568" type="curve" smooth="yes"/>
      <point x="117" y="560"/>
      <point x="110" y="554"/>
      <point x="106" y="545" type="curve"/>
      <point x="95" y="530"/>
      <point x="88" y="511"/>
      <point x="76" y="496" type="curve"/>
      <point x="73" y="480"/>
      <point x="67" y="466"/>
      <point x="62" y="450" type="curve" smooth="yes"/>
      <point x="58" y="434"/>
      <point x="57" y="416"/>
      <point x="53" y="398" type="curve"/>
      <point x="51" y="371"/>
      <point x="50" y="351"/>
      <point x="50" y="325" type="curve"/>
      <point x="54" y="309"/>
      <point x="55" y="285"/>
      <point x="61" y="270" type="curve" smooth="yes"/>
      <point x="65" y="259"/>
      <point x="66" y="248"/>
      <point x="68" y="239" type="curve"/>
      <point x="70" y="235"/>
      <point x="70" y="230"/>
      <point x="72" y="226" type="curve" smooth="yes"/>
      <point x="75" y="218"/>
      <point x="82" y="213"/>
      <point x="84" y="206" type="curve"/>
      <point x="87" y="183"/>
      <point x="103" y="175"/>
      <point x="106" y="154" type="curve"/>
      <point x="113" y="146"/>
      <point x="121" y="140"/>
      <point x="125" y="130" type="curve"/>
      <point x="133" y="123"/>
      <point x="140" y="116"/>
      <point x="146" y="106" type="curve"/>
      <point x="161" y="101"/>
      <point x="167" y="86"/>
      <point x="179" y="76" type="curve"/>
      <point x="191" y="69"/>
      <point x="204" y="63"/>
      <point x="212" y="51" type="curve"/>
      <point x="222" y="51"/>
      <point x="225" y="45"/>
      <point x="231" y="42" type="curve"/>
      <point x="236" y="37"/>
      <point x="243" y="34"/>
      <point x="247" y="27" type="curve"/>
      <point x="260" y="27"/>
      <point x="266" y="20"/>
      <point x="277" y="16" type="curve"/>
      <point x="287" y="14"/>
      <point x="297" y="9"/>
      <point x="307" y="5" type="curve"/>
      <point x="324" y="5"/>
      <point x="339" y="1"/>
      <point x="354" y="-2" type="curve"/>
      <point x="396" y="-1"/>
      <point x="444" y="-1"/>
      <point x="486" y="2" type="curve"/>
      <point x="497" y="9"/>
      <point x="511" y="13"/>
      <point x="526" y="16" type="curve"/>
      <point x="538" y="26"/>
      <point x="556" y="30"/>
      <point x="574" y="34" type="curve"/>
      <point x="580" y="40"/>
      <point x="587" y="45"/>
      <point x="595" y="50" type="curve" smooth="yes"/>
      <point x="603" y="54"/>
      <point x="607" y="61"/>
      <point x="614" y="67" type="curve"/>
      <point x="629" y="70"/>
      <point x="633" y="85"/>
      <point x="647" y="89" type="curve"/>
      <point x="650" y="98"/>
      <point x="659" y="104"/>
      <point x="664" y="111" type="curve" smooth="yes"/>
      <point x="666" y="113"/>
      <point x="666" y="116"/>
      <point x="668" y="117" type="curve"/>
      <point x="673" y="123"/>
      <point x="678" y="127"/>
      <point x="683" y="132" type="curve"/>
      <point x="687" y="142"/>
      <point x="695" y="148"/>
      <point x="699" y="158" type="curve"/>
      <point x="703" y="162"/>
      <point x="704" y="168"/>
      <point x="707" y="173" type="curve"/>
      <point x="712" y="175"/>
      <point x="712" y="182"/>
      <point x="716" y="185" type="curve"/>
      <point x="723" y="206"/>
      <point x="732" y="224"/>
      <point x="742" y="242" type="curve"/>
      <point x="744" y="261"/>
      <point x="751" y="274"/>
      <point x="754" y="292" type="curve"/>
      <point x="755" y="320"/>
      <point x="753" y="350"/>
      <point x="753" y="373" type="curve" smooth="yes"/>
    </contour>
    <contour>
      <point x="0" y="0"/>
    </contour>
    <contour>
      <point x="713" y="336" type="line"/>
      <point x="706" y="312"/>
      <point x="708" y="285"/>
      <point x="701" y="262" type="curve" smooth="yes"/>
      <point x="696" y="248"/>
      <point x="687" y="237"/>
      <point x="685" y="223" type="curve"/>
      <point x="674" y="214"/>
      <point x="671" y="198"/>
      <point x="663" y="187" type="curve"/>
      <point x="661" y="181"/>
      <point x="656" y="178"/>
      <point x="653" y="174" type="curve" smooth="yes"/>
      <point x="644" y="163"/>
      <point x="634" y="150"/>
      <point x="625" y="136" type="curve"/>
      <point x="616" y="131"/>
      <point x="611" y="123"/>
      <point x="603" y="117" type="curve" smooth="yes"/>
      <point x="595" y="112"/>
      <point x="588" y="106"/>
      <point x="582" y="98" type="curve"/>
      <point x="567" y="94"/>
      <point x="557" y="82"/>
      <point x="543" y="76" type="curve"/>
      <point x="520" y="70"/>
      <point x="503" y="58"/>
      <point x="477" y="54" type="curve"/>
      <point x="454" y="47"/>
      <point x="423" y="49"/>
      <point x="398" y="45" type="curve"/>
      <point x="386" y="51"/>
      <point x="368" y="51"/>
      <point x="352" y="53" type="curve" smooth="yes"/>
      <point x="341" y="54"/>
      <point x="326" y="60"/>
      <point x="308" y="59" type="curve"/>
      <point x="293" y="65"/>
      <point x="279" y="72"/>
      <point x="262" y="76" type="curve"/>
      <point x="249" y="87"/>
      <point x="235" y="97"/>
      <point x="218" y="105" type="curve"/>
      <point x="212" y="110"/>
      <point x="208" y="117"/>
      <point x="201" y="122" type="curve" smooth="yes"/>
      <point x="193" y="126"/>
      <point x="188" y="132"/>
      <point x="184" y="139" type="curve"/>
      <point x="170" y="149"/>
      <point x="163" y="164"/>
      <point x="150" y="174" type="curve"/>
      <point x="146" y="190"/>
      <point x="137" y="201"/>
      <point x="128" y="213" type="curve"/>
      <point x="127" y="226"/>
      <point x="121" y="233"/>
      <point x="119" y="245" type="curve"/>
      <point x="115" y="248"/>
      <point x="113" y="253"/>
      <point x="114" y="261" type="curve"/>
      <point x="111" y="264"/>
      <point x="109" y="270"/>
      <point x="106" y="273" type="curve"/>
      <point x="106" y="288"/>
      <point x="102" y="299"/>
      <point x="98" y="311" type="curve"/>
      <point x="99" y="320"/>
      <point x="99" y="328"/>
      <point x="98" y="336" type="curve" smooth="yes"/>
      <point x="98" y="344"/>
      <point x="95" y="352"/>
      <point x="95" y="360" type="curve" smooth="yes"/>
      <point x="95" y="367"/>
      <point x="97" y="375"/>
      <point x="98" y="382" type="curve" smooth="yes"/>
      <point x="99" y="385"/>
      <point x="101" y="388"/>
      <point x="102" y="392" type="curve" smooth="yes"/>
      <point x="102" y="395"/>
      <point x="101" y="399"/>
      <point x="102" y="403" type="curve" smooth="yes"/>
      <point x="104" y="416"/>
      <point x="108" y="429"/>
      <point x="114" y="439" type="curve"/>
      <point x="114" y="447"/>
      <point x="118" y="451"/>
      <point x="117" y="459" type="curve"/>
      <point x="124" y="470"/>
      <point x="126" y="481"/>
      <point x="132" y="491" type="curve" smooth="yes"/>
      <point x="135" y="497" type="line" smooth="yes"/>
      <point x="137" y="501"/>
      <point x="140" y="503"/>
      <point x="143" y="507" type="curve"/>
      <point x="149" y="519" type="line" smooth="yes"/>
      <point x="155" y="529"/>
      <point x="166" y="538"/>
      <point x="171" y="551" type="curve"/>
      <point x="177" y="556"/>
      <point x="185" y="561"/>
      <point x="190" y="568" type="curve"/>
      <point x="197" y="573"/>
      <point x="201" y="581"/>
      <point x="207" y="587" type="curve"/>
      <point x="216" y="592"/>
      <point x="226" y="597"/>
      <point x="232" y="604" type="curve"/>
      <point x="244" y="607"/>
      <point x="249" y="616"/>
      <point x="256" y="623" type="curve"/>
      <point x="267" y="625"/>
      <point x="274" y="630"/>
      <point x="281" y="636" type="curve"/>
      <point x="301" y="637"/>
      <point x="313" y="644"/>
      <point x="325" y="652" type="curve"/>
      <point x="330" y="653"/>
      <point x="336" y="652"/>
      <point x="341" y="653" type="curve" smooth="yes"/>
      <point x="345" y="654"/>
      <point x="350" y="656"/>
      <point x="354" y="656" type="curve" smooth="yes"/>
      <point x="365" y="657"/>
      <point x="378" y="656"/>
      <point x="390" y="656" type="curve" smooth="yes"/>
      <point x="401" y="657"/>
      <point x="412" y="660"/>
      <point x="422" y="660" type="curve" smooth="yes"/>
      <point x="440" y="659"/>
      <point x="456" y="650"/>
      <point x="474" y="652" type="curve"/>
      <point x="489" y="643"/>
      <point x="506" y="635"/>
      <point x="524" y="630" type="curve" smooth="yes"/>
      <point x="533" y="627"/>
      <point x="539" y="621"/>
      <point x="546" y="617" type="curve" smooth="yes"/>
      <point x="554" y="614"/>
      <point x="562" y="611"/>
      <point x="568" y="606" type="curve"/>
      <point x="580" y="601"/>
      <point x="583" y="587"/>
      <point x="597" y="584" type="curve"/>
      <point x="605" y="576"/>
      <point x="615" y="569"/>
      <point x="625" y="562" type="curve"/>
      <point x="633" y="549"/>
      <point x="645" y="540"/>
      <point x="652" y="526" type="curve"/>
      <point x="664" y="517"/>
      <point x="669" y="501"/>
      <point x="679" y="491" type="curve"/>
      <point x="682" y="481"/>
      <point x="686" y="472"/>
      <point x="691" y="464" type="curve"/>
      <point x="699" y="434"/>
      <point x="709" y="406"/>
      <point x="712" y="371" type="curve"/>
      <point x="713" y="371"/>
      <point x="713" y="371"/>
      <point x="713" y="370" type="curve" smooth="yes"/>
    </contour>
    <contour>
      <point x="404" y="0" type="move" name="bottom"/>
    </contour>
    <contour>
      <point x="404" y="348" type="move" name="center"/>
    </contour>
    <contour>
      <point x="435" y="10" type="move" name="ogonek"/>
    </contour>
    <contour>
      <point x="404" y="695" type="move" name="top"/>
    </contour>
    <contour>
      <point x="30" y="695" type="move" name="topleft"/>
    </contour>
    <contour>
      <point x="777" y="695" type="move" name="topright"/>
    </contour>
  </outline>
</glyph>
<glyph name="P" format="1">
  <advance width="427"/>
  <unicode hex="0050"/>
  <outline>
    <contour>
      <point x="127" y="349"/>
      <point x="145" y="346"/>
      <point x="159" y="347" type="curve" smooth="yes"/>
      <point x="168" y="348"/>
      <point x="175" y="351"/>
      <point x="185" y="351" type="curve" smooth="yes"/>
      <point x="203" y="352"/>
      <point x="218" y="347"/>
      <point x="233" y="348" type="curve" smooth="yes"/>
      <point x="248" y="349"/>
      <point x="261" y="355"/>
      <point x="277" y="354" type="curve"/>
      <point x="287" y="361"/>
      <point x="301" y="364"/>
      <point x="313" y="370" type="curve" smooth="yes"/>
      <point x="322" y="376"/>
      <point x="330" y="383"/>
      <point x="338" y="390" type="curve" smooth="yes"/>
      <point x="343" y="394"/>
      <point x="345" y="399"/>
      <point x="349" y="403" type="curve"/>
      <point x="355" y="406"/>
      <point x="357" y="411"/>
      <point x="362" y="414" type="curve"/>
      <point x="366" y="426"/>
      <point x="375" y="436"/>
      <point x="381" y="445" type="curve"/>
      <point x="388" y="478"/>
      <point x="399" y="508"/>
      <point x="396" y="546" type="curve"/>
      <point x="390" y="561"/>
      <point x="386" y="577"/>
      <point x="383" y="595" type="curve"/>
      <point x="376" y="606"/>
      <point x="371" y="618"/>
      <point x="364" y="628" type="curve" smooth="yes"/>
      <point x="357" y="639"/>
      <point x="348" y="648"/>
      <point x="340" y="658" type="curve"/>
      <point x="338" y="658"/>
      <point x="336" y="660"/>
      <point x="336" y="661" type="curve"/>
      <point x="320" y="669"/>
      <point x="306" y="679"/>
      <point x="288" y="685" type="curve"/>
      <point x="272" y="693"/>
      <point x="251" y="697"/>
      <point x="233" y="704" type="curve"/>
      <point x="195" y="698"/>
      <point x="159" y="700"/>
      <point x="118" y="698" type="curve"/>
      <point x="106" y="700"/>
      <point x="87" y="702"/>
      <point x="76" y="700" type="curve"/>
      <point x="66" y="692"/>
      <point x="68" y="674"/>
      <point x="65" y="660" type="curve"/>
      <point x="66" y="654"/>
      <point x="70" y="651"/>
      <point x="69" y="643" type="curve" smooth="yes"/>
      <point x="67" y="596"/>
      <point x="71" y="550"/>
      <point x="71" y="504" type="curve" smooth="yes"/>
      <point x="71" y="453"/>
      <point x="68" y="406"/>
      <point x="69" y="354" type="curve" smooth="yes"/>
      <point x="69" y="337"/>
      <point x="72" y="319"/>
      <point x="72" y="301" type="curve" smooth="yes"/>
      <point x="72" y="275"/>
      <point x="72" y="249"/>
      <point x="69" y="224" type="curve"/>
      <point x="73" y="164"/>
      <point x="68" y="91"/>
      <point x="65" y="28" type="curve"/>
      <point x="73" y="19"/>
      <point x="90" y="13"/>
      <point x="106" y="17" type="curve"/>
      <point x="109" y="21"/>
      <point x="112" y="24"/>
      <point x="116" y="27" type="curve"/>
      <point x="115" y="47"/>
      <point x="115" y="69"/>
      <point x="111" y="87" type="curve"/>
      <point x="113" y="95"/>
      <point x="114" y="114"/>
      <point x="111" y="123" type="curve"/>
      <point x="115" y="138"/>
      <point x="115" y="156"/>
      <point x="115" y="173" type="curve" smooth="yes"/>
      <point x="114" y="183"/>
      <point x="115" y="193"/>
      <point x="115" y="203" type="curve" smooth="yes"/>
      <point x="114" y="212"/>
      <point x="111" y="221"/>
      <point x="111" y="230" type="curve" smooth="yes"/>
      <point x="111" y="238"/>
      <point x="113" y="246"/>
      <point x="113" y="254" type="curve" smooth="yes"/>
      <point x="113" y="270"/>
      <point x="108" y="286"/>
      <point x="108" y="299" type="curve" smooth="yes"/>
      <point x="108" y="307"/>
      <point x="110" y="316"/>
      <point x="111" y="323" type="curve" smooth="yes"/>
      <point x="113" y="330"/>
      <point x="111" y="339"/>
      <point x="118" y="343" type="curve" smooth="yes"/>
    </contour>
    <contour>
      <point x="323" y="441" type="line" smooth="yes"/>
      <point x="315" y="433"/>
      <point x="302" y="426"/>
      <point x="296" y="414" type="curve"/>
      <point x="286" y="411"/>
      <point x="279" y="404"/>
      <point x="271" y="400" type="curve"/>
      <point x="260" y="398"/>
      <point x="251" y="395"/>
      <point x="242" y="394" type="curve" smooth="yes"/>
      <point x="212" y="391"/>
      <point x="168" y="387"/>
      <point x="138" y="389" type="curve" smooth="yes"/>
      <point x="131" y="390"/>
      <point x="124" y="388"/>
      <point x="119" y="392" type="curve"/>
      <point x="115" y="398"/>
      <point x="116" y="410"/>
      <point x="113" y="418" type="curve"/>
      <point x="119" y="435"/>
      <point x="112" y="460"/>
      <point x="118" y="479" type="curve"/>
      <point x="119" y="485"/>
      <point x="114" y="487"/>
      <point x="115" y="493" type="curve" smooth="yes"/>
      <point x="124" y="527"/>
      <point x="109" y="570"/>
      <point x="118" y="605" type="curve"/>
      <point x="116" y="623"/>
      <point x="112" y="643"/>
      <point x="120" y="656" type="curve"/>
      <point x="134" y="660"/>
      <point x="150" y="655"/>
      <point x="164" y="656" type="curve" smooth="yes"/>
      <point x="170" y="656"/>
      <point x="175" y="657"/>
      <point x="181" y="657" type="curve" smooth="yes"/>
      <point x="191" y="657"/>
      <point x="201" y="654"/>
      <point x="211" y="654" type="curve" smooth="yes"/>
      <point x="221" y="654"/>
      <point x="231" y="657"/>
      <point x="241" y="654" type="curve" smooth="yes"/>
      <point x="244" y="653"/>
      <point x="246" y="650"/>
      <point x="249" y="649" type="curve" smooth="yes"/>
      <point x="257" y="645"/>
      <point x="265" y="646"/>
      <point x="273" y="644" type="curve" smooth="yes"/>
      <point x="280" y="642"/>
      <point x="285" y="638"/>
      <point x="292" y="636" type="curve"/>
      <point x="306" y="621"/>
      <point x="323" y="607"/>
      <point x="334" y="589" type="curve"/>
      <point x="336" y="582"/>
      <point x="337" y="572"/>
      <point x="340" y="567" type="curve" smooth="yes"/>
      <point x="343" y="560"/>
      <point x="344" y="552"/>
      <point x="347" y="546" type="curve"/>
      <point x="347" y="532"/>
      <point x="346" y="518"/>
      <point x="347" y="507" type="curve" smooth="yes"/>
      <point x="347" y="505"/>
      <point x="348" y="504"/>
      <point x="348" y="502" type="curve" smooth="yes"/>
      <point x="347" y="490"/>
      <point x="339" y="481"/>
      <point x="340" y="469" type="curve"/>
      <point x="336" y="465"/>
      <point x="333" y="458"/>
      <point x="333" y="450" type="curve"/>
    </contour>
    <contour>
      <point x="215" y="0" type="move" name="bottom"/>
    </contour>
    <contour>
      <point x="215" y="695" type="move" name="top"/>
    </contour>
  </outline>
</glyph>
<glyph name="Q" format="1">
  <advance width="809"/>
  <unicode hex="0051"/>
  <outline>
    <contour>
      <point x="188" y="637" type="line"/>
      <point x="186" y="637"/>
      <point x="186" y="634"/>
      <point x="184" y="633" type="curve"/>
      <point x="182" y="631"/>
      <point x="178" y="631"/>
      <point x="176" y="629" type="curve"/>
      <point x="171" y="626"/>
      <point x="169" y="621"/>
      <point x="163" y="620" type="curve"/>
      <point x="156" y="605"/>
      <point x="145" y="598"/>
      <point x="133" y="587" type="curve"/>
      <point x="126" y="574"/>
      <point x="117" y="560"/>
      <point x="108" y="548" type="curve" smooth="yes"/>
      <point x="99" y="535"/>
      <point x="92" y="520"/>
      <point x="83" y="507" type="curve"/>
      <point x="84" y="501"/>
      <point x="80" y="499"/>
      <point x="81" y="493" type="curve"/>
      <point x="72" y="481"/>
      <point x="71" y="460"/>
      <point x="64" y="445" type="curve"/>
      <point x="62" y="417"/>
      <point x="53" y="406"/>
      <point x="56" y="378" type="curve"/>
      <point x="48" y="362"/>
      <point x="51" y="346"/>
      <point x="51" y="329" type="curve" smooth="yes"/>
      <point x="51" y="315"/>
      <point x="49" y="304"/>
      <point x="52" y="293" type="curve" smooth="yes"/>
      <point x="54" y="287"/>
      <point x="59" y="283"/>
      <point x="60" y="277" type="curve" smooth="yes"/>
      <point x="63" y="268"/>
      <point x="62" y="260"/>
      <point x="63" y="252" type="curve"/>
      <point x="69" y="242"/>
      <point x="73" y="231"/>
      <point x="76" y="222" type="curve" smooth="yes"/>
      <point x="79" y="215" type="line" smooth="yes"/>
      <point x="88" y="194"/>
      <point x="99" y="175"/>
      <point x="108" y="154" type="curve"/>
      <point x="116" y="144"/>
      <point x="122" y="132"/>
      <point x="129" y="121" type="curve"/>
      <point x="134" y="118"/>
      <point x="139" y="115"/>
      <point x="143" y="111" type="curve"/>
      <point x="154" y="94" type="line"/>
      <point x="162" y="90"/>
      <point x="167" y="81"/>
      <point x="172" y="78" type="curve"/>
      <point x="174" y="76"/>
      <point x="177" y="76"/>
      <point x="180" y="75" type="curve"/>
      <point x="188" y="69"/>
      <point x="196" y="61"/>
      <point x="203" y="54" type="curve"/>
      <point x="216" y="54"/>
      <point x="223" y="46"/>
      <point x="232" y="42" type="curve"/>
      <point x="244" y="41"/>
      <point x="251" y="35"/>
      <point x="260" y="32" type="curve" smooth="yes"/>
      <point x="269" y="28"/>
      <point x="279" y="26"/>
      <point x="285" y="19" type="curve"/>
      <point x="303" y="15"/>
      <point x="319" y="9"/>
      <point x="336" y="4" type="curve"/>
      <point x="354" y="3"/>
      <point x="371" y="0"/>
      <point x="388" y="-3" type="curve"/>
      <point x="404" y="0"/>
      <point x="419" y="-3"/>
      <point x="435" y="-5" type="curve"/>
      <point x="446" y="-4"/>
      <point x="459" y="0"/>
      <point x="467" y="2" type="curve"/>
      <point x="469" y="2"/>
      <point x="471" y="1"/>
      <point x="473" y="2" type="curve"/>
      <point x="473" y="2"/>
      <point x="477" y="5"/>
      <point x="478" y="5" type="curve" smooth="yes"/>
      <point x="500" y="10" type="line" smooth="yes"/>
      <point x="507" y="12"/>
      <point x="514" y="14"/>
      <point x="522" y="14" type="curve"/>
      <point x="541" y="27"/>
      <point x="564" y="35"/>
      <point x="582" y="49" type="curve"/>
      <point x="588" y="52"/>
      <point x="595" y="54"/>
      <point x="602" y="57" type="curve" smooth="yes"/>
      <point x="610" y="59"/>
      <point x="609" y="70"/>
      <point x="621" y="68" type="curve"/>
      <point x="627" y="69"/>
      <point x="626" y="62"/>
      <point x="629" y="58" type="curve" smooth="yes"/>
      <point x="637" y="49"/>
      <point x="650" y="44"/>
      <point x="654" y="32" type="curve"/>
      <point x="667" y="27"/>
      <point x="673" y="15"/>
      <point x="687" y="11" type="curve" smooth="yes"/>
      <point x="693" y="9"/>
      <point x="703" y="10"/>
      <point x="711" y="10" type="curve"/>
      <point x="720" y="13"/>
      <point x="736" y="11"/>
      <point x="738" y="23" type="curve"/>
      <point x="742" y="29"/>
      <point x="730" y="34"/>
      <point x="728" y="39" type="curve"/>
      <point x="723" y="43"/>
      <point x="718" y="50"/>
      <point x="713" y="54" type="curve"/>
      <point x="692" y="76" type="line"/>
      <point x="684" y="84" type="line" smooth="yes"/>
      <point x="683" y="85"/>
      <point x="681" y="84"/>
      <point x="679" y="85" type="curve"/>
      <point x="679" y="86"/>
      <point x="678" y="88"/>
      <point x="678" y="88" type="curve"/>
      <point x="675" y="92"/>
      <point x="674" y="96"/>
      <point x="670" y="98" type="curve"/>
      <point x="666" y="104"/>
      <point x="659" y="106"/>
      <point x="657" y="115" type="curve"/>
      <point x="662" y="122"/>
      <point x="669" y="125"/>
      <point x="676" y="129" type="curve"/>
      <point x="682" y="141"/>
      <point x="695" y="148"/>
      <point x="699" y="161" type="curve"/>
      <point x="708" y="167"/>
      <point x="714" y="176"/>
      <point x="719" y="186" type="curve" smooth="yes"/>
      <point x="722" y="192"/>
      <point x="719" y="202"/>
      <point x="721" y="205" type="curve" smooth="yes"/>
      <point x="728" y="217"/>
      <point x="738" y="228"/>
      <point x="744" y="241" type="curve"/>
      <point x="748" y="260"/>
      <point x="754" y="277"/>
      <point x="754" y="301" type="curve"/>
      <point x="759" y="314"/>
      <point x="759" y="331"/>
      <point x="759" y="350" type="curve"/>
      <point x="755" y="359"/>
      <point x="756" y="374"/>
      <point x="752" y="384" type="curve"/>
      <point x="754" y="411"/>
      <point x="746" y="425"/>
      <point x="746" y="452" type="curve"/>
      <point x="743" y="458"/>
      <point x="739" y="464"/>
      <point x="739" y="473" type="curve"/>
      <point x="737" y="481"/>
      <point x="731" y="485"/>
      <point x="732" y="496" type="curve"/>
      <point x="724" y="508"/>
      <point x="717" y="523"/>
      <point x="713" y="539" type="curve"/>
      <point x="709" y="545"/>
      <point x="703" y="548"/>
      <point x="699" y="553" type="curve"/>
      <point x="698" y="569"/>
      <point x="683" y="572"/>
      <point x="680" y="587" type="curve"/>
      <point x="676" y="591"/>
      <point x="669" y="591"/>
      <point x="666" y="596" type="curve" smooth="yes"/>
      <point x="663" y="600"/>
      <point x="662" y="607"/>
      <point x="660" y="612" type="curve"/>
      <point x="646" y="621"/>
      <point x="638" y="636"/>
      <point x="619" y="640" type="curve"/>
      <point x="613" y="651"/>
      <point x="604" y="655"/>
      <point x="594" y="661" type="curve"/>
      <point x="589" y="663"/>
      <point x="585" y="667"/>
      <point x="579" y="667" type="curve"/>
      <point x="576" y="670"/>
      <point x="574" y="675"/>
      <point x="571" y="680" type="curve"/>
      <point x="562" y="680"/>
      <point x="555" y="684"/>
      <point x="549" y="689" type="curve"/>
      <point x="524" y="687"/>
      <point x="512" y="699"/>
      <point x="490" y="700" type="curve"/>
      <point x="484" y="702"/>
      <point x="481" y="706"/>
      <point x="474" y="706" type="curve" smooth="yes"/>
      <point x="462" y="707"/>
      <point x="451" y="708"/>
      <point x="436" y="708" type="curve"/>
      <point x="431" y="710"/>
      <point x="428" y="714"/>
      <point x="427" y="716" type="curve"/>
      <point x="415" y="712"/>
      <point x="401" y="713"/>
      <point x="395" y="719" type="curve"/>
      <point x="387" y="714"/>
      <point x="378" y="713"/>
      <point x="370" y="710" type="curve"/>
      <point x="352" y="710"/>
      <point x="337" y="706"/>
      <point x="322" y="702" type="curve"/>
      <point x="304" y="702"/>
      <point x="293" y="693"/>
      <point x="277" y="691" type="curve"/>
      <point x="272" y="685"/>
      <point x="265" y="686"/>
      <point x="259" y="683" type="curve" smooth="yes"/>
      <point x="241" y="675"/>
      <point x="226" y="663"/>
      <point x="207" y="656" type="curve"/>
    </contour>
    <contour>
      <point x="112" y="269" type="line"/>
      <point x="108" y="280"/>
      <point x="108" y="295"/>
      <point x="103" y="305" type="curve"/>
      <point x="104" y="317"/>
      <point x="102" y="325"/>
      <point x="98" y="332" type="curve"/>
      <point x="100" y="342"/>
      <point x="97" y="350"/>
      <point x="97" y="359" type="curve" smooth="yes"/>
      <point x="97" y="360"/>
      <point x="98" y="362"/>
      <point x="98" y="365" type="curve" smooth="yes"/>
      <point x="98" y="373"/>
      <point x="97" y="385"/>
      <point x="100" y="395" type="curve"/>
      <point x="100" y="397"/>
      <point x="103" y="399"/>
      <point x="103" y="400" type="curve" smooth="yes"/>
      <point x="103" y="402"/>
      <point x="102" y="404"/>
      <point x="103" y="406" type="curve"/>
      <point x="109" y="428" type="line"/>
      <point x="115" y="443"/>
      <point x="122" y="457"/>
      <point x="124" y="472" type="curve"/>
      <point x="132" y="481"/>
      <point x="136" y="493"/>
      <point x="140" y="505" type="curve"/>
      <point x="149" y="515"/>
      <point x="158" y="527"/>
      <point x="165" y="541" type="curve"/>
      <point x="179" y="554"/>
      <point x="190" y="569"/>
      <point x="206" y="581" type="curve"/>
      <point x="212" y="588"/>
      <point x="223" y="591"/>
      <point x="228" y="600" type="curve"/>
      <point x="236" y="604"/>
      <point x="245" y="609"/>
      <point x="250" y="617" type="curve"/>
      <point x="266" y="621"/>
      <point x="277" y="629"/>
      <point x="289" y="636" type="curve"/>
      <point x="295" y="635"/>
      <point x="297" y="639"/>
      <point x="304" y="637" type="curve"/>
      <point x="310" y="640"/>
      <point x="313" y="646"/>
      <point x="321" y="647" type="curve" smooth="yes"/>
      <point x="325" y="648"/>
      <point x="331" y="649"/>
      <point x="337" y="648" type="curve"/>
      <point x="343" y="651"/>
      <point x="350" y="654"/>
      <point x="357" y="656" type="curve"/>
      <point x="371" y="655"/>
      <point x="382" y="659"/>
      <point x="393" y="656" type="curve"/>
      <point x="406" y="659" type="line"/>
      <point x="446" y="656"/>
      <point x="484" y="644"/>
      <point x="521" y="635" type="curve"/>
      <point x="533" y="623"/>
      <point x="555" y="620"/>
      <point x="567" y="607" type="curve"/>
      <point x="579" y="604"/>
      <point x="588" y="597"/>
      <point x="597" y="590" type="curve"/>
      <point x="604" y="582"/>
      <point x="612" y="575"/>
      <point x="622" y="569" type="curve"/>
      <point x="630" y="553"/>
      <point x="645" y="543"/>
      <point x="653" y="527" type="curve"/>
      <point x="664" y="518"/>
      <point x="667" y="503"/>
      <point x="676" y="494" type="curve"/>
      <point x="678" y="490"/>
      <point x="677" y="484"/>
      <point x="682" y="482" type="curve"/>
      <point x="682" y="467"/>
      <point x="689" y="458"/>
      <point x="694" y="448" type="curve" smooth="yes"/>
      <point x="696" y="444"/>
      <point x="696" y="439"/>
      <point x="696" y="434" type="curve"/>
      <point x="701" y="422"/>
      <point x="701" y="403"/>
      <point x="705" y="389" type="curve"/>
      <point x="705" y="376"/>
      <point x="706" y="363"/>
      <point x="708" y="352" type="curve"/>
      <point x="704" y="326"/>
      <point x="710" y="291"/>
      <point x="697" y="274" type="curve"/>
      <point x="697" y="269"/>
      <point x="698" y="263"/>
      <point x="696" y="260" type="curve" smooth="yes"/>
      <point x="686" y="240"/>
      <point x="679" y="218"/>
      <point x="667" y="200" type="curve" smooth="yes"/>
      <point x="656" y="182"/>
      <point x="649" y="161"/>
      <point x="629" y="151" type="curve"/>
      <point x="606" y="156"/>
      <point x="597" y="175"/>
      <point x="581" y="186" type="curve"/>
      <point x="578" y="190"/>
      <point x="577" y="196"/>
      <point x="574" y="200" type="curve"/>
      <point x="569" y="204"/>
      <point x="563" y="207"/>
      <point x="557" y="210" type="curve"/>
      <point x="550" y="218"/>
      <point x="543" y="228"/>
      <point x="533" y="233" type="curve"/>
      <point x="527" y="243"/>
      <point x="521" y="251"/>
      <point x="511" y="257" type="curve"/>
      <point x="509" y="265"/>
      <point x="502" y="268"/>
      <point x="500" y="276" type="curve"/>
      <point x="491" y="281"/>
      <point x="485" y="288"/>
      <point x="478" y="295" type="curve"/>
      <point x="465" y="296"/>
      <point x="457" y="292"/>
      <point x="450" y="298" type="curve"/>
      <point x="443" y="297"/>
      <point x="440" y="293"/>
      <point x="434" y="292" type="curve"/>
      <point x="425" y="295"/>
      <point x="421" y="292"/>
      <point x="418" y="287" type="curve"/>
      <point x="418" y="270"/>
      <point x="434" y="266"/>
      <point x="435" y="251" type="curve"/>
      <point x="441" y="250"/>
      <point x="445" y="248"/>
      <point x="450" y="246" type="curve"/>
      <point x="453" y="237"/>
      <point x="460" y="231"/>
      <point x="467" y="226" type="curve" smooth="yes"/>
      <point x="474" y="220"/>
      <point x="478" y="212"/>
      <point x="488" y="210" type="curve"/>
      <point x="490" y="206"/>
      <point x="494" y="202"/>
      <point x="495" y="197" type="curve"/>
      <point x="504" y="194"/>
      <point x="506" y="185"/>
      <point x="516" y="183" type="curve"/>
      <point x="519" y="175"/>
      <point x="526" y="170"/>
      <point x="532" y="164" type="curve"/>
      <point x="538" y="165"/>
      <point x="536" y="157"/>
      <point x="541" y="156" type="curve" smooth="yes"/>
      <point x="545" y="155"/>
      <point x="546" y="150"/>
      <point x="551" y="148" type="curve"/>
      <point x="556" y="142"/>
      <point x="561" y="138"/>
      <point x="566" y="131" type="curve"/>
      <point x="572" y="126"/>
      <point x="581" y="124"/>
      <point x="583" y="115" type="curve"/>
      <point x="579" y="98"/>
      <point x="563" y="94"/>
      <point x="549" y="87" type="curve" smooth="yes"/>
      <point x="536" y="79"/>
      <point x="519" y="74"/>
      <point x="508" y="65" type="curve"/>
      <point x="494" y="65"/>
      <point x="487" y="58"/>
      <point x="476" y="55" type="curve"/>
      <point x="447" y="54"/>
      <point x="415" y="58"/>
      <point x="389" y="53" type="curve"/>
      <point x="381" y="55"/>
      <point x="371" y="54"/>
      <point x="364" y="57" type="curve"/>
      <point x="344" y="56"/>
      <point x="327" y="59"/>
      <point x="311" y="62" type="curve"/>
      <point x="299" y="71"/>
      <point x="283" y="76"/>
      <point x="266" y="79" type="curve"/>
      <point x="255" y="90"/>
      <point x="240" y="97"/>
      <point x="229" y="108" type="curve"/>
      <point x="222" y="109"/>
      <point x="216" y="111"/>
      <point x="211" y="114" type="curve"/>
      <point x="203" y="115"/>
      <point x="204" y="124"/>
      <point x="199" y="128" type="curve"/>
      <point x="192" y="131"/>
      <point x="187" y="135"/>
      <point x="181" y="138" type="curve"/>
      <point x="177" y="145"/>
      <point x="172" y="154"/>
      <point x="164" y="160" type="curve"/>
      <point x="163" y="172"/>
      <point x="154" y="177"/>
      <point x="149" y="185" type="curve"/>
      <point x="148" y="192"/>
      <point x="145" y="200"/>
      <point x="142" y="206" type="curve"/>
      <point x="141" y="213"/>
      <point x="134" y="215"/>
      <point x="131" y="220" type="curve"/>
      <point x="128" y="231"/>
      <point x="124" y="240"/>
      <point x="122" y="252" type="curve"/>
    </contour>
    <contour>
      <point x="407" y="0" type="move" name="bottom"/>
    </contour>
    <contour>
      <point x="407" y="695" type="move" name="top"/>
    </contour>
  </outline>
</glyph>
<glyph name="W" format="1">
  <advance width="1026"/>
  <unicode hex="0057"/>
  <outline>
    <contour>
      <point x="880" y="492" type="line"/>
      <point x="873" y="481"/>
      <point x="869" y="469"/>
      <point x="862" y="458" type="curve"/>
      <point x="864" y="448"/>
      <point x="860" y="443"/>
      <point x="861" y="433" type="curve"/>
      <point x="856" y="426"/>
      <point x="854" y="415"/>
      <point x="851" y="403" type="curve"/>
      <point x="847" y="399"/>
      <point x="844" y="394"/>
      <point x="841" y="389" type="curve"/>
      <point x="840" y="374"/>
      <point x="833" y="365"/>
      <point x="830" y="351" type="curve"/>
      <point x="826" y="346"/>
      <point x="827" y="338"/>
      <point x="824" y="332" type="curve" smooth="yes"/>
      <point x="821" y="326"/>
      <point x="817" y="322"/>
      <point x="815" y="317" type="curve"/>
      <point x="816" y="310"/>
      <point x="812" y="309"/>
      <point x="811" y="304" type="curve"/>
      <point x="811" y="290" type="line"/>
      <point x="804" y="277"/>
      <point x="803" y="258"/>
      <point x="794" y="247" type="curve"/>
      <point x="794" y="235" type="line"/>
      <point x="783" y="219"/>
      <point x="783" y="192"/>
      <point x="772" y="176" type="curve"/>
      <point x="771" y="162"/>
      <point x="768" y="149"/>
      <point x="763" y="140" type="curve"/>
      <point x="762" y="133"/>
      <point x="760" y="124"/>
      <point x="757" y="117" type="curve" smooth="yes"/>
      <point x="754" y="111"/>
      <point x="758" y="99"/>
      <point x="748" y="99" type="curve"/>
      <point x="742" y="101"/>
      <point x="746" y="112"/>
      <point x="745" y="118" type="curve"/>
      <point x="736" y="133"/>
      <point x="729" y="152"/>
      <point x="729" y="178" type="curve"/>
      <point x="726" y="186"/>
      <point x="721" y="192"/>
      <point x="717" y="199" type="curve"/>
      <point x="715" y="226"/>
      <point x="692" y="240"/>
      <point x="696" y="270" type="curve"/>
      <point x="689" y="283"/>
      <point x="681" y="295"/>
      <point x="673" y="308" type="curve"/>
      <point x="672" y="318"/>
      <point x="665" y="328"/>
      <point x="662" y="338" type="curve" smooth="yes"/>
      <point x="658" y="348"/>
      <point x="659" y="360"/>
      <point x="652" y="369" type="curve"/>
      <point x="646" y="390"/>
      <point x="640" y="410"/>
      <point x="640" y="437" type="curve"/>
      <point x="636" y="443"/>
      <point x="628" y="445"/>
      <point x="624" y="451" type="curve"/>
      <point x="622" y="462"/>
      <point x="614" y="468"/>
      <point x="610" y="478" type="curve"/>
      <point x="608" y="501"/>
      <point x="600" y="519"/>
      <point x="590" y="535" type="curve"/>
      <point x="590" y="545"/>
      <point x="583" y="549"/>
      <point x="580" y="557" type="curve"/>
      <point x="576" y="580"/>
      <point x="561" y="592"/>
      <point x="560" y="618" type="curve"/>
      <point x="551" y="632"/>
      <point x="546" y="649"/>
      <point x="542" y="667" type="curve"/>
      <point x="537" y="673"/>
      <point x="534" y="682"/>
      <point x="531" y="691" type="curve"/>
      <point x="523" y="694"/>
      <point x="526" y="705"/>
      <point x="514" y="705" type="curve" smooth="yes"/>
      <point x="506" y="706"/>
      <point x="504" y="700"/>
      <point x="499" y="699" type="curve"/>
      <point x="495" y="691"/>
      <point x="493" y="685"/>
      <point x="493" y="675" type="curve"/>
      <point x="488" y="665"/>
      <point x="486" y="650"/>
      <point x="481" y="640" type="curve"/>
      <point x="474" y="633"/>
      <point x="474" y="618"/>
      <point x="467" y="609" type="curve"/>
      <point x="461" y="583"/>
      <point x="447" y="565"/>
      <point x="443" y="537" type="curve"/>
      <point x="436" y="530"/>
      <point x="434" y="518"/>
      <point x="427" y="511" type="curve"/>
      <point x="428" y="478"/>
      <point x="408" y="466"/>
      <point x="404" y="439" type="curve"/>
      <point x="401" y="434"/>
      <point x="397" y="432"/>
      <point x="396" y="426" type="curve"/>
      <point x="397" y="419"/>
      <point x="393" y="416"/>
      <point x="392" y="409" type="curve"/>
      <point x="389" y="402"/>
      <point x="385" y="396"/>
      <point x="383" y="390" type="curve" smooth="yes"/>
      <point x="381" y="382" type="line"/>
      <point x="377" y="374"/>
      <point x="370" y="367"/>
      <point x="365" y="360" type="curve"/>
      <point x="363" y="335"/>
      <point x="354" y="317"/>
      <point x="350" y="295" type="curve"/>
      <point x="338" y="278"/>
      <point x="334" y="253"/>
      <point x="321" y="237" type="curve"/>
      <point x="322" y="230"/>
      <point x="319" y="228"/>
      <point x="320" y="221" type="curve"/>
      <point x="313" y="214"/>
      <point x="312" y="203"/>
      <point x="309" y="193" type="curve" smooth="yes"/>
      <point x="305" y="183"/>
      <point x="300" y="173"/>
      <point x="299" y="161" type="curve"/>
      <point x="294" y="154"/>
      <point x="293" y="141"/>
      <point x="290" y="131" type="curve"/>
      <point x="283" y="122"/>
      <point x="286" y="106"/>
      <point x="274" y="105" type="curve"/>
      <point x="269" y="108"/>
      <point x="268" y="116"/>
      <point x="268" y="124" type="curve"/>
      <point x="266" y="128"/>
      <point x="264" y="135"/>
      <point x="264" y="144" type="curve"/>
      <point x="261" y="147"/>
      <point x="258" y="151"/>
      <point x="257" y="155" type="curve"/>
      <point x="255" y="176"/>
      <point x="246" y="189"/>
      <point x="241" y="206" type="curve"/>
      <point x="240" y="222"/>
      <point x="238" y="247"/>
      <point x="231" y="262" type="curve" smooth="yes"/>
      <point x="223" y="278"/>
      <point x="217" y="295"/>
      <point x="209" y="311" type="curve" smooth="yes"/>
      <point x="207" y="314"/>
      <point x="208" y="322"/>
      <point x="208" y="327" type="curve"/>
      <point x="204" y="332"/>
      <point x="201" y="338"/>
      <point x="198" y="344" type="curve"/>
      <point x="197" y="362"/>
      <point x="187" y="374"/>
      <point x="186" y="392" type="curve"/>
      <point x="179" y="401"/>
      <point x="178" y="414"/>
      <point x="172" y="423" type="curve"/>
      <point x="171" y="435"/>
      <point x="167" y="441"/>
      <point x="167" y="453" type="curve"/>
      <point x="165" y="460"/>
      <point x="161" y="465"/>
      <point x="158" y="471" type="curve"/>
      <point x="158" y="482" type="line"/>
      <point x="151" y="488" type="line"/>
      <point x="147" y="496" type="line" smooth="yes"/>
      <point x="141" y="508"/>
      <point x="136" y="523"/>
      <point x="136" y="540" type="curve"/>
      <point x="134" y="545"/>
      <point x="130" y="548"/>
      <point x="129" y="554" type="curve"/>
      <point x="130" y="564"/>
      <point x="127" y="568"/>
      <point x="128" y="578" type="curve"/>
      <point x="123" y="585"/>
      <point x="119" y="597"/>
      <point x="115" y="605" type="curve"/>
      <point x="112" y="609" type="line"/>
      <point x="106" y="621"/>
      <point x="103" y="633"/>
      <point x="106" y="647" type="curve"/>
      <point x="102" y="658"/>
      <point x="92" y="664"/>
      <point x="88" y="676" type="curve" smooth="yes"/>
      <point x="85" y="682"/>
      <point x="89" y="690"/>
      <point x="87" y="695" type="curve"/>
      <point x="77" y="697"/>
      <point x="68" y="699"/>
      <point x="54" y="698" type="curve"/>
      <point x="41" y="691"/>
      <point x="27" y="691"/>
      <point x="25" y="677" type="curve" smooth="yes"/>
      <point x="24" y="669"/>
      <point x="30" y="665"/>
      <point x="32" y="662" type="curve"/>
      <point x="34" y="656"/>
      <point x="37" y="650"/>
      <point x="39" y="646" type="curve" smooth="yes"/>
      <point x="43" y="634"/>
      <point x="48" y="624"/>
      <point x="52" y="613" type="curve"/>
      <point x="51" y="605"/>
      <point x="51" y="602"/>
      <point x="52" y="594" type="curve"/>
      <point x="57" y="586"/>
      <point x="63" y="578"/>
      <point x="65" y="567" type="curve"/>
      <point x="70" y="559"/>
      <point x="74" y="550"/>
      <point x="74" y="537" type="curve"/>
      <point x="80" y="527"/>
      <point x="84" y="516"/>
      <point x="87" y="502" type="curve"/>
      <point x="91" y="491"/>
      <point x="96" y="478"/>
      <point x="96" y="468" type="curve"/>
      <point x="106" y="459"/>
      <point x="110" y="444"/>
      <point x="110" y="425" type="curve"/>
      <point x="115" y="418"/>
      <point x="117" y="411"/>
      <point x="121" y="403" type="curve"/>
      <point x="127" y="381"/>
      <point x="135" y="360"/>
      <point x="143" y="340" type="curve" smooth="yes"/>
      <point x="144" y="336"/>
      <point x="145" y="333"/>
      <point x="145" y="327" type="curve"/>
      <point x="153" y="314"/>
      <point x="157" y="296"/>
      <point x="164" y="280" type="curve"/>
      <point x="163" y="271"/>
      <point x="167" y="265"/>
      <point x="167" y="256" type="curve"/>
      <point x="174" y="244"/>
      <point x="177" y="227"/>
      <point x="186" y="215" type="curve"/>
      <point x="186" y="205"/>
      <point x="191" y="199"/>
      <point x="190" y="187" type="curve"/>
      <point x="198" y="177"/>
      <point x="203" y="162"/>
      <point x="206" y="152" type="curve" smooth="yes"/>
      <point x="207" y="150"/>
      <point x="207" y="147"/>
      <point x="208" y="146" type="curve"/>
      <point x="209" y="140"/>
      <point x="208" y="136"/>
      <point x="209" y="131" type="curve"/>
      <point x="210" y="129"/>
      <point x="212" y="125"/>
      <point x="212" y="122" type="curve"/>
      <point x="214" y="118"/>
      <point x="216" y="115"/>
      <point x="217" y="111" type="curve" smooth="yes"/>
      <point x="218" y="105"/>
      <point x="219" y="99"/>
      <point x="218" y="92" type="curve"/>
      <point x="224" y="89"/>
      <point x="222" y="79"/>
      <point x="228" y="76" type="curve"/>
      <point x="236" y="57" type="line"/>
      <point x="239" y="52"/>
      <point x="241" y="45"/>
      <point x="244" y="38" type="curve" smooth="yes"/>
      <point x="245" y="35"/>
      <point x="245" y="32"/>
      <point x="247" y="29" type="curve"/>
      <point x="248" y="26"/>
      <point x="251" y="23"/>
      <point x="251" y="20" type="curve" smooth="yes"/>
      <point x="253" y="5"/>
      <point x="259" y="-6"/>
      <point x="274" y="-9" type="curve"/>
      <point x="285" y="-5"/>
      <point x="286" y="8"/>
      <point x="296" y="13" type="curve"/>
      <point x="296" y="21"/>
      <point x="301" y="23"/>
      <point x="302" y="31" type="curve"/>
      <point x="304" y="36"/>
      <point x="311" y="37"/>
      <point x="311" y="45" type="curve" smooth="yes"/>
      <point x="313" y="63"/>
      <point x="323" y="74"/>
      <point x="324" y="94" type="curve"/>
      <point x="330" y="103"/>
      <point x="334" y="115"/>
      <point x="341" y="125" type="curve"/>
      <point x="341" y="141"/>
      <point x="352" y="155"/>
      <point x="353" y="174" type="curve"/>
      <point x="358" y="180"/>
      <point x="359" y="190"/>
      <point x="365" y="194" type="curve"/>
      <point x="367" y="207"/>
      <point x="372" y="215"/>
      <point x="378" y="223" type="curve"/>
      <point x="380" y="239"/>
      <point x="387" y="250"/>
      <point x="392" y="262" type="curve"/>
      <point x="398" y="283"/>
      <point x="404" y="304"/>
      <point x="413" y="322" type="curve"/>
      <point x="415" y="332"/>
      <point x="421" y="340"/>
      <point x="425" y="349" type="curve" smooth="yes"/>
      <point x="429" y="358"/>
      <point x="431" y="370"/>
      <point x="438" y="377" type="curve"/>
      <point x="437" y="390"/>
      <point x="445" y="394"/>
      <point x="444" y="407" type="curve"/>
      <point x="454" y="417" type="line"/>
      <point x="454" y="422"/>
      <point x="453" y="428"/>
      <point x="456" y="431" type="curve"/>
      <point x="459" y="439"/>
      <point x="466" y="442"/>
      <point x="470" y="448" type="curve"/>
      <point x="469" y="456"/>
      <point x="471" y="460"/>
      <point x="471" y="467" type="curve"/>
      <point x="483" y="483"/>
      <point x="488" y="506"/>
      <point x="490" y="533" type="curve"/>
      <point x="498" y="541"/>
      <point x="499" y="557"/>
      <point x="506" y="566" type="curve"/>
      <point x="506" y="583" type="line"/>
      <point x="509" y="587"/>
      <point x="507" y="595"/>
      <point x="514" y="594" type="curve"/>
      <point x="520" y="591"/>
      <point x="520" y="581"/>
      <point x="522" y="572" type="curve"/>
      <point x="525" y="569"/>
      <point x="527" y="564"/>
      <point x="530" y="560" type="curve"/>
      <point x="530" y="550" type="line"/>
      <point x="536" y="543"/>
      <point x="538" y="532"/>
      <point x="542" y="524" type="curve"/>
      <point x="543" y="518"/>
      <point x="545" y="513"/>
      <point x="544" y="506" type="curve"/>
      <point x="550" y="499"/>
      <point x="555" y="491"/>
      <point x="553" y="476" type="curve"/>
      <point x="569" y="454"/>
      <point x="571" y="419"/>
      <point x="584" y="397" type="curve"/>
      <point x="585" y="394"/>
      <point x="587" y="390"/>
      <point x="586" y="385" type="curve"/>
      <point x="594" y="375"/>
      <point x="597" y="363"/>
      <point x="602" y="352" type="curve" smooth="yes"/>
      <point x="608" y="338" type="line" smooth="yes"/>
      <point x="611" y="330"/>
      <point x="613" y="322"/>
      <point x="616" y="315" type="curve" smooth="yes"/>
      <point x="617" y="313"/>
      <point x="620" y="312"/>
      <point x="621" y="309" type="curve" smooth="yes"/>
      <point x="622" y="307"/>
      <point x="621" y="304"/>
      <point x="622" y="301" type="curve" smooth="yes"/>
      <point x="625" y="294"/>
      <point x="628" y="286"/>
      <point x="630" y="279" type="curve" smooth="yes"/>
      <point x="634" y="269"/>
      <point x="639" y="259"/>
      <point x="640" y="248" type="curve"/>
      <point x="647" y="235"/>
      <point x="654" y="222"/>
      <point x="660" y="208" type="curve" smooth="yes"/>
      <point x="663" y="200"/>
      <point x="665" y="191"/>
      <point x="666" y="181" type="curve"/>
      <point x="681" y="158" type="line"/>
      <point x="679" y="143"/>
      <point x="688" y="140"/>
      <point x="687" y="126" type="curve"/>
      <point x="694" y="112"/>
      <point x="704" y="97"/>
      <point x="704" y="73" type="curve"/>
      <point x="711" y="64"/>
      <point x="717" y="55"/>
      <point x="723" y="44" type="curve"/>
      <point x="727" y="29"/>
      <point x="730" y="13"/>
      <point x="735" y="-1" type="curve"/>
      <point x="741" y="-4"/>
      <point x="749" y="-5"/>
      <point x="759" y="-5" type="curve"/>
      <point x="773" y="1"/>
      <point x="778" y="18"/>
      <point x="778" y="39" type="curve"/>
      <point x="792" y="54"/>
      <point x="793" y="81"/>
      <point x="805" y="97" type="curve"/>
      <point x="802" y="103"/>
      <point x="804" y="106"/>
      <point x="805" y="112" type="curve"/>
      <point x="811" y="122"/>
      <point x="819" y="130"/>
      <point x="818" y="146" type="curve"/>
      <point x="823" y="152"/>
      <point x="826" y="160"/>
      <point x="829" y="168" type="curve" smooth="yes"/>
      <point x="832" y="176"/>
      <point x="839" y="182"/>
      <point x="837" y="195" type="curve"/>
      <point x="843" y="199"/>
      <point x="842" y="208"/>
      <point x="845" y="214" type="curve"/>
      <point x="848" y="226"/>
      <point x="854" y="237"/>
      <point x="859" y="247" type="curve"/>
      <point x="859" y="268"/>
      <point x="866" y="281"/>
      <point x="870" y="298" type="curve"/>
      <point x="872" y="303"/>
      <point x="877" y="306"/>
      <point x="879" y="312" type="curve"/>
      <point x="880" y="324"/>
      <point x="886" y="330"/>
      <point x="886" y="343" type="curve"/>
      <point x="899" y="365"/>
      <point x="904" y="395"/>
      <point x="919" y="417" type="curve"/>
      <point x="917" y="429"/>
      <point x="922" y="434"/>
      <point x="922" y="443" type="curve"/>
      <point x="926" y="450"/>
      <point x="931" y="456"/>
      <point x="932" y="466" type="curve" smooth="yes"/>
      <point x="934" y="475"/>
      <point x="941" y="479"/>
      <point x="940" y="492" type="curve"/>
      <point x="945" y="496"/>
      <point x="946" y="504"/>
      <point x="951" y="509" type="curve"/>
      <point x="953" y="528"/>
      <point x="960" y="543"/>
      <point x="965" y="561" type="curve"/>
      <point x="969" y="568"/>
      <point x="971" y="577"/>
      <point x="973" y="586" type="curve"/>
      <point x="978" y="591"/>
      <point x="979" y="602"/>
      <point x="981" y="611" type="curve"/>
      <point x="987" y="622"/>
      <point x="992" y="634"/>
      <point x="998" y="644" type="curve"/>
      <point x="997" y="658"/>
      <point x="1001" y="666"/>
      <point x="1001" y="678" type="curve"/>
      <point x="998" y="684"/>
      <point x="994" y="689"/>
      <point x="988" y="693" type="curve"/>
      <point x="972" y="697"/>
      <point x="950" y="695"/>
      <point x="940" y="685" type="curve"/>
      <point x="933" y="672"/>
      <point x="935" y="659"/>
      <point x="932" y="643" type="curve"/>
      <point x="926" y="633"/>
      <point x="919" y="625"/>
      <point x="921" y="608" type="curve"/>
      <point x="918" y="602"/>
      <point x="913" y="598"/>
      <point x="911" y="591" type="curve" smooth="yes"/>
      <point x="908" y="580"/>
      <point x="905" y="568"/>
      <point x="899" y="559" type="curve"/>
      <point x="900" y="545"/>
      <point x="891" y="542"/>
      <point x="892" y="528" type="curve"/>
      <point x="888" y="522"/>
      <point x="882" y="518"/>
      <point x="880" y="510" type="curve"/>
    </contour>
    <contour>
      <point x="508" y="0" type="move" name="bottom"/>
    </contour>
    <contour>
      <point x="508" y="695" type="move" name="top"/>
    </contour>
  </outline>
</glyph>
<glyph name="asciicircum" format="1">
  <advance width="500"/>
  <unicode hex="005E"/>
  <outline>
    <contour>
      <point x="90" y="391" type="curve" smooth="yes"/>
      <point x="96" y="399" type="line"/>
      <point x="109" y="421" type="line"/>
      <point x="118" y="434" type="line"/>
      <point x="123" y="441" type="line"/>
      <point x="123" y="440"/>
      <point x="130" y="452"/>
      <point x="134" y="460" type="curve"/>
      <point x="134" y="459"/>
      <point x="142" y="470"/>
      <point x="148" y="480" type="curve"/>
      <point x="149" y="480" type="line"/>
      <point x="149" y="480"/>
      <point x="151" y="483"/>
      <point x="156" y="493" type="curve" smooth="yes"/>
      <point x="160" y="499" type="line"/>
      <point x="161" y="499" type="line"/>
      <point x="169" y="511" type="line"/>
      <point x="174" y="519" type="line"/>
      <point x="174" y="518"/>
      <point x="181" y="529"/>
      <point x="186" y="538" type="curve" smooth="yes"/>
      <point x="200" y="559" type="line"/>
      <point x="200" y="558"/>
      <point x="207" y="569"/>
      <point x="211" y="577" type="curve"/>
      <point x="211" y="576"/>
      <point x="219" y="587"/>
      <point x="225" y="597" type="curve"/>
      <point x="226" y="597" type="line"/>
      <point x="226" y="597"/>
      <point x="228" y="600"/>
      <point x="233" y="610" type="curve" smooth="yes"/>
      <point x="237" y="616" type="line"/>
      <point x="238" y="618" type="line"/>
      <point x="248" y="635" type="line"/>
      <point x="250" y="636" type="line"/>
      <point x="255" y="626" type="line" smooth="yes"/>
      <point x="259" y="619"/>
      <point x="263" y="613"/>
      <point x="270" y="604" type="curve" smooth="yes"/>
      <point x="276" y="597" type="line"/>
      <point x="276" y="596" type="line" smooth="yes"/>
      <point x="276" y="594"/>
      <point x="279" y="590"/>
      <point x="287" y="580" type="curve" smooth="yes"/>
      <point x="290" y="576" type="line"/>
      <point x="296" y="566" type="line" smooth="yes"/>
      <point x="300" y="558"/>
      <point x="303" y="552"/>
      <point x="310" y="543" type="curve" smooth="yes"/>
      <point x="317" y="535" type="line"/>
      <point x="331" y="511" type="line"/>
      <point x="345" y="493" type="line"/>
      <point x="358" y="469" type="line" smooth="yes"/>
      <point x="362" y="460"/>
      <point x="363" y="456"/>
      <point x="363" y="454" type="curve"/>
      <point x="368" y="452" type="line"/>
      <point x="367" y="452" type="line" smooth="yes"/>
      <point x="366" y="452"/>
      <point x="375" y="441"/>
      <point x="386" y="429" type="curve"/>
      <point x="391" y="421" type="line" smooth="yes"/>
      <point x="394" y="415"/>
      <point x="397" y="410"/>
      <point x="404" y="402" type="curve"/>
      <point x="406" y="395" type="line" smooth="yes"/>
      <point x="407" y="390"/>
      <point x="410" y="386"/>
      <point x="417" y="379" type="curve"/>
      <point x="441" y="379"/>
      <point x="449" y="377"/>
      <point x="454" y="387" type="curve"/>
      <point x="455" y="391"/>
      <point x="454" y="397"/>
      <point x="451" y="403" type="curve"/>
      <point x="436" y="423" type="line"/>
      <point x="424" y="443" type="line"/>
      <point x="425" y="443"/>
      <point x="423" y="446"/>
      <point x="416" y="455" type="curve" smooth="yes"/>
      <point x="410" y="463" type="line"/>
      <point x="398" y="484" type="line"/>
      <point x="384" y="504" type="line"/>
      <point x="371" y="525" type="line"/>
      <point x="357" y="545" type="line"/>
      <point x="358" y="545"/>
      <point x="356" y="548"/>
      <point x="350" y="557" type="curve" smooth="yes"/>
      <point x="344" y="565" type="line"/>
      <point x="337" y="577" type="line"/>
      <point x="330" y="586" type="line"/>
      <point x="330" y="587" type="line"/>
      <point x="322" y="600" type="line"/>
      <point x="318" y="607" type="line"/>
      <point x="319" y="608"/>
      <point x="316" y="611"/>
      <point x="309" y="620" type="curve" smooth="yes"/>
      <point x="304" y="626" type="line"/>
      <point x="304" y="627" type="line"/>
      <point x="296" y="639" type="line"/>
      <point x="291" y="647" type="line"/>
      <point x="288" y="652" type="line" smooth="yes"/>
      <point x="280" y="662"/>
      <point x="272" y="667"/>
      <point x="259" y="668" type="curve"/>
      <point x="241" y="667" type="line"/>
      <point x="224" y="668" type="line"/>
      <point x="224" y="669"/>
      <point x="224" y="668"/>
      <point x="223" y="667" type="curve" smooth="yes"/>
      <point x="212" y="654" type="line"/>
      <point x="207" y="647" type="line"/>
      <point x="206" y="646" type="line" smooth="yes"/>
      <point x="204" y="644"/>
      <point x="202" y="640"/>
      <point x="198" y="630" type="curve" smooth="yes"/>
      <point x="196" y="626" type="line"/>
      <point x="191" y="621" type="line" smooth="yes"/>
      <point x="186" y="616"/>
      <point x="184" y="612"/>
      <point x="180" y="603" type="curve"/>
      <point x="180" y="604"/>
      <point x="178" y="601"/>
      <point x="173" y="591" type="curve" smooth="yes"/>
      <point x="170" y="586" type="line"/>
      <point x="162" y="575" type="line"/>
      <point x="154" y="562" type="line"/>
      <point x="154" y="563"/>
      <point x="152" y="560"/>
      <point x="146" y="551" type="curve" smooth="yes"/>
      <point x="143" y="545" type="line"/>
      <point x="132" y="532" type="line"/>
      <point x="127" y="525" type="line"/>
      <point x="127" y="526"/>
      <point x="126" y="524"/>
      <point x="123" y="518" type="curve" smooth="yes"/>
      <point x="108" y="492" type="line"/>
      <point x="108" y="493"/>
      <point x="107" y="491"/>
      <point x="103" y="485" type="curve" smooth="yes"/>
      <point x="94" y="471" type="line"/>
      <point x="90" y="463" type="line"/>
      <point x="77" y="444" type="line"/>
      <point x="64" y="423" type="line"/>
      <point x="53" y="408" type="line"/>
      <point x="47" y="399" type="line"/>
      <point x="47" y="400"/>
      <point x="46" y="398"/>
      <point x="42" y="391" type="curve" smooth="yes"/>
      <point x="39" y="386"/>
      <point x="42" y="382"/>
      <point x="49" y="381" type="curve" smooth="yes"/>
      <point x="57" y="379"/>
      <point x="63" y="380"/>
      <point x="72" y="381" type="curve" smooth="yes"/>
      <point x="80" y="382"/>
      <point x="85" y="384"/>
    </contour>
  </outline>
</glyph>
<glyph name="e" format="1">
  <advance width="459"/>
  <unicode hex="0065"/>
  <outline>
    <contour>
      <point x="423" y="298" type="line" smooth="yes"/>
      <point x="421" y="316"/>
      <point x="412" y="333"/>
      <point x="410" y="348" type="curve"/>
      <point x="405" y="355"/>
      <point x="399" y="362"/>
      <point x="396" y="372" type="curve"/>
      <point x="387" y="379"/>
      <point x="380" y="389"/>
      <point x="373" y="399" type="curve"/>
      <point x="358" y="407"/>
      <point x="349" y="419"/>
      <point x="338" y="430" type="curve"/>
      <point x="328" y="435"/>
      <point x="316" y="437"/>
      <point x="309" y="444" type="curve"/>
      <point x="277" y="451"/>
      <point x="244" y="455"/>
      <point x="209" y="455" type="curve"/>
      <point x="188" y="453"/>
      <point x="169" y="447"/>
      <point x="150" y="443" type="curve"/>
      <point x="144" y="435"/>
      <point x="133" y="432"/>
      <point x="123" y="427" type="curve"/>
      <point x="108" y="411"/>
      <point x="94" y="395"/>
      <point x="78" y="380" type="curve"/>
      <point x="73" y="368"/>
      <point x="66" y="359"/>
      <point x="60" y="348" type="curve"/>
      <point x="56" y="337"/>
      <point x="49" y="326"/>
      <point x="46" y="313" type="curve" smooth="yes"/>
      <point x="44" y="305"/>
      <point x="45" y="290"/>
      <point x="43" y="280" type="curve" smooth="yes"/>
      <point x="43" y="278"/>
      <point x="40" y="275"/>
      <point x="40" y="272" type="curve" smooth="yes"/>
      <point x="38" y="239" type="line" smooth="yes"/>
      <point x="37" y="229"/>
      <point x="35" y="219"/>
      <point x="35" y="209" type="curve" smooth="yes"/>
      <point x="35" y="194"/>
      <point x="40" y="178"/>
      <point x="40" y="164" type="curve"/>
      <point x="46" y="151"/>
      <point x="54" y="140"/>
      <point x="56" y="123" type="curve"/>
      <point x="60" y="118"/>
      <point x="64" y="114"/>
      <point x="67" y="109" type="curve"/>
      <point x="73" y="81"/>
      <point x="91" y="67"/>
      <point x="108" y="50" type="curve"/>
      <point x="119" y="47"/>
      <point x="126" y="39"/>
      <point x="138" y="36" type="curve"/>
      <point x="142" y="33"/>
      <point x="147" y="31"/>
      <point x="152" y="28" type="curve" smooth="yes"/>
      <point x="157" y="26"/>
      <point x="158" y="19"/>
      <point x="164" y="19" type="curve"/>
      <point x="191" y="8"/>
      <point x="236" y="15"/>
      <point x="268" y="11" type="curve"/>
      <point x="275" y="11"/>
      <point x="279" y="15"/>
      <point x="286" y="16" type="curve"/>
      <point x="317" y="14"/>
      <point x="334" y="27"/>
      <point x="355" y="36" type="curve"/>
      <point x="365" y="37"/>
      <point x="385" y="61"/>
      <point x="385" y="71" type="curve"/>
      <point x="391" y="85"/>
      <point x="405" y="92"/>
      <point x="414" y="104" type="curve"/>
      <point x="419" y="117"/>
      <point x="427" y="133"/>
      <point x="425" y="148" type="curve"/>
      <point x="416" y="157"/>
      <point x="404" y="162"/>
      <point x="388" y="164" type="curve"/>
      <point x="379" y="154"/>
      <point x="373" y="142"/>
      <point x="369" y="127" type="curve"/>
      <point x="361" y="119"/>
      <point x="354" y="108"/>
      <point x="347" y="98" type="curve"/>
      <point x="339" y="94"/>
      <point x="333" y="88"/>
      <point x="327" y="85" type="curve" smooth="yes"/>
      <point x="315" y="78"/>
      <point x="303" y="71"/>
      <point x="289" y="66" type="curve" smooth="yes"/>
      <point x="277" y="62"/>
      <point x="262" y="60"/>
      <point x="246" y="60" type="curve"/>
      <point x="236" y="63"/>
      <point x="224" y="63"/>
      <point x="210" y="63" type="curve"/>
      <point x="201" y="66"/>
      <point x="192" y="68"/>
      <point x="180" y="68" type="curve"/>
      <point x="165" y="75"/>
      <point x="151" y="84"/>
      <point x="138" y="93" type="curve"/>
      <point x="131" y="104"/>
      <point x="122" y="114"/>
      <point x="112" y="123" type="curve"/>
      <point x="111" y="129"/>
      <point x="110" y="134"/>
      <point x="108" y="138" type="curve" smooth="yes"/>
      <point x="104" y="145"/>
      <point x="96" y="150"/>
      <point x="94" y="157" type="curve"/>
      <point x="95" y="183"/>
      <point x="72" y="201"/>
      <point x="86" y="224" type="curve"/>
      <point x="106" y="226"/>
      <point x="126" y="220"/>
      <point x="147" y="220" type="curve"/>
      <point x="155" y="221"/>
      <point x="164" y="224"/>
      <point x="172" y="224" type="curve" smooth="yes"/>
      <point x="184" y="224"/>
      <point x="196" y="220"/>
      <point x="207" y="220" type="curve" smooth="yes"/>
      <point x="212" y="220"/>
      <point x="217" y="222"/>
      <point x="223" y="222" type="curve" smooth="yes"/>
      <point x="235" y="222"/>
      <point x="247" y="220"/>
      <point x="259" y="220" type="curve" smooth="yes"/>
      <point x="279" y="221"/>
      <point x="300" y="228"/>
      <point x="319" y="222" type="curve"/>
      <point x="327" y="227"/>
      <point x="336" y="224"/>
      <point x="346" y="224" type="curve" smooth="yes"/>
      <point x="372" y="224"/>
      <point x="399" y="224"/>
      <point x="425" y="225" type="curve"/>
      <point x="428" y="229"/>
      <point x="430" y="234"/>
      <point x="429" y="243" type="curve"/>
      <point x="426" y="244"/>
      <point x="430" y="253"/>
      <point x="426" y="254" type="curve"/>
      <point x="425" y="258"/>
      <point x="420" y="257"/>
      <point x="420" y="263" type="curve"/>
      <point x="427" y="269"/>
      <point x="423" y="277"/>
      <point x="423" y="285" type="curve" smooth="yes"/>
    </contour>
    <contour>
      <point x="370" y="276"/>
      <point x="369" y="269"/>
      <point x="365" y="266" type="curve"/>
      <point x="355" y="265"/>
      <point x="350" y="270"/>
      <point x="343" y="271" type="curve" smooth="yes"/>
      <point x="331" y="271"/>
      <point x="323" y="268"/>
      <point x="314" y="272" type="curve"/>
      <point x="302" y="268"/>
      <point x="292" y="271"/>
      <point x="276" y="269" type="curve" smooth="yes"/>
      <point x="270" y="268"/>
      <point x="269" y="272"/>
      <point x="264" y="272" type="curve" smooth="yes"/>
      <point x="249" y="271"/>
      <point x="233" y="271"/>
      <point x="221" y="266" type="curve"/>
      <point x="213" y="265"/>
      <point x="212" y="270"/>
      <point x="205" y="271" type="curve"/>
      <point x="192" y="267"/>
      <point x="173" y="269"/>
      <point x="160" y="265" type="curve"/>
      <point x="135" y="271"/>
      <point x="107" y="260"/>
      <point x="86" y="263" type="curve"/>
      <point x="82" y="267"/>
      <point x="87" y="272"/>
      <point x="87" y="277" type="curve"/>
      <point x="85" y="282"/>
      <point x="85" y="288"/>
      <point x="86" y="295" type="curve"/>
      <point x="91" y="306"/>
      <point x="94" y="321"/>
      <point x="103" y="329" type="curve"/>
      <point x="103" y="336"/>
      <point x="109" y="339"/>
      <point x="112" y="345" type="curve" smooth="yes"/>
      <point x="115" y="349"/>
      <point x="116" y="354"/>
      <point x="119" y="358" type="curve" smooth="yes"/>
      <point x="121" y="361"/>
      <point x="124" y="367"/>
      <point x="128" y="370" type="curve" smooth="yes"/>
      <point x="130" y="372"/>
      <point x="132" y="370"/>
      <point x="134" y="372" type="curve"/>
      <point x="140" y="375"/>
      <point x="146" y="387"/>
      <point x="153" y="391" type="curve"/>
      <point x="167" y="395"/>
      <point x="179" y="401"/>
      <point x="191" y="406" type="curve"/>
      <point x="208" y="407"/>
      <point x="222" y="409"/>
      <point x="235" y="413" type="curve"/>
      <point x="248" y="409"/>
      <point x="265" y="408"/>
      <point x="280" y="406" type="curve"/>
      <point x="293" y="398"/>
      <point x="309" y="393"/>
      <point x="324" y="386" type="curve"/>
      <point x="329" y="380"/>
      <point x="335" y="374"/>
      <point x="341" y="369" type="curve"/>
      <point x="343" y="358"/>
      <point x="350" y="351"/>
      <point x="357" y="343" type="curve" smooth="yes"/>
      <point x="358" y="342"/>
      <point x="357" y="340"/>
      <point x="358" y="339" type="curve" smooth="yes"/>
      <point x="360" y="337"/>
      <point x="366" y="335"/>
      <point x="368" y="331" type="curve"/>
      <point x="366" y="312"/>
      <point x="387" y="296"/>
      <point x="371" y="282" type="curve"/>
    </contour>
    <contour>
      <point x="233" y="0" type="move" name="bottom"/>
    </contour>
    <contour>
      <point x="246" y="10" type="move" name="ogonek"/>
    </contour>
    <contour>
      <point x="233" y="436" type="move" name="top"/>
    </contour>
  </outline>
</glyph>
<glyph name="g" format="1">
  <advance width="491"/>
  <unicode hex="0067"/>
  <outline>
    <contour>
      <point x="444" y="-81" type="line"/>
      <point x="444" y="-73"/>
      <point x="442" y="-65"/>
      <point x="442" y="-57" type="curve" smooth="yes"/>
      <point x="442" y="-49"/>
      <point x="450" y="27"/>
      <point x="444" y="36" type="curve"/>
      <point x="447" y="60"/>
      <point x="446" y="83"/>
      <point x="444" y="107" type="curve"/>
      <point x="446" y="110"/>
      <point x="444" y="184"/>
      <point x="444" y="208" type="curve" smooth="yes"/>
      <point x="443" y="230"/>
      <point x="440" y="253"/>
      <point x="440" y="276" type="curve" smooth="yes"/>
      <point x="441" y="330"/>
      <point x="441" y="384"/>
      <point x="437" y="441" type="curve"/>
      <point x="432" y="447"/>
      <point x="433" y="454"/>
      <point x="423" y="455" type="curve" smooth="yes"/>
      <point x="413" y="456"/>
      <point x="408" y="452"/>
      <point x="401" y="449" type="curve"/>
      <point x="396" y="442"/>
      <point x="398" y="430"/>
      <point x="397" y="419" type="curve" smooth="yes"/>
      <point x="396" y="409"/>
      <point x="396" y="386"/>
      <point x="387" y="384" type="curve"/>
      <point x="378" y="387"/>
      <point x="377" y="399"/>
      <point x="371" y="405" type="curve" smooth="yes"/>
      <point x="364" y="411"/>
      <point x="357" y="418"/>
      <point x="351" y="425" type="curve"/>
      <point x="343" y="427"/>
      <point x="338" y="432"/>
      <point x="332" y="436" type="curve"/>
      <point x="299" y="446"/>
      <point x="252" y="458"/>
      <point x="214" y="447" type="curve"/>
      <point x="199" y="454"/>
      <point x="178" y="447"/>
      <point x="168" y="439" type="curve"/>
      <point x="154" y="439"/>
      <point x="148" y="431"/>
      <point x="136" y="428" type="curve"/>
      <point x="127" y="423"/>
      <point x="118" y="417"/>
      <point x="110" y="411" type="curve" smooth="yes"/>
      <point x="104" y="405"/>
      <point x="95" y="399"/>
      <point x="91" y="394" type="curve" smooth="yes"/>
      <point x="90" y="392"/>
      <point x="90" y="390"/>
      <point x="89" y="389" type="curve" smooth="yes"/>
      <point x="82" y="381"/>
      <point x="72" y="376"/>
      <point x="67" y="367" type="curve" smooth="yes"/>
      <point x="61" y="357"/>
      <point x="59" y="344"/>
      <point x="56" y="330" type="curve"/>
      <point x="47" y="317"/>
      <point x="49" y="302"/>
      <point x="49" y="278" type="curve"/>
      <point x="44" y="268"/>
      <point x="41" y="264"/>
      <point x="37" y="252" type="curve"/>
      <point x="39" y="233"/>
      <point x="33" y="214"/>
      <point x="38" y="197" type="curve"/>
      <point x="35" y="191"/>
      <point x="38" y="178"/>
      <point x="35" y="172" type="curve"/>
      <point x="41" y="165"/>
      <point x="41" y="153"/>
      <point x="43" y="143" type="curve" smooth="yes"/>
      <point x="45" y="133"/>
      <point x="51" y="126"/>
      <point x="51" y="113" type="curve"/>
      <point x="61" y="105"/>
      <point x="66" y="95"/>
      <point x="69" y="80" type="curve"/>
      <point x="89" y="66"/>
      <point x="101" y="58"/>
      <point x="118" y="40" type="curve"/>
      <point x="130" y="38"/>
      <point x="138" y="30"/>
      <point x="148" y="24" type="curve"/>
      <point x="167" y="20"/>
      <point x="186" y="14"/>
      <point x="206" y="10" type="curve"/>
      <point x="224" y="10"/>
      <point x="242" y="10"/>
      <point x="255" y="9" type="curve"/>
      <point x="279" y="13"/>
      <point x="303" y="17"/>
      <point x="324" y="24" type="curve"/>
      <point x="337" y="34"/>
      <point x="350" y="42"/>
      <point x="365" y="50" type="curve"/>
      <point x="369" y="55"/>
      <point x="376" y="59"/>
      <point x="379" y="64" type="curve" smooth="yes"/>
      <point x="381" y="67"/>
      <point x="396" y="84"/>
      <point x="399" y="86" type="curve" smooth="yes"/>
      <point x="402" y="88"/>
      <point x="399" y="37"/>
      <point x="401" y="30" type="curve" smooth="yes"/>
      <point x="404" y="22"/>
      <point x="401" y="-60"/>
      <point x="398" y="-100" type="curve"/>
      <point x="394" y="-101"/>
      <point x="400" y="-117"/>
      <point x="396" y="-118" type="curve" smooth="yes"/>
      <point x="377" y="-121"/>
      <point x="342" y="-127"/>
      <point x="326" y="-122" type="curve"/>
      <point x="274" y="-123"/>
      <point x="225" y="-127"/>
      <point x="176" y="-119" type="curve"/>
      <point x="154" y="-127"/>
      <point x="125" y="-115"/>
      <point x="105" y="-121" type="curve"/>
      <point x="101" y="-124"/>
      <point x="98" y="-127"/>
      <point x="94" y="-129" type="curve"/>
      <point x="92" y="-136"/>
      <point x="88" y="-131"/>
      <point x="89" y="-142" type="curve" smooth="yes"/>
      <point x="89" y="-144"/>
      <point x="88" y="-144"/>
      <point x="87" y="-145" type="curve" smooth="yes"/>
      <point x="85" y="-146"/>
      <point x="87" y="-160"/>
      <point x="91" y="-163" type="curve" smooth="yes"/>
      <point x="92" y="-164"/>
      <point x="96" y="-163"/>
      <point x="99" y="-164" type="curve" smooth="yes"/>
      <point x="101" y="-165"/>
      <point x="104" y="-169"/>
      <point x="105" y="-169" type="curve" smooth="yes"/>
      <point x="112" y="-171"/>
      <point x="122" y="-169"/>
      <point x="127" y="-170" type="curve" smooth="yes"/>
      <point x="149" y="-175"/>
      <point x="181" y="-167"/>
      <point x="203" y="-167" type="curve"/>
      <point x="209" y="-171"/>
      <point x="216" y="-169"/>
      <point x="223" y="-169" type="curve" smooth="yes"/>
      <point x="248" y="-170"/>
      <point x="272" y="-169"/>
      <point x="297" y="-169" type="curve"/>
      <point x="304" y="-170"/>
      <point x="307" y="-173"/>
      <point x="315" y="-174" type="curve"/>
      <point x="352" y="-170"/>
      <point x="402" y="-178"/>
      <point x="442" y="-167" type="curve"/>
      <point x="444" y="-162"/>
      <point x="438" y="-159"/>
      <point x="441" y="-156" type="curve"/>
      <point x="441" y="-136"/>
      <point x="444" y="-120"/>
      <point x="440" y="-101" type="curve"/>
    </contour>
    <contour>
      <point x="398" y="256"/>
      <point x="402" y="247"/>
      <point x="403" y="235" type="curve"/>
      <point x="404" y="235"/>
      <point x="404" y="234"/>
      <point x="404" y="233" type="curve" smooth="yes"/>
      <point x="401" y="210"/>
      <point x="402" y="181"/>
      <point x="393" y="159" type="curve" smooth="yes"/>
      <point x="390" y="152"/>
      <point x="385" y="148"/>
      <point x="382" y="140" type="curve" smooth="yes"/>
      <point x="379" y="134"/>
      <point x="374" y="130"/>
      <point x="370" y="124" type="curve" smooth="yes"/>
      <point x="362" y="112"/>
      <point x="361" y="108"/>
      <point x="354" y="96" type="curve"/>
      <point x="349" y="96"/>
      <point x="339" y="86"/>
      <point x="337" y="83" type="curve"/>
      <point x="327" y="79"/>
      <point x="320" y="73"/>
      <point x="312" y="67" type="curve"/>
      <point x="299" y="62"/>
      <point x="278" y="66"/>
      <point x="265" y="61" type="curve"/>
      <point x="248" y="60"/>
      <point x="231" y="61"/>
      <point x="216" y="62" type="curve"/>
      <point x="210" y="65"/>
      <point x="207" y="57"/>
      <point x="201" y="61" type="curve"/>
      <point x="188" y="59"/>
      <point x="183" y="73"/>
      <point x="172" y="73" type="curve"/>
      <point x="164" y="77"/>
      <point x="162" y="86"/>
      <point x="150" y="84" type="curve"/>
      <point x="144" y="92"/>
      <point x="137" y="92"/>
      <point x="128" y="96" type="curve"/>
      <point x="125" y="102"/>
      <point x="119" y="118"/>
      <point x="113" y="121" type="curve"/>
      <point x="110" y="131"/>
      <point x="104" y="138"/>
      <point x="99" y="146" type="curve"/>
      <point x="96" y="157"/>
      <point x="94" y="168"/>
      <point x="88" y="175" type="curve"/>
      <point x="89" y="189"/>
      <point x="85" y="197"/>
      <point x="83" y="208" type="curve"/>
      <point x="83" y="238"/>
      <point x="85" y="248"/>
      <point x="89" y="274" type="curve"/>
      <point x="91" y="280"/>
      <point x="95" y="284"/>
      <point x="97" y="291" type="curve" smooth="yes"/>
      <point x="102" y="303"/>
      <point x="113" y="313"/>
      <point x="115" y="344" type="curve"/>
      <point x="126" y="351"/>
      <point x="132" y="363"/>
      <point x="141" y="372" type="curve"/>
      <point x="153" y="378"/>
      <point x="165" y="383"/>
      <point x="174" y="391" type="curve"/>
      <point x="188" y="394"/>
      <point x="201" y="398"/>
      <point x="214" y="402" type="curve"/>
      <point x="223" y="402"/>
      <point x="233" y="403"/>
      <point x="238" y="399" type="curve"/>
      <point x="244" y="399"/>
      <point x="246" y="404"/>
      <point x="253" y="404" type="curve"/>
      <point x="265" y="399"/>
      <point x="277" y="403"/>
      <point x="290" y="400" type="curve" smooth="yes"/>
      <point x="298" y="398"/>
      <point x="304" y="393"/>
      <point x="310" y="388" type="curve"/>
      <point x="318" y="389"/>
      <point x="320" y="385"/>
      <point x="327" y="385" type="curve"/>
      <point x="334" y="378"/>
      <point x="344" y="373"/>
      <point x="353" y="367" type="curve"/>
      <point x="363" y="357"/>
      <point x="370" y="344"/>
      <point x="381" y="334" type="curve"/>
      <point x="382" y="324"/>
      <point x="397" y="280"/>
      <point x="400" y="271" type="curve"/>
    </contour>
    <contour>
      <point x="263" y="-250" type="move" name="bottom"/>
    </contour>
    <contour>
      <point x="263" y="436" type="move" name="top"/>
    </contour>
  </outline>
</glyph>
<glyph name="j" format="1">
  <advance width="178"/>
  <unicode hex="006A"/>
  <outline>
    <contour>
      <point x="57" y="543"/>
      <point x="63" y="535"/>
      <point x="76" y="531" type="curve"/>
      <point x="93" y="530"/>
      <point x="104" y="534"/>
      <point x="117" y="539" type="curve"/>
      <point x="120" y="546"/>
      <point x="127" y="550"/>
      <point x="130" y="558" type="curve" smooth="yes"/>
      <point x="132" y="562"/>
      <point x="133" y="567"/>
      <point x="133" y="573" type="curve"/>
      <point x="130" y="589"/>
      <point x="121" y="599"/>
      <point x="113" y="610" type="curve"/>
      <point x="109" y="609"/>
      <point x="108" y="613"/>
      <point x="105" y="614" type="curve" smooth="yes"/>
      <point x="94" y="619"/>
      <point x="78" y="618"/>
      <point x="67" y="614" type="curve" smooth="yes"/>
      <point x="59" y="610"/>
      <point x="54" y="598"/>
      <point x="51" y="591" type="curve" smooth="yes"/>
      <point x="50" y="589"/>
      <point x="48" y="588"/>
      <point x="48" y="586" type="curve"/>
      <point x="43" y="574"/>
      <point x="47" y="564"/>
      <point x="46" y="548" type="curve"/>
    </contour>
    <contour>
      <point x="64" y="187" type="line"/>
      <point x="64" y="177"/>
      <point x="66" y="168"/>
      <point x="66" y="157" type="curve" smooth="yes"/>
      <point x="66" y="147"/>
      <point x="64" y="137"/>
      <point x="64" y="127" type="curve"/>
      <point x="68" y="105" type="line"/>
      <point x="68" y="99"/>
      <point x="66" y="92"/>
      <point x="66" y="85" type="curve" smooth="yes"/>
      <point x="66" y="39"/>
      <point x="70" y="-8"/>
      <point x="61" y="-51" type="curve"/>
      <point x="71" y="-87"/>
      <point x="57" y="-132"/>
      <point x="61" y="-167" type="curve"/>
      <point x="69" y="-176"/>
      <point x="83" y="-180"/>
      <point x="99" y="-182" type="curve"/>
      <point x="107" y="-176"/>
      <point x="111" y="-167"/>
      <point x="113" y="-156" type="curve"/>
      <point x="107" y="-141"/>
      <point x="110" y="-123"/>
      <point x="108" y="-106" type="curve"/>
      <point x="103" y="-97"/>
      <point x="105" y="-85"/>
      <point x="105" y="-76" type="curve" smooth="yes"/>
      <point x="105" y="-72"/>
      <point x="103" y="-70"/>
      <point x="103" y="-67" type="curve" smooth="yes"/>
      <point x="107" y="-30"/>
      <point x="105" y="11"/>
      <point x="107" y="42" type="curve"/>
      <point x="106" y="48"/>
      <point x="106" y="56"/>
      <point x="104" y="61" type="curve"/>
      <point x="108" y="189"/>
      <point x="106" y="295"/>
      <point x="109" y="421" type="curve"/>
      <point x="102" y="428"/>
      <point x="86" y="433"/>
      <point x="73" y="430" type="curve"/>
      <point x="62" y="422"/>
      <point x="66" y="403"/>
      <point x="68" y="387" type="curve" smooth="yes"/>
      <point x="68" y="381"/>
      <point x="65" y="377"/>
      <point x="65" y="370" type="curve"/>
      <point x="69" y="347"/>
      <point x="64" y="313"/>
      <point x="68" y="290" type="curve"/>
      <point x="62" y="273"/>
      <point x="67" y="255"/>
      <point x="66" y="239" type="curve"/>
      <point x="67" y="230"/>
      <point x="68" y="220"/>
      <point x="68" y="211" type="curve"/>
    </contour>
  </outline>
</glyph>
<glyph name="o" format="1">
  <advance width="510"/>
  <unicode hex="006F"/>
  <outline>
    <contour>
      <point x="122" y="395" type="line" smooth="yes"/>
      <point x="109" y="387"/>
      <point x="100" y="376"/>
      <point x="89" y="367" type="curve"/>
      <point x="83" y="358"/>
      <point x="77" y="348"/>
      <point x="71" y="341" type="curve" smooth="yes"/>
      <point x="67" y="336"/>
      <point x="62" y="331"/>
      <point x="62" y="323" type="curve"/>
      <point x="48" y="310"/>
      <point x="48" y="283"/>
      <point x="40" y="264" type="curve"/>
      <point x="38" y="245"/>
      <point x="40" y="221"/>
      <point x="35" y="204" type="curve"/>
      <point x="37" y="196"/>
      <point x="37" y="185"/>
      <point x="37" y="174" type="curve"/>
      <point x="43" y="154"/>
      <point x="49" y="133"/>
      <point x="59" y="116" type="curve" smooth="yes"/>
      <point x="61" y="112"/>
      <point x="59" y="104"/>
      <point x="62" y="100" type="curve" smooth="yes"/>
      <point x="66" y="93"/>
      <point x="71" y="87"/>
      <point x="73" y="78" type="curve"/>
      <point x="82" y="69"/>
      <point x="94" y="62"/>
      <point x="103" y="53" type="curve" smooth="yes"/>
      <point x="108" y="49"/>
      <point x="113" y="45"/>
      <point x="119" y="42" type="curve"/>
      <point x="119" y="33"/>
      <point x="128" y="32"/>
      <point x="131" y="26" type="curve"/>
      <point x="142" y="23"/>
      <point x="152" y="20"/>
      <point x="161" y="15" type="curve"/>
      <point x="180" y="17"/>
      <point x="196" y="5"/>
      <point x="215" y="3" type="curve" smooth="yes"/>
      <point x="222" y="2"/>
      <point x="230" y="3"/>
      <point x="237" y="3" type="curve" smooth="yes"/>
      <point x="244" y="2"/>
      <point x="251" y="1"/>
      <point x="257" y="1" type="curve" smooth="yes"/>
      <point x="275" y="2"/>
      <point x="291" y="8"/>
      <point x="309" y="6" type="curve"/>
      <point x="331" y="11"/>
      <point x="352" y="17"/>
      <point x="369" y="26" type="curve" smooth="yes"/>
      <point x="386" y="36"/>
      <point x="400" y="49"/>
      <point x="418" y="58" type="curve"/>
      <point x="426" y="74" type="line"/>
      <point x="427" y="81"/>
      <point x="435" y="80"/>
      <point x="436" y="88" type="curve"/>
      <point x="442" y="98"/>
      <point x="449" y="107"/>
      <point x="456" y="116" type="curve"/>
      <point x="461" y="144" type="line"/>
      <point x="464" y="153"/>
      <point x="468" y="161"/>
      <point x="470" y="171" type="curve" smooth="yes"/>
      <point x="475" y="207" type="line" smooth="yes"/>
      <point x="475" y="208"/>
      <point x="475" y="209"/>
      <point x="473" y="209" type="curve"/>
      <point x="472" y="231"/>
      <point x="470" y="251"/>
      <point x="467" y="271" type="curve" smooth="yes"/>
      <point x="465" y="291"/>
      <point x="453" y="303"/>
      <point x="450" y="323" type="curve"/>
      <point x="441" y="331"/>
      <point x="435" y="342"/>
      <point x="429" y="354" type="curve"/>
      <point x="425" y="354"/>
      <point x="426" y="358"/>
      <point x="425" y="360" type="curve"/>
      <point x="413" y="375"/>
      <point x="394" y="383"/>
      <point x="384" y="398" type="curve"/>
      <point x="368" y="403"/>
      <point x="359" y="415"/>
      <point x="344" y="422" type="curve"/>
      <point x="328" y="427"/>
      <point x="313" y="433"/>
      <point x="295" y="436" type="curve"/>
      <point x="287" y="433"/>
      <point x="279" y="433"/>
      <point x="268" y="434" type="curve" smooth="yes"/>
      <point x="262" y="435"/>
      <point x="263" y="429"/>
      <point x="256" y="430" type="curve"/>
      <point x="241" y="438"/>
      <point x="224" y="427"/>
      <point x="209" y="431" type="curve"/>
      <point x="192" y="427"/>
      <point x="179" y="420"/>
      <point x="158" y="420" type="curve"/>
    </contour>
    <contour>
      <point x="428" y="236"/>
      <point x="434" y="237"/>
      <point x="436" y="233" type="curve"/>
      <point x="437" y="233"/>
      <point x="437" y="232"/>
      <point x="437" y="231" type="curve" smooth="yes"/>
      <point x="435" y="216"/>
      <point x="429" y="205"/>
      <point x="431" y="187" type="curve"/>
      <point x="427" y="172"/>
      <point x="420" y="160"/>
      <point x="417" y="144" type="curve"/>
      <point x="408" y="138"/>
      <point x="402" y="128"/>
      <point x="398" y="116" type="curve"/>
      <point x="389" y="108"/>
      <point x="380" y="100"/>
      <point x="374" y="89" type="curve"/>
      <point x="368" y="87"/>
      <point x="365" y="83"/>
      <point x="361" y="78" type="curve"/>
      <point x="352" y="77"/>
      <point x="345" y="73"/>
      <point x="339" y="67" type="curve"/>
      <point x="325" y="63"/>
      <point x="312" y="58"/>
      <point x="300" y="51" type="curve"/>
      <point x="281" y="53"/>
      <point x="268" y="49"/>
      <point x="253" y="47" type="curve" smooth="yes"/>
      <point x="239" y="46"/>
      <point x="232" y="53"/>
      <point x="218" y="51" type="curve"/>
      <point x="208" y="60"/>
      <point x="192" y="62"/>
      <point x="175" y="64" type="curve"/>
      <point x="170" y="67"/>
      <point x="165" y="71"/>
      <point x="161" y="77" type="curve"/>
      <point x="153" y="78"/>
      <point x="149" y="82"/>
      <point x="142" y="85" type="curve"/>
      <point x="133" y="99"/>
      <point x="118" y="109"/>
      <point x="108" y="122" type="curve"/>
      <point x="104" y="133"/>
      <point x="99" y="142"/>
      <point x="93" y="151" type="curve"/>
      <point x="92" y="165"/>
      <point x="85" y="174"/>
      <point x="87" y="192" type="curve"/>
      <point x="86" y="198"/>
      <point x="81" y="199"/>
      <point x="81" y="206" type="curve" smooth="yes"/>
      <point x="82" y="223"/>
      <point x="87" y="244"/>
      <point x="81" y="260" type="curve"/>
      <point x="83" y="264"/>
      <point x="83" y="268"/>
      <point x="84" y="272" type="curve" smooth="yes"/>
      <point x="87" y="281"/>
      <point x="96" y="286"/>
      <point x="95" y="299" type="curve"/>
      <point x="101" y="303"/>
      <point x="107" y="307"/>
      <point x="112" y="312" type="curve"/>
      <point x="113" y="317"/>
      <point x="117" y="320"/>
      <point x="117" y="326" type="curve"/>
      <point x="128" y="333"/>
      <point x="138" y="343"/>
      <point x="145" y="354" type="curve"/>
      <point x="159" y="361"/>
      <point x="171" y="368"/>
      <point x="183" y="376" type="curve"/>
      <point x="204" y="376"/>
      <point x="221" y="380"/>
      <point x="237" y="386" type="curve"/>
      <point x="250" y="383"/>
      <point x="262" y="387"/>
      <point x="278" y="386" type="curve"/>
      <point x="290" y="381"/>
      <point x="306" y="379"/>
      <point x="322" y="378" type="curve"/>
      <point x="330" y="371"/>
      <point x="355" y="359"/>
      <point x="360" y="359" type="curve"/>
      <point x="379" y="340"/>
      <point x="395" y="319"/>
      <point x="413" y="299" type="curve"/>
      <point x="414" y="286"/>
      <point x="420" y="279"/>
      <point x="428" y="272" type="curve"/>
      <point x="426" y="260"/>
      <point x="428" y="254"/>
      <point x="428" y="241" type="curve" smooth="yes"/>
    </contour>
    <contour>
      <point x="254" y="0" type="move" name="bottom"/>
    </contour>
    <contour>
      <point x="254" y="218" type="move" name="center"/>
    </contour>
    <contour>
      <point x="284" y="10" type="move" name="ogonek"/>
    </contour>
    <contour>
      <point x="254" y="436" type="move" name="top"/>
    </contour>
    <contour>
      <point x="489" y="436" type="move" name="topright"/>
    </contour>
  </outline>
</glyph>
<glyph name="p" format="1">
  <advance width="502"/>
  <unicode hex="0070"/>
  <outline>
    <contour>
      <point x="123" y="33" type="line"/>
      <point x="182" y="-4" type="line"/>
      <point x="187" y="-4"/>
      <point x="191" y="-6"/>
      <point x="196" y="-7" type="curve" smooth="yes"/>
      <point x="212" y="-10" type="line" smooth="yes"/>
      <point x="221" y="-12"/>
      <point x="231" y="-16"/>
      <point x="242" y="-16" type="curve"/>
      <point x="247" y="-17"/>
      <point x="252" y="-15"/>
      <point x="257" y="-15" type="curve" smooth="yes"/>
      <point x="264" y="-15"/>
      <point x="270" y="-18"/>
      <point x="278" y="-18" type="curve"/>
      <point x="284" y="-14"/>
      <point x="294" y="-14"/>
      <point x="300" y="-10" type="curve"/>
      <point x="311" y="-11"/>
      <point x="315" y="-3"/>
      <point x="325" y="-7" type="curve"/>
      <point x="337" y="0"/>
      <point x="353" y="3"/>
      <point x="366" y="9" type="curve"/>
      <point x="378" y="20"/>
      <point x="388" y="33"/>
      <point x="404" y="40" type="curve"/>
      <point x="406" y="49"/>
      <point x="416" y="51"/>
      <point x="418" y="59" type="curve"/>
      <point x="422" y="67"/>
      <point x="429" y="71"/>
      <point x="435" y="77" type="curve"/>
      <point x="436" y="82"/>
      <point x="434" y="88"/>
      <point x="437" y="91" type="curve" smooth="yes"/>
      <point x="452" y="106"/>
      <point x="452" y="136"/>
      <point x="462" y="155" type="curve"/>
      <point x="460" y="169"/>
      <point x="467" y="174"/>
      <point x="467" y="185" type="curve"/>
      <point x="464" y="204"/>
      <point x="467" y="229"/>
      <point x="461" y="245" type="curve"/>
      <point x="460" y="252"/>
      <point x="463" y="254"/>
      <point x="462" y="261" type="curve"/>
      <point x="455" y="282"/>
      <point x="451" y="305"/>
      <point x="443" y="326" type="curve" smooth="yes"/>
      <point x="442" y="329"/>
      <point x="439" y="331"/>
      <point x="437" y="334" type="curve" smooth="yes"/>
      <point x="432" y="343" type="line" smooth="yes"/>
      <point x="420" y="362"/>
      <point x="406" y="377"/>
      <point x="393" y="393" type="curve"/>
      <point x="379" y="403"/>
      <point x="361" y="409"/>
      <point x="349" y="420" type="curve"/>
      <point x="336" y="421"/>
      <point x="330" y="429"/>
      <point x="319" y="431" type="curve"/>
      <point x="311" y="434"/>
      <point x="302" y="433"/>
      <point x="294" y="431" type="curve"/>
      <point x="282" y="436"/>
      <point x="265" y="431"/>
      <point x="256" y="436" type="curve"/>
      <point x="250" y="435"/>
      <point x="247" y="433"/>
      <point x="240" y="433" type="curve"/>
      <point x="233" y="435"/>
      <point x="224" y="435"/>
      <point x="218" y="438" type="curve"/>
      <point x="199" y="432"/>
      <point x="180" y="427"/>
      <point x="161" y="422" type="curve"/>
      <point x="152" y="414"/>
      <point x="142" y="408"/>
      <point x="131" y="401" type="curve"/>
      <point x="127" y="393"/>
      <point x="117" y="389"/>
      <point x="112" y="381" type="curve" smooth="yes"/>
      <point x="110" y="377"/>
      <point x="106" y="375"/>
      <point x="104" y="370" type="curve"/>
      <point x="100" y="369"/>
      <point x="97" y="359"/>
      <point x="93" y="364" type="curve"/>
      <point x="90" y="380"/>
      <point x="96" y="401"/>
      <point x="92" y="420" type="curve"/>
      <point x="84" y="426"/>
      <point x="66" y="429"/>
      <point x="54" y="425" type="curve"/>
      <point x="42" y="408"/>
      <point x="51" y="370"/>
      <point x="45" y="348" type="curve"/>
      <point x="47" y="345"/>
      <point x="48" y="340"/>
      <point x="48" y="335" type="curve" smooth="yes"/>
      <point x="47" y="295"/>
      <point x="49" y="260"/>
      <point x="48" y="223" type="curve"/>
      <point x="53" y="204"/>
      <point x="48" y="184"/>
      <point x="52" y="165" type="curve"/>
      <point x="49" y="153"/>
      <point x="50" y="140"/>
      <point x="49" y="127" type="curve" smooth="yes"/>
      <point x="49" y="122"/>
      <point x="48" y="116"/>
      <point x="48" y="111" type="curve" smooth="yes"/>
      <point x="48" y="104"/>
      <point x="51" y="98"/>
      <point x="51" y="91" type="curve" smooth="yes"/>
      <point x="51" y="85"/>
      <point x="49" y="79"/>
      <point x="49" y="74" type="curve" smooth="yes"/>
      <point x="49" y="68"/>
      <point x="51" y="63"/>
      <point x="51" y="58" type="curve" smooth="yes"/>
      <point x="51" y="54"/>
      <point x="49" y="51"/>
      <point x="49" y="47" type="curve" smooth="yes"/>
      <point x="49" y="43"/>
      <point x="51" y="40"/>
      <point x="51" y="36" type="curve" smooth="yes"/>
      <point x="51" y="20"/>
      <point x="50" y="4"/>
      <point x="51" y="-13" type="curve" smooth="yes"/>
      <point x="51" y="-21"/>
      <point x="53" y="-31"/>
      <point x="52" y="-38" type="curve" smooth="yes"/>
      <point x="52" y="-45"/>
      <point x="50" y="-52"/>
      <point x="49" y="-59" type="curve" smooth="yes"/>
      <point x="48" y="-71"/>
      <point x="50" y="-82"/>
      <point x="48" y="-94" type="curve"/>
      <point x="49" y="-100"/>
      <point x="52" y="-103"/>
      <point x="51" y="-111" type="curve" smooth="yes"/>
      <point x="50" y="-131"/>
      <point x="40" y="-162"/>
      <point x="54" y="-174" type="curve"/>
      <point x="63" y="-179"/>
      <point x="85" y="-179"/>
      <point x="93" y="-174" type="curve"/>
      <point x="103" y="-162"/>
      <point x="95" y="-145"/>
      <point x="95" y="-130" type="curve" smooth="yes"/>
      <point x="95" y="-120"/>
      <point x="97" y="-110"/>
      <point x="97" y="-100" type="curve" smooth="yes"/>
      <point x="95" y="-75"/>
      <point x="93" y="-48"/>
      <point x="93" y="-23" type="curve"/>
      <point x="94" y="-17"/>
      <point x="93" y="-12"/>
      <point x="93" y="-7" type="curve" smooth="yes"/>
      <point x="93" y="6"/>
      <point x="92" y="19"/>
      <point x="95" y="31" type="curve"/>
      <point x="92" y="41"/>
      <point x="91" y="53"/>
      <point x="95" y="62" type="curve"/>
      <point x="104" y="62"/>
      <point x="106" y="55"/>
      <point x="109" y="48" type="curve"/>
    </contour>
    <contour>
      <point x="417" y="233" type="line"/>
      <point x="418" y="233"/>
      <point x="418" y="232"/>
      <point x="418" y="231" type="curve" smooth="yes"/>
      <point x="419" y="205"/>
      <point x="416" y="184"/>
      <point x="413" y="162" type="curve"/>
      <point x="407" y="150"/>
      <point x="407" y="138"/>
      <point x="402" y="126" type="curve" smooth="yes"/>
      <point x="398" y="114"/>
      <point x="387" y="103"/>
      <point x="382" y="91" type="curve"/>
      <point x="368" y="78" type="line" smooth="yes"/>
      <point x="363" y="74"/>
      <point x="360" y="69"/>
      <point x="355" y="66" type="curve"/>
      <point x="353" y="64"/>
      <point x="349" y="64"/>
      <point x="347" y="62" type="curve" smooth="yes"/>
      <point x="342" y="58" type="line" smooth="yes"/>
      <point x="339" y="55"/>
      <point x="333" y="54"/>
      <point x="330" y="50" type="curve"/>
      <point x="318" y="48"/>
      <point x="309" y="43"/>
      <point x="300" y="39" type="curve"/>
      <point x="279" y="38"/>
      <point x="268" y="34"/>
      <point x="248" y="34" type="curve" smooth="yes"/>
      <point x="238" y="35"/>
      <point x="230" y="39"/>
      <point x="218" y="37" type="curve"/>
      <point x="161" y="58" type="line"/>
      <point x="146" y="74"/>
      <point x="127" y="86"/>
      <point x="112" y="103" type="curve"/>
      <point x="106" y="116"/>
      <point x="102" y="131"/>
      <point x="95" y="143" type="curve"/>
      <point x="95" y="155"/>
      <point x="91" y="167"/>
      <point x="90" y="178" type="curve" smooth="yes"/>
      <point x="89" y="189"/>
      <point x="91" y="200"/>
      <point x="87" y="211" type="curve"/>
      <point x="90" y="219"/>
      <point x="89" y="231"/>
      <point x="89" y="242" type="curve" smooth="yes"/>
      <point x="90" y="255"/>
      <point x="96" y="266"/>
      <point x="93" y="278" type="curve"/>
      <point x="101" y="294"/>
      <point x="110" y="310"/>
      <point x="117" y="326" type="curve"/>
      <point x="120" y="329"/>
      <point x="124" y="332"/>
      <point x="125" y="337" type="curve"/>
      <point x="133" y="344"/>
      <point x="142" y="350"/>
      <point x="149" y="359" type="curve"/>
      <point x="157" y="361"/>
      <point x="164" y="366"/>
      <point x="169" y="371" type="curve"/>
      <point x="178" y="372"/>
      <point x="184" y="376"/>
      <point x="190" y="379" type="curve" smooth="yes"/>
      <point x="197" y="381"/>
      <point x="207" y="381"/>
      <point x="212" y="386" type="curve"/>
      <point x="223" y="383"/>
      <point x="234" y="385"/>
      <point x="246" y="387" type="curve" smooth="yes"/>
      <point x="257" y="389"/>
      <point x="271" y="389"/>
      <point x="286" y="387" type="curve" smooth="yes"/>
      <point x="296" y="385"/>
      <point x="302" y="379"/>
      <point x="314" y="379" type="curve"/>
      <point x="321" y="374"/>
      <point x="331" y="372"/>
      <point x="339" y="368" type="curve"/>
      <point x="353" y="355"/>
      <point x="367" y="342"/>
      <point x="382" y="330" type="curve"/>
      <point x="386" y="316"/>
      <point x="394" y="305"/>
      <point x="402" y="294" type="curve"/>
      <point x="406" y="280"/>
      <point x="412" y="267"/>
      <point x="417" y="253" type="curve"/>
    </contour>
    <contour>
      <point x="240" y="0" type="move" name="bottom"/>
    </contour>
    <contour>
      <point x="240" y="436" type="move" name="top"/>
    </contour>
  </outline>
</glyph>
<glyph name="t" format="1">
  <advance width="213"/>
  <unicode hex="0074"/>
  <outline>
    <contour>
      <point x="182" y="387"/>
      <point x="186" y="403"/>
      <point x="180" y="416" type="curve"/>
      <point x="163" y="426"/>
      <point x="134" y="417"/>
      <point x="112" y="423" type="curve"/>
      <point x="110" y="440"/>
      <point x="108" y="458"/>
      <point x="108" y="477" type="curve" smooth="yes"/>
      <point x="108" y="504"/>
      <point x="115" y="532"/>
      <point x="108" y="556" type="curve"/>
      <point x="102" y="563"/>
      <point x="80" y="567"/>
      <point x="70" y="561" type="curve"/>
      <point x="62" y="552"/>
      <point x="67" y="536"/>
      <point x="68" y="524" type="curve" smooth="yes"/>
      <point x="69" y="506"/>
      <point x="68" y="487"/>
      <point x="67" y="468" type="curve" smooth="yes"/>
      <point x="66" y="451"/>
      <point x="70" y="434"/>
      <point x="62" y="422" type="curve"/>
      <point x="51" y="418"/>
      <point x="40" y="422"/>
      <point x="29" y="420" type="curve"/>
      <point x="19" y="412"/>
      <point x="15" y="388"/>
      <point x="27" y="379" type="curve"/>
      <point x="30" y="378"/>
      <point x="32" y="380"/>
      <point x="34" y="376" type="curve"/>
      <point x="43" y="373"/>
      <point x="56" y="382"/>
      <point x="67" y="376" type="curve"/>
      <point x="73" y="367"/>
      <point x="68" y="349"/>
      <point x="67" y="338" type="curve" smooth="yes"/>
      <point x="66" y="316"/>
      <point x="70" y="294"/>
      <point x="70" y="272" type="curve" smooth="yes"/>
      <point x="70" y="245"/>
      <point x="68" y="218"/>
      <point x="68" y="192" type="curve" smooth="yes"/>
      <point x="69" y="182"/>
      <point x="70" y="172"/>
      <point x="70" y="162" type="curve" smooth="yes"/>
      <point x="70" y="153"/>
      <point x="68" y="143"/>
      <point x="68" y="133" type="curve" smooth="yes"/>
      <point x="69" y="126"/>
      <point x="71" y="120"/>
      <point x="71" y="113" type="curve" smooth="yes"/>
      <point x="72" y="107"/>
      <point x="70" y="100"/>
      <point x="70" y="94" type="curve" smooth="yes"/>
      <point x="69" y="78"/>
      <point x="66" y="63"/>
      <point x="70" y="48" type="curve"/>
      <point x="66" y="39"/>
      <point x="65" y="18"/>
      <point x="70" y="9" type="curve"/>
      <point x="80" y="1"/>
      <point x="109" y="-2"/>
      <point x="112" y="14" type="curve" smooth="yes"/>
      <point x="116" y="27"/>
      <point x="109" y="43"/>
      <point x="108" y="56" type="curve" smooth="yes"/>
      <point x="108" y="136"/>
      <point x="109" y="219"/>
      <point x="108" y="294" type="curve" smooth="yes"/>
      <point x="108" y="306"/>
      <point x="110" y="318"/>
      <point x="109" y="329" type="curve" smooth="yes"/>
      <point x="109" y="346"/>
      <point x="104" y="366"/>
      <point x="116" y="379" type="curve"/>
      <point x="126" y="381"/>
      <point x="140" y="379"/>
      <point x="149" y="375" type="curve"/>
      <point x="155" y="378"/>
      <point x="166" y="377"/>
      <point x="174" y="379" type="curve"/>
    </contour>
    <contour>
      <point x="103" y="0" type="move" name="bottom"/>
    </contour>
    <contour>
      <point x="103" y="218" type="move" name="center"/>
    </contour>
    <contour>
      <point x="103" y="436" type="move" name="top"/>
    </contour>
    <contour>
      <point x="191" y="750" type="move" name="topright"/>
    </contour>
  </outline>
</glyph>
<glyph name="w" format="1">
  <advance width="704"/>
  <unicode hex="0077"/>
  <outline>
    <contour>
      <point x="561" y="236" type="line"/>
      <point x="555" y="208"/>
      <point x="540" y="188"/>
      <point x="531" y="163" type="curve" smooth="yes"/>
      <point x="525" y="143"/>
      <point x="517" y="126"/>
      <point x="512" y="107" type="curve"/>
      <point x="507" y="103"/>
      <point x="513" y="88"/>
      <point x="503" y="89" type="curve"/>
      <point x="503" y="113"/>
      <point x="488" y="131"/>
      <point x="484" y="154" type="curve"/>
      <point x="479" y="160"/>
      <point x="477" y="168"/>
      <point x="473" y="174" type="curve"/>
      <point x="469" y="193"/>
      <point x="462" y="208"/>
      <point x="454" y="222" type="curve"/>
      <point x="450" y="240"/>
      <point x="442" y="254"/>
      <point x="435" y="269" type="curve"/>
      <point x="425" y="301"/>
      <point x="410" y="327"/>
      <point x="397" y="356" type="curve"/>
      <point x="396" y="366"/>
      <point x="391" y="371"/>
      <point x="389" y="381" type="curve" smooth="yes"/>
      <point x="387" y="391"/>
      <point x="382" y="397"/>
      <point x="380" y="406" type="curve" smooth="yes"/>
      <point x="378" y="415"/>
      <point x="373" y="422"/>
      <point x="370" y="430" type="curve" smooth="yes"/>
      <point x="367" y="438"/>
      <point x="366" y="449"/>
      <point x="358" y="452" type="curve"/>
      <point x="355" y="454"/>
      <point x="349" y="448"/>
      <point x="345" y="447" type="curve"/>
      <point x="336" y="436"/>
      <point x="333" y="420"/>
      <point x="331" y="403" type="curve"/>
      <point x="322" y="388"/>
      <point x="319" y="367"/>
      <point x="310" y="353" type="curve"/>
      <point x="304" y="335"/>
      <point x="298" y="316"/>
      <point x="288" y="302" type="curve"/>
      <point x="289" y="295"/>
      <point x="286" y="292"/>
      <point x="285" y="286" type="curve"/>
      <point x="281" y="280"/>
      <point x="277" y="273"/>
      <point x="276" y="264" type="curve"/>
      <point x="271" y="259"/>
      <point x="271" y="248"/>
      <point x="265" y="244" type="curve"/>
      <point x="263" y="235"/>
      <point x="259" y="228"/>
      <point x="257" y="220" type="curve"/>
      <point x="252" y="214"/>
      <point x="253" y="202"/>
      <point x="246" y="198" type="curve"/>
      <point x="247" y="192"/>
      <point x="243" y="190"/>
      <point x="244" y="184" type="curve"/>
      <point x="231" y="166"/>
      <point x="229" y="137"/>
      <point x="217" y="118" type="curve"/>
      <point x="219" y="111"/>
      <point x="215" y="108"/>
      <point x="216" y="102" type="curve"/>
      <point x="211" y="100"/>
      <point x="218" y="87"/>
      <point x="209" y="89" type="curve" smooth="yes"/>
      <point x="202" y="90"/>
      <point x="202" y="98"/>
      <point x="202" y="105" type="curve"/>
      <point x="199" y="111"/>
      <point x="197" y="117"/>
      <point x="194" y="122" type="curve"/>
      <point x="194" y="133" type="line"/>
      <point x="181" y="151"/>
      <point x="176" y="177"/>
      <point x="164" y="195" type="curve"/>
      <point x="162" y="214"/>
      <point x="152" y="230"/>
      <point x="145" y="247" type="curve" smooth="yes"/>
      <point x="138" y="264"/>
      <point x="133" y="282"/>
      <point x="123" y="297" type="curve"/>
      <point x="125" y="301"/>
      <point x="121" y="304"/>
      <point x="120" y="307" type="curve"/>
      <point x="118" y="310"/>
      <point x="118" y="315"/>
      <point x="116" y="318" type="curve"/>
      <point x="108" y="338"/>
      <point x="98" y="355"/>
      <point x="93" y="376" type="curve"/>
      <point x="90" y="380"/>
      <point x="87" y="384"/>
      <point x="85" y="389" type="curve" smooth="yes"/>
      <point x="80" y="406"/>
      <point x="73" y="421"/>
      <point x="66" y="436" type="curve"/>
      <point x="60" y="437"/>
      <point x="55" y="441"/>
      <point x="49" y="438" type="curve"/>
      <point x="39" y="437"/>
      <point x="36" y="440"/>
      <point x="30" y="436" type="curve"/>
      <point x="26" y="428"/>
      <point x="25" y="418"/>
      <point x="25" y="406" type="curve"/>
      <point x="27" y="401"/>
      <point x="31" y="396"/>
      <point x="33" y="390" type="curve" smooth="yes"/>
      <point x="36" y="378"/>
      <point x="39" y="367"/>
      <point x="46" y="359" type="curve"/>
      <point x="48" y="346"/>
      <point x="54" y="337"/>
      <point x="60" y="327" type="curve"/>
      <point x="60" y="318" type="line"/>
      <point x="65" y="311"/>
      <point x="72" y="306"/>
      <point x="71" y="293" type="curve"/>
      <point x="74" y="288"/>
      <point x="80" y="285"/>
      <point x="82" y="278" type="curve" smooth="yes"/>
      <point x="84" y="264"/>
      <point x="91" y="256"/>
      <point x="91" y="239" type="curve"/>
      <point x="95" y="234"/>
      <point x="101" y="230"/>
      <point x="101" y="220" type="curve"/>
      <point x="112" y="201" type="line"/>
      <point x="119" y="175"/>
      <point x="130" y="153"/>
      <point x="142" y="130" type="curve"/>
      <point x="144" y="112"/>
      <point x="150" y="99"/>
      <point x="154" y="83" type="curve"/>
      <point x="158" y="77"/>
      <point x="165" y="75"/>
      <point x="167" y="67" type="curve"/>
      <point x="167" y="56" type="line"/>
      <point x="175" y="49"/>
      <point x="177" y="37"/>
      <point x="184" y="29" type="curve"/>
      <point x="185" y="23"/>
      <point x="190" y="21"/>
      <point x="192" y="15" type="curve"/>
      <point x="195" y="10"/>
      <point x="196" y="4"/>
      <point x="203" y="4" type="curve" smooth="yes"/>
      <point x="218" y="3"/>
      <point x="219" y="14"/>
      <point x="225" y="21" type="curve"/>
      <point x="228" y="32"/>
      <point x="234" y="39"/>
      <point x="239" y="47" type="curve"/>
      <point x="241" y="53"/>
      <point x="244" y="58"/>
      <point x="244" y="66" type="curve"/>
      <point x="252" y="72"/>
      <point x="254" y="84"/>
      <point x="260" y="92" type="curve"/>
      <point x="260" y="108"/>
      <point x="267" y="117"/>
      <point x="268" y="132" type="curve"/>
      <point x="278" y="141"/>
      <point x="278" y="160"/>
      <point x="288" y="170" type="curve"/>
      <point x="288" y="186"/>
      <point x="298" y="193"/>
      <point x="299" y="207" type="curve"/>
      <point x="307" y="217" type="line"/>
      <point x="310" y="240"/>
      <point x="319" y="255"/>
      <point x="326" y="274" type="curve" smooth="yes"/>
      <point x="331" y="294"/>
      <point x="338" y="313"/>
      <point x="347" y="329" type="curve" smooth="yes"/>
      <point x="350" y="334"/>
      <point x="348" y="345"/>
      <point x="354" y="346" type="curve"/>
      <point x="364" y="339"/>
      <point x="367" y="325"/>
      <point x="370" y="312" type="curve"/>
      <point x="376" y="302"/>
      <point x="380" y="291"/>
      <point x="384" y="280" type="curve"/>
      <point x="387" y="275"/>
      <point x="386" y="267"/>
      <point x="388" y="263" type="curve"/>
      <point x="403" y="244"/>
      <point x="406" y="212"/>
      <point x="422" y="193" type="curve"/>
      <point x="423" y="182"/>
      <point x="428" y="174"/>
      <point x="432" y="165" type="curve"/>
      <point x="433" y="148"/>
      <point x="442" y="139"/>
      <point x="446" y="126" type="curve" smooth="yes"/>
      <point x="447" y="120"/>
      <point x="448" y="115"/>
      <point x="447" y="108" type="curve"/>
      <point x="455" y="103"/>
      <point x="457" y="91"/>
      <point x="462" y="83" type="curve"/>
      <point x="462" y="78"/>
      <point x="465" y="74"/>
      <point x="465" y="69" type="curve"/>
      <point x="473" y="60"/>
      <point x="475" y="45"/>
      <point x="482" y="36" type="curve" smooth="yes"/>
      <point x="490" y="26"/>
      <point x="490" y="9"/>
      <point x="506" y="7" type="curve"/>
      <point x="513" y="9"/>
      <point x="516" y="16"/>
      <point x="518" y="23" type="curve" smooth="yes"/>
      <point x="520" y="31"/>
      <point x="527" y="35"/>
      <point x="528" y="44" type="curve"/>
      <point x="535" y="55"/>
      <point x="541" y="69"/>
      <point x="548" y="81" type="curve"/>
      <point x="547" y="88"/>
      <point x="550" y="92"/>
      <point x="550" y="97" type="curve"/>
      <point x="562" y="116"/>
      <point x="571" y="137"/>
      <point x="575" y="163" type="curve"/>
      <point x="579" y="171"/>
      <point x="586" y="175"/>
      <point x="588" y="184" type="curve"/>
      <point x="591" y="185"/>
      <point x="588" y="193"/>
      <point x="589" y="196" type="curve"/>
      <point x="593" y="201"/>
      <point x="596" y="206"/>
      <point x="599" y="211" type="curve"/>
      <point x="599" y="218"/>
      <point x="603" y="220"/>
      <point x="602" y="228" type="curve"/>
      <point x="609" y="235"/>
      <point x="609" y="250"/>
      <point x="616" y="258" type="curve"/>
      <point x="620" y="269"/>
      <point x="626" y="279"/>
      <point x="632" y="288" type="curve"/>
      <point x="633" y="293"/>
      <point x="635" y="297"/>
      <point x="635" y="304" type="curve"/>
      <point x="640" y="307"/>
      <point x="641" y="315"/>
      <point x="646" y="318" type="curve"/>
      <point x="647" y="340"/>
      <point x="657" y="353"/>
      <point x="660" y="373" type="curve"/>
      <point x="664" y="376"/>
      <point x="666" y="382"/>
      <point x="670" y="386" type="curve"/>
      <point x="671" y="398"/>
      <point x="678" y="406"/>
      <point x="679" y="419" type="curve"/>
      <point x="676" y="426"/>
      <point x="674" y="434"/>
      <point x="670" y="439" type="curve"/>
      <point x="660" y="441"/>
      <point x="653" y="441"/>
      <point x="645" y="438" type="curve"/>
      <point x="639" y="431"/>
      <point x="634" y="423"/>
      <point x="634" y="411" type="curve"/>
      <point x="625" y="396"/>
      <point x="618" y="380"/>
      <point x="613" y="362" type="curve"/>
      <point x="605" y="347"/>
      <point x="598" y="331"/>
      <point x="594" y="312" type="curve"/>
      <point x="584" y="300"/>
      <point x="582" y="281"/>
      <point x="572" y="269" type="curve"/>
      <point x="573" y="262"/>
      <point x="569" y="260"/>
      <point x="570" y="253" type="curve"/>
    </contour>
    <contour>
      <point x="361" y="0" type="move" name="bottom"/>
    </contour>
    <contour>
      <point x="361" y="436" type="move" name="top"/>
    </contour>
  </outline>
</glyph>
